<svg focusable="false" aria-hidden="true" viewBox="0 0 20 20" width="20" height="20" fill="none" xmlns="http://www.w3.org/2000/svg" class="MuiSvgIcon-root MuiSvgIcon-sizeMd starworld-light-13gklk0"><g clip-path="url(#clip0_335_22216)"><path d="M10 0.00585938C4.47727 0.00585938 0 4.48313 0 10.0059C0 15.0195 3.69318 19.159 8.50546 19.8822V12.6563H6.03136V10.0277H8.50546V8.27859C8.50546 5.38268 9.91636 4.11131 12.3232 4.11131C13.4759 4.11131 14.0855 4.19677 14.3741 4.23586V6.53041H12.7323C11.7105 6.53041 11.3536 7.49904 11.3536 8.59086V10.0277H14.3482L13.9418 12.6563H11.3536V19.9036C16.2345 19.2413 20 15.0681 20 10.0059C20 4.48313 15.5227 0.00585938 10 0.00585938Z" fill="white"></path></g><defs><clipPath id="clip0_335_22216"><rect width="20" height="20" fill="white"></rect></clipPath></defs></svg>