<svg focusable="false" aria-hidden="true" viewBox="0 0 23 22" width="23" height="22" fill="none" xmlns="http://www.w3.org/2000/svg" class="MuiSvgIcon-root MuiSvgIcon-sizeMd starworld-light-13gklk0"><path d="M21.959 2.14258L19.334 19.2051C19.293 19.6152 19.0469 19.9844 18.6777 20.1484C18.3496 20.3535 17.8984 20.3945 17.5293 20.2305L12.8535 18.2617L10.6797 20.9688C10.3516 21.4199 9.85938 21.625 9.32617 21.625C8.3418 21.625 7.5625 20.8457 7.5625 19.8613V16.0469L1.7793 13.668C1.32812 13.4629 1 13.0527 1 12.5195C0.958984 12.0273 1.20508 11.5762 1.65625 11.3301L20.0312 0.830078C20.4414 0.583984 21.0156 0.583984 21.4258 0.871094C21.8359 1.1582 22.041 1.65039 21.959 2.14258ZM11.582 17.7695L8.875 16.6211V19.8613C8.875 20.1484 9.03906 20.3125 9.32617 20.3125C9.44922 20.3125 9.57227 20.2715 9.6543 20.1484L11.582 17.7695ZM13.3457 17.0723L18.0625 19L20.4414 3.53711L9.4082 15.4316L13.3457 17.0723ZM19.457 2.63477L2.3125 12.4375L8.0957 14.8574L19.457 2.63477Z" fill="#1F1F1F"></path></svg>