<svg focusable="false" aria-hidden="true" viewBox="0 0 24 22" width="24" height="22" fill="none" xmlns="http://www.w3.org/2000/svg" class="MuiSvgIcon-root MuiSvgIcon-sizeMd starworld-light-13gklk0"><path d="M21.75 0.5C22.9688 0.5 24 1.53125 24 2.75V17.75C24 19.8594 22.3125 21.5 20.25 21.5H3C1.3125 21.5 0 20.1875 0 18.5V4.25C0 3.875 0.328125 3.5 0.75 3.5C1.125 3.5 1.5 3.875 1.5 4.25V18.5C1.5 19.3438 2.15625 20 3 20C3.79688 20 4.5 19.3438 4.5 18.5V2.75C4.5 1.53125 5.48438 0.5 6.75 0.5H21.75ZM22.5 17.75V2.75C22.5 2.375 22.125 2 21.75 2H6.75C6.32812 2 6 2.375 6 2.75V18.5C6 19.0625 5.8125 19.5781 5.57812 20H20.25C21.4688 20 22.5 19.0156 22.5 17.75ZM12.75 13.25C13.125 13.25 13.5 13.625 13.5 14C13.5 14.4219 13.125 14.75 12.75 14.75H8.25C7.82812 14.75 7.5 14.4219 7.5 14C7.5 13.625 7.82812 13.25 8.25 13.25H12.75ZM20.25 13.25C20.625 13.25 21 13.625 21 14C21 14.4219 20.625 14.75 20.25 14.75H15.75C15.3281 14.75 15 14.4219 15 14C15 13.625 15.3281 13.25 15.75 13.25H20.25ZM12.75 16.25C13.125 16.25 13.5 16.625 13.5 17C13.5 17.4219 13.125 17.75 12.75 17.75H8.25C7.82812 17.75 7.5 17.4219 7.5 17C7.5 16.625 7.82812 16.25 8.25 16.25H12.75ZM20.25 16.25C20.625 16.25 21 16.625 21 17C21 17.4219 20.625 17.75 20.25 17.75H15.75C15.3281 17.75 15 17.4219 15 17C15 16.625 15.3281 16.25 15.75 16.25H20.25ZM19.5 3.5C20.2969 3.5 21 4.20312 21 5V9.5C21 10.3438 20.2969 11 19.5 11H9C8.15625 11 7.5 10.3438 7.5 9.5V5C7.5 4.20312 8.15625 3.5 9 3.5H19.5ZM19.5 9.5V5H9V9.5H19.5Z" fill="#FFDD00"></path></svg>