<svg focusable="false" aria-hidden="true" viewBox="0 0 24 25" width="24" height="25" fill="none" xmlns="http://www.w3.org/2000/svg" class="MuiSvgIcon-root MuiSvgIcon-sizeMd starworld-light-13gklk0"><path d="M17.7188 1.79688C18.8906 0.578125 21 1.42188 21 3.10938V21.4375C21 23.125 18.8906 23.9688 17.7188 22.75L16.6406 21.5781C14.5781 19.4219 11.9062 18.0625 9 17.6875V22.375C9 23.8281 7.78125 25 6.375 25H5.625C4.17188 25 3 23.8281 3 22.375V17.5C1.3125 17.5 0 16.1875 0 14.5V10C0 8.35938 1.3125 7 3 7H6.70312L8.0625 6.95312C11.3438 6.76562 14.3906 5.35938 16.6406 2.96875L17.7188 1.79688ZM19.5 3.10938C19.5 2.73438 19.0781 2.59375 18.8438 2.82812L17.7188 4C15.75 6.0625 13.2188 7.51562 10.5 8.125V16.4219C13.2188 17.0312 15.75 18.4375 17.7188 20.5469L18.8438 21.7188C19.0781 21.9531 19.5 21.7656 19.5 21.4375V3.10938ZM9 16.1875V8.35938C8.71875 8.40625 8.4375 8.40625 8.15625 8.45312L6.75 8.5H3C2.15625 8.5 1.5 9.20312 1.5 10V14.5C1.5 15.3438 2.15625 16 3 16H6.75L8.15625 16.0938C8.4375 16.0938 8.71875 16.1406 9 16.1875ZM4.5 17.5V22.375C4.5 23.0312 4.96875 23.5 5.625 23.5H6.375C6.98438 23.5 7.5 23.0312 7.5 22.375V17.5469L6.70312 17.5H4.5ZM23.25 10C23.625 10 24 10.375 24 10.75V13.75C24 14.1719 23.625 14.5 23.25 14.5C22.8281 14.5 22.5 14.1719 22.5 13.75V10.75C22.5 10.375 22.8281 10 23.25 10Z" fill="#FFDD00"></path></svg>