<svg focusable="false" aria-hidden="true" viewBox="0 0 20 21" width="20" height="21" fill="none" xmlns="http://www.w3.org/2000/svg" class="MuiSvgIcon-root MuiSvgIcon-sizeMd starworld-light-13gklk0"><path d="M18.6836 13.5439C19.4453 13.8867 19.8643 14.7246 19.6738 15.5244L18.874 19.1045C18.6836 19.9043 17.998 20.4375 17.1602 20.4375C7.8291 20.4375 0.249999 12.8584 0.249999 3.52734C0.249999 2.68945 0.783202 2.0039 1.58301 1.85156L5.16309 1.01367C5.96289 0.823241 6.80078 1.24219 7.14355 2.0039L8.78125 5.88867C9.08594 6.57422 8.89551 7.41211 8.32422 7.90723L6.76269 9.16406C7.86719 11.1445 9.54297 12.8203 11.5234 13.9248L12.8184 12.4014C13.2754 11.792 14.1133 11.6016 14.7988 11.8682L18.6836 13.5439ZM17.6553 18.8379L18.4932 15.2578C18.5693 14.9912 18.417 14.7627 18.1885 14.6484L14.3418 13.0107C14.1133 12.9346 13.8848 12.9727 13.7324 13.1631L12.1709 15.0674C11.9805 15.2959 11.6758 15.3721 11.4473 15.2197C8.85742 13.9629 6.72461 11.8301 5.46777 9.27832C5.31543 9.01172 5.3916 8.70703 5.62012 8.5166L7.52441 6.95508C7.71484 6.80273 7.75293 6.57422 7.67676 6.3457L6.03906 2.49902C5.9248 2.30859 5.73437 2.15625 5.54394 2.15625C5.50586 2.15625 5.46777 2.19433 5.42969 2.19433L1.84961 3.03223C1.62109 3.07031 1.46875 3.26074 1.46875 3.52734C1.46875 12.1729 8.51465 19.2568 17.1602 19.2568C17.4268 19.2568 17.6172 19.0664 17.6553 18.8379Z" fill="#FFDD00"></path></svg>