<svg focusable="false" aria-hidden="true" viewBox="0 0 30 22" width="30" height="22" fill="none" xmlns="http://www.w3.org/2000/svg" class="MuiSvgIcon-root MuiSvgIcon-sizeMd starworld-light-13gklk0"><path d="M28.9219 5.42188C29.5781 5.65625 30 6.125 30 6.875C30 7.57812 29.5781 8.14062 28.9219 8.375L15.5156 13.1562C15.3281 13.25 15.1406 13.25 14.9531 13.25C14.8125 13.25 14.625 13.25 14.4375 13.1562L3.75 9.3125V14L5.20312 20.6094C5.25 20.8438 5.20312 21.0781 5.0625 21.2188C4.92188 21.4062 4.6875 21.5 4.45312 21.5H1.5C1.26562 21.5 1.03125 21.4062 0.890625 21.2656C0.75 21.0781 0.703125 20.8438 0.75 20.6094L2.25 14.0938V8.79688L1.03125 8.32812C0.375 8.09375 0 7.48438 0 6.875C0 6.21875 0.375 5.65625 1.03125 5.42188L14.4375 0.59375C14.7656 0.5 15.1875 0.5 15.5156 0.59375L28.9219 5.42188ZM2.4375 20H3.5625L3 17.5156L2.4375 20ZM14.9531 11.75L28.5 6.875L15 2.04688L1.5 6.875L3.70312 7.71875L14.7656 4.29688C15.1406 4.20312 15.5625 4.39062 15.7031 4.8125C15.7969 5.1875 15.6094 5.60938 15.1875 5.75L6.04688 8.5625L14.9531 11.75ZM22.5938 12.5469C23.0156 12.4531 23.3906 12.7812 23.4375 13.1562L23.9531 17.2344C24.0938 18.3125 23.4844 19.3438 22.4062 19.8594C20.1562 20.8906 17.625 21.4531 15.0938 21.5H14.9062C12.3281 21.4531 9.79688 20.8906 7.54688 19.8594C6.46875 19.3438 5.85938 18.3125 6 17.2344L6.51562 13.1562C6.5625 12.7812 6.9375 12.4531 7.35938 12.5469C7.78125 12.5938 8.0625 12.9688 8.01562 13.3906L7.5 17.4219C7.40625 17.8438 7.6875 18.2656 8.15625 18.5C10.2188 19.4375 12.5625 19.9531 14.9062 20H15.0469C17.3906 19.9531 19.7344 19.4375 21.7969 18.5C22.2656 18.2656 22.5469 17.8438 22.4531 17.4219L21.9375 13.3906C21.8906 12.9688 22.1719 12.5938 22.5938 12.5469Z" fill="#FFDD00"></path></svg>