<svg focusable="false" aria-hidden="true" viewBox="0 0 22 24" width="22" height="24" fill="none" xmlns="http://www.w3.org/2000/svg" class="MuiSvgIcon-root MuiSvgIcon-sizeMd starworld-light-13gklk0"><path d="M12.9316 13.3184L15.1328 13.6328C16.0312 13.7676 16.3906 14.8457 15.7617 15.4746L14.1445 17.002L14.5039 19.2031C14.6836 20.1016 13.7402 20.7754 12.9766 20.3711L10.9551 19.3379L8.97852 20.3711C8.21484 20.7754 7.27148 20.1016 7.45117 19.2031L7.81055 17.002L6.19336 15.4746C5.56445 14.8457 5.92383 13.7676 6.82227 13.6328L9.02344 13.3184L10.0117 11.2969C10.416 10.4883 11.5391 10.4883 11.9434 11.2969L12.9316 13.3184ZM9.9668 14.6211L7.7207 14.9355L9.33789 16.5078L8.97852 18.7539L10.9551 17.6758L12.9766 18.7539L12.6172 16.5078L14.2344 14.9355L11.9883 14.6211L10.9551 12.5996L9.9668 14.6211ZM6.6875 3.75H15.3125V1.59375C15.3125 1.23438 15.627 0.875 16.0312 0.875C16.3906 0.875 16.75 1.23438 16.75 1.59375V3.75H18.1875C19.7598 3.75 21.0625 5.05273 21.0625 6.625V21C21.0625 22.6172 19.7598 23.875 18.1875 23.875H3.8125C2.19531 23.875 0.9375 22.6172 0.9375 21V6.625C0.9375 5.05273 2.19531 3.75 3.8125 3.75H5.25V1.59375C5.25 1.23438 5.56445 0.875 5.96875 0.875C6.32812 0.875 6.6875 1.23438 6.6875 1.59375V3.75ZM2.375 21C2.375 21.8086 3.00391 22.4375 3.8125 22.4375H18.1875C18.9512 22.4375 19.625 21.8086 19.625 21V9.5H2.375V21ZM2.375 6.625V8.0625H19.625V6.625C19.625 5.86133 18.9512 5.1875 18.1875 5.1875H3.8125C3.00391 5.1875 2.375 5.86133 2.375 6.625Z" fill="#FFDD00"></path></svg>