<svg focusable="false" aria-hidden="true" viewBox="0 0 20 20" width="20" height="20" fill="none" xmlns="http://www.w3.org/2000/svg" class="MuiSvgIcon-root MuiSvgIcon-sizeMd starworld-light-13gklk0"><path d="M17.3125 4.59375C18.6455 4.59375 19.75 5.69824 19.75 7.03125V16.7812C19.75 18.1523 18.6455 19.2188 17.3125 19.2188H2.6875C1.31641 19.2188 0.249999 18.1523 0.249999 16.7812V7.03125C0.249999 5.69824 1.31641 4.59375 2.6875 4.59375H5.125V2.76562C5.125 1.77539 5.9248 0.937498 6.95312 0.937498H13.0469C14.0371 0.937498 14.875 1.77539 14.875 2.76562V4.59375H17.3125ZM6.34375 2.76562V4.59375H13.6563V2.76562C13.6563 2.46094 13.3516 2.15625 13.0469 2.15625H6.95312C6.61035 2.15625 6.34375 2.46094 6.34375 2.76562ZM18.5313 16.7812V11.9062H13.0469V14.3437C13.0469 14.6865 12.7422 14.9531 12.4375 14.9531H7.5625C7.21973 14.9531 6.95312 14.6865 6.95312 14.3437V11.9062H1.46875V16.7812C1.46875 17.4668 2.00195 18 2.6875 18H17.3125C17.96 18 18.5313 17.4668 18.5313 16.7812ZM8.17187 13.7344H11.8281V11.9062H8.17187V13.7344ZM18.5313 10.6875V7.03125C18.5313 6.38379 17.96 5.8125 17.3125 5.8125H2.6875C2.00195 5.8125 1.46875 6.38379 1.46875 7.03125V10.6875H18.5313Z" fill="#FFDD00"></path></svg>