<svg focusable="false" aria-hidden="true" viewBox="0 0 20 21" width="20" height="21" fill="none" xmlns="http://www.w3.org/2000/svg" class="MuiSvgIcon-root MuiSvgIcon-sizeMd starworld-light-13gklk0"><path d="M12.4375 14.0391C12.4375 13.5439 12.8184 13.125 13.3516 13.125H15.1797C15.6748 13.125 16.0938 13.5439 16.0938 14.0391V15.8672C16.0938 16.4004 15.6748 16.7812 15.1797 16.7812H13.3516C12.8184 16.7812 12.4375 16.4004 12.4375 15.8672V14.0391ZM14.875 15.5625V14.3437H13.6563V15.5625H14.875ZM12.4375 4.28906C12.4375 3.79394 12.8184 3.375 13.3516 3.375H15.1797C15.6748 3.375 16.0938 3.79394 16.0938 4.28906V6.11719C16.0938 6.65039 15.6748 7.03125 15.1797 7.03125H13.3516C12.8184 7.03125 12.4375 6.65039 12.4375 6.11719V4.28906ZM13.6563 4.59375V5.8125H14.875V4.59375H13.6563ZM13.3516 11.9062C12.8184 11.9062 12.4375 11.5254 12.4375 10.9922V9.16406C12.4375 8.66894 12.8184 8.25 13.3516 8.25H15.1797C15.6748 8.25 16.0938 8.66894 16.0938 9.16406V10.9922C16.0938 11.5254 15.6748 11.9062 15.1797 11.9062H13.3516ZM13.6563 9.46875V10.6875H14.875V9.46875H13.6563ZM17.3125 0.937498C18.6455 0.937498 19.75 2.04199 19.75 3.375V18C19.75 19.3711 18.6455 20.4375 17.3125 20.4375H11.2188C9.84766 20.4375 8.78125 19.3711 8.78125 18V3.375C8.78125 2.04199 9.84766 0.937498 11.2188 0.937498H17.3125ZM17.3125 2.15625H11.2188C10.5332 2.15625 10 2.72754 10 3.375V18C10 18.6855 10.5332 19.2188 11.2188 19.2188H17.3125C17.96 19.2188 18.5313 18.6855 18.5313 18V3.375C18.5313 2.72754 17.96 2.15625 17.3125 2.15625ZM6.95312 7.03125H2.6875C2.00195 7.03125 1.46875 7.60254 1.46875 8.25V18C1.46875 18.6855 2.00195 19.2188 2.6875 19.2188H7.5625C7.86719 19.2188 8.17187 19.5234 8.17187 19.8281C8.17187 20.1709 7.86719 20.4375 7.5625 20.4375H2.6875C1.31641 20.4375 0.249999 19.3711 0.249999 18V8.25C0.249999 6.91699 1.31641 5.8125 2.6875 5.8125H6.95312C7.25781 5.8125 7.5625 6.11719 7.5625 6.42187C7.5625 6.76465 7.25781 7.03125 6.95312 7.03125ZM5.42969 13.125C5.9248 13.125 6.34375 13.5439 6.34375 14.0391V15.8672C6.34375 16.4004 5.9248 16.7812 5.42969 16.7812H3.60156C3.06836 16.7812 2.6875 16.4004 2.6875 15.8672V14.0391C2.6875 13.5439 3.06836 13.125 3.60156 13.125H5.42969ZM5.125 15.5625V14.3437H3.90625V15.5625H5.125ZM5.42969 8.25C5.9248 8.25 6.34375 8.66894 6.34375 9.16406V10.9922C6.34375 11.5254 5.9248 11.9062 5.42969 11.9062H3.60156C3.06836 11.9062 2.6875 11.5254 2.6875 10.9922V9.16406C2.6875 8.66894 3.06836 8.25 3.60156 8.25H5.42969ZM5.125 10.6875V9.46875H3.90625V10.6875H5.125Z" fill="#FFDD00"></path></svg>