<svg focusable="false" aria-hidden="true" viewBox="0 0 31 24" width="31" height="24" fill="none" xmlns="http://www.w3.org/2000/svg" class="MuiSvgIcon-root MuiSvgIcon-sizeMd starworld-light-13gklk0"><path d="M25.7812 22.4375C26.1406 22.4375 26.5 22.8418 26.5 23.2012C26.5 23.5605 26.1406 23.875 25.7812 23.875H1.34375C0.939453 23.875 0.625 23.5605 0.625 23.1562C0.625 22.7969 0.939453 22.4375 1.34375 22.4375H12.3047L15.3594 13.5879C15.4941 13.2285 15.9434 13.0039 16.3027 13.1387C16.6621 13.2734 16.8867 13.7227 16.752 14.082L13.832 22.4375H25.7812ZM20.6152 1.68359C26.6348 3.79492 30.3633 9.76953 29.1055 15.6543C29.1055 15.7441 28.9707 15.9238 28.7461 15.9238C28.7012 15.9238 28.6562 15.9238 28.6113 15.8789L5.16211 7.74805C4.9375 7.6582 4.84766 7.43359 4.9375 7.25391C7.04883 3.30078 11.3164 0.875 15.9883 0.875C16.752 0.875 17.5156 0.964844 18.3691 1.09961C18.998 1.18945 19.627 1.36914 20.2559 1.59375C20.3906 1.59375 20.4805 1.63867 20.6152 1.68359ZM6.86914 6.84961L11.8555 8.55664C13.2031 5.72656 15 3.52539 16.8418 2.35742C16.5273 2.35742 16.2578 2.3125 15.9883 2.3125C12.2148 2.3125 8.8457 4.01953 6.86914 6.84961ZM21.7383 11.9707C22.2773 9.45508 22.5469 5.63672 21.2441 3.83984C20.9746 3.52539 20.7051 3.30078 20.3457 3.12109C20.2109 3.07617 20.0312 3.03125 19.8516 2.94141C19.7168 2.94141 19.582 2.89648 19.4023 2.89648C17.5156 2.94141 14.9551 5.41211 13.248 8.96094L21.7383 11.9707ZM23.0859 12.4648L27.8926 14.127C28.0723 11.8809 27.4434 9.58984 26.0957 7.61328C25.332 6.44531 24.2988 5.41211 23.1309 4.60352C23.9395 7.07422 23.5801 10.3984 23.0859 12.4648Z" fill="#FFDD00"></path></svg>