<svg focusable="false" aria-hidden="true" viewBox="0 0 20 15" width="20" height="15" fill="none" xmlns="http://www.w3.org/2000/svg" class="MuiSvgIcon-root MuiSvgIcon-sizeMd starworld-light-13gklk0"><path d="M2.6875 1.59375C2.00195 1.59375 1.46875 2.16504 1.46875 2.8125V4.33594L8.89551 9.82031C9.54297 10.2773 10.4189 10.2773 11.0664 9.82031L18.5313 4.33594V2.8125C18.5313 2.16504 17.96 1.59375 17.3125 1.59375H2.6875ZM1.46875 5.85937V12.5625C1.46875 13.248 2.00195 13.7812 2.6875 13.7812H17.3125C17.96 13.7812 18.5313 13.248 18.5313 12.5625V5.85937L11.79 10.8105C10.7236 11.5723 9.23828 11.5723 8.17187 10.8105L1.46875 5.85937ZM0.249999 2.8125C0.249999 1.47949 1.31641 0.374999 2.6875 0.374999H17.3125C18.6455 0.374999 19.75 1.47949 19.75 2.8125V12.5625C19.75 13.9336 18.6455 15 17.3125 15H2.6875C1.31641 15 0.249999 13.9336 0.249999 12.5625V2.8125Z" fill="#FFDD00"></path></svg>