<svg focusable="false" aria-hidden="true" viewBox="0 0 28 26" width="28" height="26" fill="none" xmlns="http://www.w3.org/2000/svg" class="MuiSvgIcon-root MuiSvgIcon-sizeMd starworld-light-13gklk0"><path d="M21.125 4.98438V10.9844L26 12.7188C26.8906 13.0469 27.5 13.8906 27.5 14.875V20.7812C27.5 21.6719 26.9375 22.5156 26.0938 22.8438L21.2188 24.8594C20.6562 25.0938 20.0469 25.0938 19.4844 24.8594L14 22.6094L8.46875 24.8594C7.90625 25.0938 7.29688 25.0938 6.73438 24.8594L1.85938 22.8438C1.01562 22.5156 0.5 21.6719 0.5 20.7812V14.875C0.5 13.8906 1.0625 13.0469 1.95312 12.7188L6.82812 10.9844H6.875V4.98438C6.875 4.04688 7.4375 3.20312 8.32812 2.875L13.2031 1.14062C13.7188 0.953125 14.2344 0.953125 14.75 1.14062L19.625 2.875C20.5156 3.20312 21.125 4.04688 21.125 4.98438ZM14.2344 2.54688C14.0469 2.5 13.9062 2.5 13.7188 2.54688L8.84375 4.28125C8.75 4.32812 8.65625 4.42188 8.5625 4.46875L13.9531 6.53125L19.3906 4.46875C19.2969 4.42188 19.2031 4.32812 19.1094 4.28125L14.2344 2.54688ZM8.375 10.9844L13.2031 12.7188V7.89062L8.32812 6.01562V10.9844H8.375ZM14.75 12.7188L19.5781 10.9844H19.625V6.01562L14.75 7.89062V12.7188ZM7.95312 17.3594V23.4531L13.2031 21.2969V15.4844L7.95312 17.3594ZM2.42188 21.4844L6.45312 23.125V17.3594L1.95312 15.4844V20.7812C1.95312 21.0625 2.14062 21.3438 2.42188 21.4844ZM20 17.3594L14.75 15.4844V21.2969L20 23.4531V17.3594ZM21.5 23.125L25.5312 21.4844C25.8125 21.3438 26 21.0625 26 20.7812V15.4844L21.5 17.3594V23.125ZM7.85938 12.3906C7.67188 12.3438 7.53125 12.3438 7.34375 12.3906L2.5625 14.125L7.25 16.0469L12.5938 14.125L7.85938 12.3906ZM15.3594 14.125L20.7031 16.0469L25.3906 14.125L20.6094 12.3906C20.4219 12.3438 20.2812 12.3438 20.0938 12.3906L15.3594 14.125Z" fill="#FFDD00"></path></svg>