<svg focusable="false" aria-hidden="true" viewBox="0 0 31 24" width="31" height="24" fill="none" xmlns="http://www.w3.org/2000/svg" class="MuiSvgIcon-root MuiSvgIcon-sizeMd starworld-light-13gklk0"><path d="M15.6719 0.09375C15.7656 0.046875 15.8594 0 16 0C16.0938 0 16.1875 0.046875 16.2812 0.09375C16.375 0.140625 16.4219 0.140625 16.4688 0.1875L17.6875 1.17188C19.2812 2.4375 21.0625 3.42188 23.0312 4.07812L24.4844 4.54688C24.8594 4.6875 25.0469 5.10938 24.9531 5.53125C24.8125 5.90625 24.3906 6.09375 23.9688 6L23.5 5.8125V8.01562C24.8125 9.60938 26.6406 10.7344 28.6562 11.25L28.8906 11.2969C28.9375 11.2969 29.0312 11.3438 29.0781 11.3438C29.1719 11.3906 29.2656 11.4844 29.3125 11.5781C29.4062 11.625 29.4531 11.7656 29.4531 11.8594C29.5 11.9531 29.5 12.0469 29.4531 12.0938C29.4531 12.1875 29.4531 12.2812 29.4062 12.375C29.3594 12.4688 29.2656 12.5625 29.1719 12.6094C29.125 12.6562 28.9844 12.75 28.8906 12.75C28.8438 12.75 28.75 12.75 28.7031 12.75H26.5V15.6562C27.1562 17.1094 28.2812 18.3281 29.7344 19.125L30.5781 19.5938C30.625 19.6406 30.625 19.6406 30.6719 19.6406C30.7656 19.7344 30.8125 19.7812 30.8594 19.875C30.9062 19.9688 30.9531 20.0625 30.9531 20.2031C31 20.2969 30.9531 20.3906 30.9531 20.4375C30.9531 20.5312 30.9062 20.625 30.8594 20.7188C30.7656 20.8125 30.7188 20.8594 30.625 20.9062C30.5312 20.9531 30.4375 21 30.2969 21C30.2969 21 30.25 21 30.2031 21H28V23.25C28 23.6719 27.625 24 27.25 24C26.8281 24 26.5 23.6719 26.5 23.25V21H20.5V23.25C20.5 23.6719 20.125 24 19.75 24C19.3281 24 19 23.6719 19 23.25V21H13V23.25C13 23.6719 12.625 24 12.25 24C11.8281 24 11.5 23.6719 11.5 23.25V21H5.5V23.25C5.5 23.6719 5.125 24 4.75 24C4.32812 24 4 23.6719 4 23.25V21H1.75C1.70312 21 1.65625 21 1.65625 21C1.51562 21 1.42188 20.9531 1.32812 20.9062C1.23438 20.8594 1.1875 20.8125 1.09375 20.7188C1.04688 20.625 1 20.5312 1 20.4375C1 20.3906 0.953125 20.2969 1 20.2031C1 20.0625 1.04688 19.9688 1.09375 19.875C1.14062 19.7812 1.1875 19.7344 1.28125 19.6406C1.32812 19.6406 1.32812 19.6406 1.375 19.5938L2.21875 19.125C3.67188 18.3281 4.79688 17.1094 5.5 15.6562V12.75H3.25C3.20312 12.75 3.10938 12.75 3.0625 12.75C2.96875 12.75 2.82812 12.6562 2.78125 12.6094C2.6875 12.5625 2.59375 12.4688 2.54688 12.375C2.5 12.2812 2.5 12.1875 2.5 12.0938C2.45312 12.0469 2.45312 11.9531 2.5 11.8594C2.5 11.7656 2.54688 11.625 2.64062 11.5781C2.6875 11.4844 2.78125 11.3906 2.875 11.3438C2.92188 11.3438 3.01562 11.2969 3.0625 11.2969L3.29688 11.25C5.3125 10.7344 7.14062 9.60938 8.5 8.01562V5.8125L7.98438 6C7.5625 6.09375 7.14062 5.90625 7 5.53125C6.90625 5.10938 7.09375 4.6875 7.46875 4.54688L8.92188 4.07812C10.8906 3.42188 12.6719 2.4375 14.2656 1.17188L15.4844 0.1875C15.5312 0.140625 15.5781 0.140625 15.6719 0.09375ZM6.71875 16.5C6.15625 17.6719 5.3125 18.7031 4.32812 19.5H27.625C26.6406 18.7031 25.7969 17.6719 25.2344 16.5H6.71875ZM25 15V12.75H7V15H25ZM10 7.5H22V5.29688C20.0781 4.59375 18.3438 3.60938 16.75 2.34375L16 1.73438L15.2031 2.34375C13.6094 3.60938 11.875 4.59375 10 5.29688V7.5ZM24.9531 11.25C24.0156 10.6406 23.125 9.89062 22.375 9H9.57812C8.82812 9.89062 7.9375 10.6406 7 11.25H24.9531Z" fill="#FFDD00"></path></svg>