<svg width="240" height="74" viewBox="0 0 240 74" fill="none" xmlns="http://www.w3.org/2000/svg">
    <path d="M36.522 73.5216C16.3838 73.5216 0.000244141 57.1385 0.000244141 37.0007C0.000244141 16.8629 16.3838 0.478516 36.522 0.478516C56.6602 0.478516 73.0437 16.8625 73.0437 37.0007C73.0437 57.1389 56.6606 73.5216 36.522 73.5216Z"
          fill="black"/>
    <path d="M60.209 30.5989L42.5112 30.1001L36.6521 38.6775L60.209 30.5989Z" fill="#FFDD00"/>
    <path d="M36.652 38.6778L42.5111 30.1H42.5099L36.5469 13.8555V38.7137L36.652 38.6778Z" fill="#FFDD00"/>
    <path d="M36.597 38.7578L36.5527 38.8229L51.1002 60.141L51.1048 60.144L46.6089 42.1606L36.597 38.7578Z"
          fill="#FFDD00"/>
    <mask id="mask0_241_9479" style="mask-type:luminance" maskUnits="userSpaceOnUse" x="36" y="38" width="16"
          height="23">
        <path d="M36.5471 38.8097V50.2812L51.1005 60.1203L36.5525 38.8018L36.5471 38.8097Z" fill="white"/>
    </mask>
    <g mask="url(#mask0_241_9479)">
        <path d="M46.0482 31.8735L26.3979 46.2026L41.5991 67.0487L61.2493 52.7195L46.0482 31.8735Z"
              fill="url(#paint0_linear_241_9479)"/>
    </g>
    <mask id="mask1_241_9479" style="mask-type:luminance" maskUnits="userSpaceOnUse" x="21" y="38" width="16"
          height="23">
        <path d="M21.9904 60.1202L21.99 60.1231L36.5471 50.281V38.8104V38.8096L21.9904 60.1202Z" fill="white"/>
    </mask>
    <g mask="url(#mask1_241_9479)">
        <path d="M26.4949 32.0804L12.1375 53.5273L32.0424 66.8525L46.3998 45.4056L26.4949 32.0804Z"
              fill="url(#paint1_linear_241_9479)"/>
    </g>
    <mask id="mask2_241_9479" style="mask-type:luminance" maskUnits="userSpaceOnUse" x="36" y="30" width="25"
          height="13">
        <path d="M36.6529 38.6562L36.5974 38.7368L46.6093 42.14L60.482 30.5851L60.2094 30.5771L36.6529 38.6562Z"
              fill="white"/>
    </mask>
    <g mask="url(#mask2_241_9479)">
        <path d="M57.7676 22.998L32.9272 31.8921L39.311 49.7211L64.1513 40.827L57.7676 22.998Z"
              fill="url(#paint2_linear_241_9479)"/>
    </g>
    <path d="M36.5476 38.8146L36.4912 38.7319L26.4847 42.164L21.9905 60.1415L36.5476 38.8309V38.8146Z" fill="#FFDD00"/>
    <mask id="mask3_241_9479" style="mask-type:luminance" maskUnits="userSpaceOnUse" x="30" y="13" width="7"
          height="26">
        <path d="M30.5896 30.0664L36.4821 38.7002L36.5067 38.7085L36.5472 38.6944V13.8369L30.5896 30.0664Z"
              fill="white"/>
    </mask>
    <g mask="url(#mask3_241_9479)">
        <path d="M36.5472 13.8369H30.5896V38.7085H36.5472V13.8369Z" fill="url(#paint3_linear_241_9479)"/>
    </g>
    <path d="M30.5898 30.085L30.5844 30.1L12.6128 30.6063L36.4819 38.7187L30.5898 30.085Z" fill="#FFDD00"/>
    <mask id="mask4_241_9479" style="mask-type:luminance" maskUnits="userSpaceOnUse" x="12" y="30" width="25"
          height="13">
        <path d="M26.4855 42.1419L26.4842 42.1452L36.4916 38.7132L36.482 38.6994L12.6133 30.5869L26.4855 42.1419Z"
              fill="white"/>
    </mask>
    <g mask="url(#mask4_241_9479)">
        <path d="M14.8443 23.6364L9.24878 41.0645L34.2599 49.0946L39.8554 31.6666L14.8443 23.6364Z"
              fill="url(#paint4_linear_241_9479)"/>
    </g>
    <path d="M65.7757 37.0001C65.7757 22.0277 54.2341 9.3488 39.3999 7.89551V9.48987C53.3364 10.9361 64.1876 22.9313 64.1876 37.0001C64.1876 51.0689 53.6265 62.9715 39.546 64.4954V66.0885C54.2984 64.5688 65.7762 51.8974 65.7762 37.0001"
          fill="#FFDD00"/>
    <path d="M7.26904 37.0002C7.26904 52.2439 19.0389 64.9466 34.1637 66.1532V64.5585C19.9346 63.3548 8.85673 51.3399 8.85673 37.0002C8.85673 22.6605 19.935 10.6452 34.1637 9.44153V7.84717C19.0389 9.05296 7.26904 21.7565 7.26904 37.0002Z"
          fill="#FFDD00"/>
    <path d="M36.5219 71.1974C17.665 71.1974 2.32365 55.8565 2.32365 36.9996C2.32365 18.1427 17.665 2.80095 36.5219 2.80095C55.3788 2.80095 70.7201 18.1427 70.7201 36.9996C70.7201 55.8565 55.3792 71.1974 36.5219 71.1974ZM36.5219 1.24707C16.8081 1.24707 0.769775 17.2854 0.769775 37C0.769775 56.7146 16.8081 72.7525 36.5219 72.7525C56.2356 72.7525 72.2752 56.7142 72.2752 37C72.2752 17.2858 56.2356 1.24707 36.5219 1.24707Z"
          fill="#FFDD00"/>
    <path d="M37.4039 5.72363H36.1443V11.0339H37.4039V5.72363Z" fill="#FFDD00"/>
    <path d="M37.3884 57.708H36.1292V70.1845H37.3884V57.708Z" fill="#FFDD00"/>
    <path d="M68.4261 35.5869C67.78 35.5869 67.2554 36.112 67.2554 36.7576C67.2554 37.4033 67.78 37.9288 68.4261 37.9288C69.0722 37.9288 69.5968 37.4037 69.5968 36.7576C69.5968 36.1116 69.0714 35.5869 68.4261 35.5869Z"
          fill="#FFDD00"/>
    <path d="M4.90716 35.5869C4.26107 35.5869 3.7356 36.112 3.7356 36.7576C3.7356 37.4033 4.26107 37.9288 4.90716 37.9288C5.55325 37.9288 6.07789 37.4037 6.07789 36.7576C6.07789 36.1116 5.55283 35.5869 4.90716 35.5869Z"
          fill="#FFDD00"/>
    <path d="M123.627 49.6187H85.4878V51.0695H123.627V49.6187Z" fill="black"/>
    <path d="M123.626 49.6177H85.4873V51.0685H123.626V49.6177Z" fill="black"/>
    <path d="M123.626 49.6177H85.4873V51.0685H123.626V49.6177Z" fill="black"/>
    <mask id="mask5_241_9479" style="mask-type:luminance" maskUnits="userSpaceOnUse" x="85" y="49" width="39"
          height="3">
        <path d="M123.626 49.6162H85.4873V51.0671H123.626V49.6162Z" fill="white"/>
    </mask>
    <g mask="url(#mask5_241_9479)">
        <path d="M123.626 49.6162H85.4873V51.0671H123.626V49.6162Z" fill="black"/>
    </g>
    <path d="M238.664 49.6187H200.525V51.0695H238.664V49.6187Z" fill="black"/>
    <path d="M238.664 49.6172H200.525V51.0681H238.664V49.6172Z" fill="black"/>
    <path d="M238.664 49.6177H200.525V51.0685H238.664V49.6177Z" fill="black"/>
    <mask id="mask6_241_9479" style="mask-type:luminance" maskUnits="userSpaceOnUse" x="200" y="49" width="39"
          height="3">
        <path d="M238.664 49.6162H200.525V51.0671H238.664V49.6162Z" fill="white"/>
    </mask>
    <g mask="url(#mask6_241_9479)">
        <path d="M238.664 49.6162H200.525V51.0671H238.664V49.6162Z" fill="black"/>
    </g>
    <path d="M133.735 50.2913C133.735 47.5157 135.526 45.4551 138.437 45.4551C139.753 45.4551 141.132 45.9471 142.116 47.0069L140.989 47.991C140.337 47.3517 139.488 46.969 138.424 46.969C136.725 46.969 135.409 48.2433 135.409 50.2913C135.409 52.1796 136.603 53.6136 138.491 53.6136C139.248 53.6136 139.95 53.416 140.59 52.9912V51.3973H138.277V49.9633H142.184V53.8954C141.321 54.6145 139.938 55.0771 138.491 55.0771C135.783 55.0729 133.735 53.2772 133.735 50.2913Z"
          fill="black"/>
    <path d="M146.886 45.5605H150.368C152.614 45.5605 153.598 46.86 153.598 48.6137C153.598 50.0898 152.878 51.0697 151.499 51.4692L153.942 54.9891H152.016L149.758 51.629H148.496V54.9891H146.89L146.886 45.5605ZM150.019 50.1823C151.306 50.1823 151.932 49.5179 151.932 48.5885C151.932 47.5918 151.28 46.9946 150.128 46.9946H148.496V50.1823H150.019Z"
          fill="black"/>
    <path d="M157.525 50.2745C157.525 47.4989 159.464 45.4551 162.294 45.4551C165.125 45.4551 167.051 47.3938 167.051 50.2745C167.051 53.1552 165.019 55.0939 162.294 55.0939C159.464 55.0981 157.525 53.0501 157.525 50.2745ZM165.373 50.2745C165.373 48.3358 164.031 46.9522 162.29 46.9522C160.444 46.9522 159.182 48.4283 159.182 50.2745C159.182 52.1207 160.444 53.5968 162.29 53.5968C164.031 53.5968 165.373 52.2006 165.373 50.2745Z"
          fill="black"/>
    <path d="M171.445 51.1117V45.5605H173.039V50.994C173.039 52.4953 173.834 53.5845 175.192 53.5845C176.454 53.5845 177.358 52.6131 177.358 50.994V45.5605H178.965V51.1117C178.965 53.5551 177.543 55.0985 175.192 55.0985C172.959 55.0985 171.445 53.6476 171.445 51.1117Z"
          fill="black"/>
    <path d="M183.771 45.5605H187.186C189.444 45.5605 190.416 46.86 190.416 48.6137C190.416 50.6575 189.032 51.629 187.001 51.629H185.382V54.9891H183.775V45.5605H183.771ZM186.837 50.1823C188.153 50.1823 188.75 49.5179 188.75 48.5885C188.75 47.5918 188.111 46.9946 186.959 46.9946H185.377V50.1823H186.837Z"
          fill="black"/>
    <path d="M87.4611 19.5574C86.3718 19.9948 85.5266 20.6046 84.9336 21.3826C84.3364 22.1648 84.0378 23.0689 84.0378 24.0909C84.0378 26.1473 85.2364 27.758 87.6293 28.9355C88.3652 29.3014 89.3114 29.6757 90.4721 30.0626C91.6286 30.4495 92.4403 30.828 92.8987 31.1938C93.3613 31.5555 93.5884 32.0644 93.5884 32.7162C93.5884 33.2923 93.3739 33.7381 92.9491 34.0535C92.5244 34.3689 91.9398 34.5287 91.2039 34.5287C90.0558 34.5287 89.2231 34.2932 88.7143 33.8222C88.2054 33.3512 87.9447 32.6237 87.9447 31.6354H83.4785C83.4785 32.8508 83.7855 33.9274 84.3995 34.861C85.0135 35.7946 85.9261 36.5305 87.1414 37.0688C88.3526 37.6071 89.711 37.8762 91.2039 37.8762C93.3276 37.8762 94.9972 37.4179 96.2125 36.4927C97.4321 35.5717 98.0419 34.3016 98.0419 32.6868C98.0419 30.6682 97.0452 29.0827 95.0476 27.9304C94.2276 27.4552 93.1804 27.0136 91.902 26.6057C90.6235 26.1978 89.732 25.7983 89.2273 25.4114C88.7185 25.0287 88.4662 24.5955 88.4662 24.1245C88.4662 23.582 88.6974 23.1362 89.1558 22.7872C89.6142 22.4339 90.245 22.2615 91.0399 22.2615C91.8347 22.2615 92.4487 22.4676 92.9113 22.8839C93.3739 23.3002 93.601 23.8806 93.601 24.6334H98.0419C98.0419 23.5063 97.7475 22.5096 97.1672 21.6349C96.5826 20.7602 95.7668 20.0873 94.7154 19.6121C93.6641 19.1369 92.4739 18.9014 91.145 18.9014C89.7782 18.9014 88.5503 19.12 87.4611 19.5574Z"
          fill="black"/>
    <path d="M87.4611 19.5574C86.3718 19.9948 85.5266 20.6046 84.9336 21.3826C84.3364 22.1648 84.0378 23.0689 84.0378 24.0909C84.0378 26.1473 85.2364 27.758 87.6293 28.9355C88.3652 29.3014 89.3114 29.6757 90.4721 30.0626C91.6286 30.4495 92.4403 30.828 92.8987 31.1938C93.3613 31.5555 93.5884 32.0644 93.5884 32.7162C93.5884 33.2923 93.3739 33.7381 92.9491 34.0535C92.5244 34.3689 91.9398 34.5287 91.2039 34.5287C90.0558 34.5287 89.2231 34.2932 88.7143 33.8222C88.2054 33.3512 87.9447 32.6237 87.9447 31.6354H83.4785C83.4785 32.8508 83.7855 33.9274 84.3995 34.861C85.0135 35.7946 85.9261 36.5305 87.1414 37.0688C88.3526 37.6071 89.711 37.8762 91.2039 37.8762C93.3276 37.8762 94.9972 37.4179 96.2125 36.4927C97.4321 35.5717 98.0419 34.3016 98.0419 32.6868C98.0419 30.6682 97.0452 29.0827 95.0476 27.9304C94.2276 27.4552 93.1804 27.0136 91.902 26.6057C90.6235 26.1978 89.732 25.7983 89.2273 25.4114C88.7185 25.0287 88.4662 24.5955 88.4662 24.1245C88.4662 23.582 88.6974 23.1362 89.1558 22.7872C89.6142 22.4339 90.245 22.2615 91.0399 22.2615C91.8347 22.2615 92.4487 22.4676 92.9113 22.8839C93.3739 23.3002 93.601 23.8806 93.601 24.6334H98.0419C98.0419 23.5063 97.7475 22.5096 97.1672 21.6349C96.5826 20.7602 95.7668 20.0873 94.7154 19.6121C93.6641 19.1369 92.4739 18.9014 91.145 18.9014C89.7782 18.9014 88.5503 19.12 87.4611 19.5574Z"
          fill="black"/>
    <path d="M87.4611 19.5574C86.3718 19.9948 85.5266 20.6046 84.9336 21.3826C84.3364 22.1648 84.0378 23.0689 84.0378 24.0909C84.0378 26.1473 85.2364 27.758 87.6293 28.9355C88.3652 29.3014 89.3114 29.6757 90.4721 30.0626C91.6286 30.4495 92.4403 30.828 92.8987 31.1938C93.3613 31.5555 93.5884 32.0644 93.5884 32.7162C93.5884 33.2923 93.3739 33.7381 92.9491 34.0535C92.5244 34.3689 91.9398 34.5287 91.2039 34.5287C90.0558 34.5287 89.2231 34.2932 88.7143 33.8222C88.2054 33.3512 87.9447 32.6237 87.9447 31.6354H83.4785C83.4785 32.8508 83.7855 33.9274 84.3995 34.861C85.0135 35.7946 85.9261 36.5305 87.1414 37.0688C88.3526 37.6071 89.711 37.8762 91.2039 37.8762C93.3276 37.8762 94.9972 37.4179 96.2125 36.4927C97.4321 35.5717 98.0419 34.3016 98.0419 32.6868C98.0419 30.6682 97.0452 29.0827 95.0476 27.9304C94.2276 27.4552 93.1804 27.0136 91.902 26.6057C90.6235 26.1978 89.732 25.7983 89.2273 25.4114C88.7185 25.0287 88.4662 24.5955 88.4662 24.1245C88.4662 23.582 88.6974 23.1362 89.1558 22.7872C89.6142 22.4339 90.245 22.2615 91.0399 22.2615C91.8347 22.2615 92.4487 22.4676 92.9113 22.8839C93.3739 23.3002 93.601 23.8806 93.601 24.6334H98.0419C98.0419 23.5063 97.7475 22.5096 97.1672 21.6349C96.5826 20.7602 95.7668 20.0873 94.7154 19.6121C93.6641 19.1369 92.4739 18.9014 91.145 18.9014C89.7782 18.9014 88.5503 19.12 87.4611 19.5574Z"
          fill="black"/>
    <mask id="mask7_241_9479" style="mask-type:luminance" maskUnits="userSpaceOnUse" x="83" y="18" width="16"
          height="20">
        <path d="M87.4611 19.5574C86.3718 19.9948 85.5266 20.6046 84.9336 21.3826C84.3364 22.1648 84.0378 23.0689 84.0378 24.0909C84.0378 26.1473 85.2364 27.758 87.6293 28.9355C88.3652 29.3014 89.3114 29.6757 90.4721 30.0626C91.6286 30.4495 92.4403 30.828 92.8987 31.1938C93.3613 31.5555 93.5884 32.0644 93.5884 32.7162C93.5884 33.2923 93.3739 33.7381 92.9491 34.0535C92.5244 34.3689 91.9398 34.5287 91.2039 34.5287C90.0558 34.5287 89.2231 34.2932 88.7143 33.8222C88.2054 33.3512 87.9447 32.6237 87.9447 31.6354H83.4785C83.4785 32.8508 83.7855 33.9274 84.3995 34.861C85.0135 35.7946 85.9261 36.5305 87.1414 37.0688C88.3526 37.6071 89.711 37.8762 91.2039 37.8762C93.3276 37.8762 94.9972 37.4179 96.2125 36.4927C97.4321 35.5717 98.0419 34.3016 98.0419 32.6868C98.0419 30.6682 97.0452 29.0827 95.0476 27.9304C94.2276 27.4552 93.1804 27.0136 91.902 26.6057C90.6235 26.1978 89.732 25.7983 89.2273 25.4114C88.7185 25.0287 88.4662 24.5955 88.4662 24.1245C88.4662 23.582 88.6974 23.1362 89.1558 22.7872C89.6142 22.4339 90.245 22.2615 91.0399 22.2615C91.8347 22.2615 92.4487 22.4676 92.9113 22.8839C93.3739 23.3002 93.601 23.8806 93.601 24.6334H98.0419C98.0419 23.5063 97.7475 22.5096 97.1672 21.6349C96.5826 20.7602 95.7668 20.0873 94.7154 19.6121C93.6641 19.1369 92.4739 18.9014 91.145 18.9014C89.7782 18.9014 88.5503 19.12 87.4611 19.5574Z"
              fill="white"/>
    </mask>
    <g mask="url(#mask7_241_9479)">
        <path d="M98.0377 18.9014H83.4785V37.872H98.0377V18.9014Z" fill="black"/>
    </g>
    <path d="M99.9004 19.1582V22.594H105.342V37.6242H109.796V22.594H115.334V19.1582H99.9004Z" fill="black"/>
    <path d="M99.9004 19.1582V22.594H105.342V37.6242H109.796V22.594H115.334V19.1582H99.9004Z" fill="black"/>
    <path d="M99.9004 19.1582V22.594H105.342V37.6242H109.796V22.594H115.334V19.1582H99.9004Z" fill="black"/>
    <mask id="mask8_241_9479" style="mask-type:luminance" maskUnits="userSpaceOnUse" x="99" y="19" width="17"
          height="19">
        <path d="M99.9004 19.1582V22.594H105.342V37.6242H109.796V22.594H115.334V19.1582H99.9004Z" fill="white"/>
    </mask>
    <g mask="url(#mask8_241_9479)">
        <path d="M115.334 19.1582H99.9004V37.6242H115.334V19.1582Z" fill="black"/>
    </g>
    <path d="M123.644 24.3309L125.634 30.7357H121.664L123.644 24.3309ZM121.55 19.1582L114.779 37.6242H119.536L120.6 34.1716H126.702L127.778 37.6242H132.56L125.739 19.1582H121.55Z"
          fill="black"/>
    <path d="M123.644 24.3309L125.634 30.7357H121.664L123.644 24.3309ZM121.55 19.1582L114.779 37.6242H119.536L120.6 34.1716H126.702L127.778 37.6242H132.56L125.739 19.1582H121.55Z"
          fill="black"/>
    <path d="M123.644 24.3309L125.634 30.7357H121.664L123.644 24.3309ZM121.55 19.1582L114.779 37.6242H119.536L120.6 34.1716H126.702L127.778 37.6242H132.56L125.739 19.1582H121.55Z"
          fill="black"/>
    <mask id="mask9_241_9479" style="mask-type:luminance" maskUnits="userSpaceOnUse" x="114" y="19" width="19"
          height="19">
        <path d="M123.644 24.3309L125.634 30.7357H121.664L123.644 24.3309ZM121.55 19.1582L114.779 37.6242H119.536L120.6 34.1716H126.702L127.778 37.6242H132.56L125.739 19.1582H121.55Z"
              fill="white"/>
    </mask>
    <g mask="url(#mask9_241_9479)">
        <path d="M132.56 19.1582H114.779V37.6242H132.56V19.1582Z" fill="black"/>
    </g>
    <path d="M138.872 22.5814H141.69C142.527 22.5814 143.162 22.8085 143.591 23.2627C144.024 23.7169 144.238 24.3393 144.238 25.1383C144.238 25.9374 144.028 26.5556 143.599 27.0013C143.17 27.4471 142.535 27.67 141.69 27.67H138.872V22.5814ZM134.423 19.1582V37.6242H138.872V31.0932H141.282L144.541 37.6242H149.31V37.435L145.454 29.9788C146.56 29.4573 147.376 28.7718 147.893 27.9265C148.41 27.0812 148.675 26.0173 148.675 24.7346C148.675 22.9599 148.057 21.5889 146.82 20.6175C145.588 19.646 143.872 19.1624 141.686 19.1624L134.423 19.1582Z"
          fill="black"/>
    <path d="M138.872 22.5814H141.69C142.527 22.5814 143.162 22.8085 143.591 23.2627C144.024 23.7169 144.238 24.3393 144.238 25.1383C144.238 25.9374 144.028 26.5556 143.599 27.0013C143.17 27.4471 142.535 27.67 141.69 27.67H138.872V22.5814ZM134.423 19.1582V37.6242H138.872V31.0932H141.282L144.541 37.6242H149.31V37.435L145.454 29.9788C146.56 29.4573 147.376 28.7718 147.893 27.9265C148.41 27.0812 148.675 26.0173 148.675 24.7346C148.675 22.9599 148.057 21.5889 146.82 20.6175C145.588 19.646 143.872 19.1624 141.686 19.1624L134.423 19.1582Z"
          fill="black"/>
    <path d="M138.872 22.5814H141.69C142.527 22.5814 143.162 22.8085 143.591 23.2627C144.024 23.7169 144.238 24.3393 144.238 25.1383C144.238 25.9374 144.028 26.5556 143.599 27.0013C143.17 27.4471 142.535 27.67 141.69 27.67H138.872V22.5814ZM134.423 19.1582V37.6242H138.872V31.0932H141.282L144.541 37.6242H149.31V37.435L145.454 29.9788C146.56 29.4573 147.376 28.7718 147.893 27.9265C148.41 27.0812 148.675 26.0173 148.675 24.7346C148.675 22.9599 148.057 21.5889 146.82 20.6175C145.588 19.646 143.872 19.1624 141.686 19.1624L134.423 19.1582Z"
          fill="black"/>
    <mask id="mask10_241_9479" style="mask-type:luminance" maskUnits="userSpaceOnUse" x="134" y="19" width="16"
          height="19">
        <path d="M138.872 22.5814H141.69C142.527 22.5814 143.162 22.8085 143.591 23.2627C144.024 23.7169 144.238 24.3393 144.238 25.1383C144.238 25.9374 144.028 26.5556 143.599 27.0013C143.17 27.4471 142.535 27.67 141.69 27.67H138.872V22.5814ZM134.423 19.1582V37.6242H138.872V31.0932H141.282L144.541 37.6242H149.31V37.435L145.454 29.9788C146.56 29.4573 147.376 28.7718 147.893 27.9265C148.41 27.0812 148.675 26.0173 148.675 24.7346C148.675 22.9599 148.057 21.5889 146.82 20.6175C145.588 19.646 143.872 19.1624 141.686 19.1624L134.423 19.1582Z"
              fill="white"/>
    </mask>
    <g mask="url(#mask10_241_9479)">
        <path d="M149.314 19.1582H134.423V37.6242H149.314V19.1582Z" fill="black"/>
    </g>
    <path d="M168.306 19.1582L166.19 30.7357L163.617 19.1582H159.836L157.3 30.7357L155.18 19.1582H150.756L154.688 37.6242H159.293L161.711 27.0938L164.188 37.6242H168.802L172.721 19.1582H168.306Z"
          fill="black"/>
    <path d="M168.306 19.1582L166.19 30.7357L163.617 19.1582H159.836L157.3 30.7357L155.18 19.1582H150.756L154.688 37.6242H159.293L161.711 27.0938L164.188 37.6242H168.802L172.721 19.1582H168.306Z"
          fill="black"/>
    <path d="M168.306 19.1582L166.19 30.7357L163.617 19.1582H159.836L157.3 30.7357L155.18 19.1582H150.756L154.688 37.6242H159.293L161.711 27.0938L164.188 37.6242H168.802L172.721 19.1582H168.306Z"
          fill="black"/>
    <mask id="mask11_241_9479" style="mask-type:luminance" maskUnits="userSpaceOnUse" x="150" y="19" width="23"
          height="19">
        <path d="M168.306 19.1582L166.19 30.7357L163.617 19.1582H159.836L157.3 30.7357L155.18 19.1582H150.756L154.688 37.6242H159.293L161.711 27.0938L164.188 37.6242H168.802L172.721 19.1582H168.306Z"
              fill="white"/>
    </mask>
    <g mask="url(#mask11_241_9479)">
        <path d="M172.721 19.1582H150.756V37.6242H172.721V19.1582Z" fill="black"/>
    </g>
    <path d="M179.888 32.944C179.287 31.9725 178.988 30.5805 178.988 28.7722L179.001 27.4139C179.127 24.0663 180.309 22.3926 182.537 22.3926C183.677 22.3926 184.556 22.8678 185.17 23.8182C185.784 24.7686 186.091 26.1649 186.091 27.9984V28.8479C186.083 30.6394 185.776 32.0146 185.166 32.9692C184.556 33.9281 183.69 34.4033 182.567 34.4033C181.377 34.3991 180.489 33.9154 179.888 32.944ZM178.307 20.0333C177.07 20.7861 176.116 21.8543 175.451 23.2337C174.787 24.6173 174.455 26.2111 174.455 28.0236V29.0624C174.488 30.8034 174.846 32.3468 175.527 33.6926C176.208 35.0383 177.154 36.0728 178.374 36.792C179.594 37.5153 180.986 37.877 182.558 37.877C184.131 37.877 185.532 37.5027 186.76 36.7541C187.992 36.0055 188.942 34.9374 189.607 33.5538C190.275 32.166 190.608 30.5721 190.608 28.7722V27.9227C190.599 26.148 190.254 24.571 189.573 23.2C188.892 21.8248 187.937 20.7651 186.713 20.0207C185.485 19.2764 184.093 18.9063 182.529 18.9063C180.956 18.9021 179.547 19.2806 178.307 20.0333Z"
          fill="black"/>
    <path d="M179.888 32.944C179.287 31.9725 178.988 30.5805 178.988 28.7722L179.001 27.4139C179.127 24.0663 180.309 22.3926 182.537 22.3926C183.677 22.3926 184.556 22.8678 185.17 23.8182C185.784 24.7686 186.091 26.1649 186.091 27.9984V28.8479C186.083 30.6394 185.776 32.0146 185.166 32.9692C184.556 33.9281 183.69 34.4033 182.567 34.4033C181.377 34.3991 180.489 33.9154 179.888 32.944ZM178.307 20.0333C177.07 20.7861 176.116 21.8543 175.451 23.2337C174.787 24.6173 174.455 26.2111 174.455 28.0236V29.0624C174.488 30.8034 174.846 32.3468 175.527 33.6926C176.208 35.0383 177.154 36.0728 178.374 36.792C179.594 37.5153 180.986 37.877 182.558 37.877C184.131 37.877 185.532 37.5027 186.76 36.7541C187.992 36.0055 188.942 34.9374 189.607 33.5538C190.275 32.166 190.608 30.5721 190.608 28.7722V27.9227C190.599 26.148 190.254 24.571 189.573 23.2C188.892 21.8248 187.937 20.7651 186.713 20.0207C185.485 19.2764 184.093 18.9063 182.529 18.9063C180.956 18.9021 179.547 19.2806 178.307 20.0333Z"
          fill="black"/>
    <path d="M179.888 32.944C179.287 31.9725 178.988 30.5805 178.988 28.7722L179.001 27.4139C179.127 24.0663 180.309 22.3926 182.537 22.3926C183.677 22.3926 184.556 22.8678 185.17 23.8182C185.784 24.7686 186.091 26.1649 186.091 27.9984V28.8479C186.083 30.6394 185.776 32.0146 185.166 32.9692C184.556 33.9281 183.69 34.4033 182.567 34.4033C181.377 34.3991 180.489 33.9154 179.888 32.944ZM178.307 20.0333C177.07 20.7861 176.116 21.8543 175.451 23.2337C174.787 24.6173 174.455 26.2111 174.455 28.0236V29.0624C174.488 30.8034 174.846 32.3468 175.527 33.6926C176.208 35.0383 177.154 36.0728 178.374 36.792C179.594 37.5153 180.986 37.877 182.558 37.877C184.131 37.877 185.532 37.5027 186.76 36.7541C187.992 36.0055 188.942 34.9374 189.607 33.5538C190.275 32.166 190.608 30.5721 190.608 28.7722V27.9227C190.599 26.148 190.254 24.571 189.573 23.2C188.892 21.8248 187.937 20.7651 186.713 20.0207C185.485 19.2764 184.093 18.9063 182.529 18.9063C180.956 18.9021 179.547 19.2806 178.307 20.0333Z"
          fill="black"/>
    <mask id="mask12_241_9479" style="mask-type:luminance" maskUnits="userSpaceOnUse" x="174" y="18" width="17"
          height="20">
        <path d="M179.888 32.945C179.287 31.9735 178.989 30.5815 178.989 28.7732L179.001 27.4148C179.127 24.0673 180.309 22.3936 182.538 22.3936C183.678 22.3936 184.557 22.8688 185.171 23.8192C185.784 24.7696 186.091 26.1658 186.091 27.9994V28.8489C186.083 30.6404 185.776 32.0156 185.166 32.9702C184.557 33.929 183.69 34.4043 182.567 34.4043C181.377 34.4001 180.49 33.9164 179.888 32.945ZM178.307 20.0343C177.071 20.7871 176.116 21.8553 175.452 23.2346C174.787 24.6182 174.455 26.2121 174.455 28.0246V29.0634C174.489 30.8044 174.846 32.3478 175.527 33.6935C176.209 35.0393 177.155 36.0738 178.375 36.7929C179.594 37.5163 180.986 37.8779 182.559 37.8779C184.132 37.8779 185.532 37.5037 186.76 36.7551C187.992 36.0065 188.943 34.9383 189.607 33.5548C190.276 32.167 190.608 30.5731 190.608 28.7732V27.9237C190.6 26.149 190.255 24.572 189.574 23.201C188.892 21.8258 187.938 20.7661 186.714 20.0217C185.486 19.2773 184.094 18.9073 182.529 18.9073C180.957 18.9031 179.548 19.2815 178.307 20.0343Z"
              fill="white"/>
    </mask>
    <g mask="url(#mask12_241_9479)">
        <path d="M190.617 18.9033H174.459V37.874H190.617V18.9033Z" fill="black"/>
    </g>
    <path d="M197.882 22.5814H200.696C201.533 22.5814 202.168 22.8085 202.601 23.2627C203.03 23.7169 203.249 24.3393 203.249 25.1383C203.249 25.9374 203.034 26.5556 202.609 27.0013C202.185 27.4471 201.545 27.67 200.7 27.67H197.887V22.5814H197.882ZM193.433 19.1582V37.6242H197.882V31.0932H200.292L203.551 37.6242H208.32V37.435L204.464 29.9788C205.574 29.4573 206.386 28.7718 206.903 27.9265C207.425 27.0812 207.681 26.0173 207.681 24.7346C207.681 22.9599 207.063 21.5889 205.831 20.6175C204.594 19.646 202.883 19.1624 200.692 19.1624L193.433 19.1582Z"
          fill="black"/>
    <path d="M197.882 22.5814H200.696C201.533 22.5814 202.168 22.8085 202.601 23.2627C203.03 23.7169 203.249 24.3393 203.249 25.1383C203.249 25.9374 203.034 26.5556 202.609 27.0013C202.185 27.4471 201.545 27.67 200.7 27.67H197.887V22.5814H197.882ZM193.433 19.1582V37.6242H197.882V31.0932H200.292L203.551 37.6242H208.32V37.435L204.464 29.9788C205.574 29.4573 206.386 28.7718 206.903 27.9265C207.425 27.0812 207.681 26.0173 207.681 24.7346C207.681 22.9599 207.063 21.5889 205.831 20.6175C204.594 19.646 202.883 19.1624 200.692 19.1624L193.433 19.1582Z"
          fill="black"/>
    <path d="M197.882 22.5814H200.696C201.533 22.5814 202.168 22.8085 202.601 23.2627C203.03 23.7169 203.249 24.3393 203.249 25.1383C203.249 25.9374 203.034 26.5556 202.609 27.0013C202.185 27.4471 201.545 27.67 200.7 27.67H197.887V22.5814H197.882ZM193.433 19.1582V37.6242H197.882V31.0932H200.292L203.551 37.6242H208.32V37.435L204.464 29.9788C205.574 29.4573 206.386 28.7718 206.903 27.9265C207.425 27.0812 207.681 26.0173 207.681 24.7346C207.681 22.9599 207.063 21.5889 205.831 20.6175C204.594 19.646 202.883 19.1624 200.692 19.1624L193.433 19.1582Z"
          fill="black"/>
    <mask id="mask13_241_9479" style="mask-type:luminance" maskUnits="userSpaceOnUse" x="193" y="19" width="16"
          height="19">
        <path d="M197.882 22.5814H200.696C201.533 22.5814 202.168 22.8085 202.601 23.2627C203.03 23.7169 203.249 24.3393 203.249 25.1383C203.249 25.9374 203.034 26.5556 202.609 27.0013C202.185 27.4471 201.545 27.67 200.7 27.67H197.887V22.5814H197.882ZM193.433 19.1582V37.6242H197.882V31.0932H200.292L203.551 37.6242H208.32V37.435L204.464 29.9788C205.574 29.4573 206.386 28.7718 206.903 27.9265C207.425 27.0812 207.681 26.0173 207.681 24.7346C207.681 22.9599 207.063 21.5889 205.831 20.6175C204.594 19.646 202.883 19.1624 200.692 19.1624L193.433 19.1582Z"
              fill="white"/>
    </mask>
    <g mask="url(#mask13_241_9479)">
        <path d="M208.32 19.1582H193.433V37.6242H208.32V19.1582Z" fill="black"/>
    </g>
    <path d="M210.894 19.1582V37.6242H223.094V34.1968H215.343V19.1582H210.894Z" fill="black"/>
    <path d="M210.894 19.1582V37.6242H223.094V34.1968H215.343V19.1582H210.894Z" fill="black"/>
    <path d="M210.894 19.1582V37.6242H223.094V34.1968H215.343V19.1582H210.894Z" fill="black"/>
    <mask id="mask14_241_9479" style="mask-type:luminance" maskUnits="userSpaceOnUse" x="210" y="19" width="14"
          height="19">
        <path d="M210.894 19.1582V37.6242H223.094V34.1968H215.343V19.1582H210.894Z" fill="white"/>
    </mask>
    <g mask="url(#mask14_241_9479)">
        <path d="M223.094 19.1582H210.894V37.6242H223.094V19.1582Z" fill="black"/>
    </g>
    <path d="M229.941 22.594H231.438C232.746 22.594 233.746 23.0482 234.428 23.9524C235.113 24.8566 235.454 26.2023 235.454 27.9854V28.7844C235.454 30.5759 235.113 31.9259 234.428 32.8384C233.742 33.7468 232.762 34.201 231.484 34.201H229.936L229.941 22.594ZM225.491 19.1582V37.6242H231.564C233.162 37.6158 234.609 37.2331 235.908 36.4761C237.208 35.7192 238.213 34.672 238.928 33.3305C239.642 31.989 240 30.475 240 28.7844V27.9349C239.992 26.2612 239.621 24.7472 238.89 23.4015C238.158 22.0515 237.14 21.0086 235.841 20.2684C234.541 19.5283 233.074 19.1582 231.442 19.1582H225.491Z"
          fill="black"/>
    <path d="M229.941 22.594H231.438C232.746 22.594 233.746 23.0482 234.428 23.9524C235.113 24.8566 235.454 26.2023 235.454 27.9854V28.7844C235.454 30.5759 235.113 31.9259 234.428 32.8384C233.742 33.7468 232.762 34.201 231.484 34.201H229.936L229.941 22.594ZM225.491 19.1582V37.6242H231.564C233.162 37.6158 234.609 37.2331 235.908 36.4761C237.208 35.7192 238.213 34.672 238.928 33.3305C239.642 31.989 240 30.475 240 28.7844V27.9349C239.992 26.2612 239.621 24.7472 238.89 23.4015C238.158 22.0515 237.14 21.0086 235.841 20.2684C234.541 19.5283 233.074 19.1582 231.442 19.1582H225.491Z"
          fill="black"/>
    <path d="M229.941 22.594H231.438C232.746 22.594 233.746 23.0482 234.428 23.9524C235.113 24.8566 235.454 26.2023 235.454 27.9854V28.7844C235.454 30.5759 235.113 31.9259 234.428 32.8384C233.742 33.7468 232.762 34.201 231.484 34.201H229.936L229.941 22.594ZM225.491 19.1582V37.6242H231.564C233.162 37.6158 234.609 37.2331 235.908 36.4761C237.208 35.7192 238.213 34.672 238.928 33.3305C239.642 31.989 240 30.475 240 28.7844V27.9349C239.992 26.2612 239.621 24.7472 238.89 23.4015C238.158 22.0515 237.14 21.0086 235.841 20.2684C234.541 19.5283 233.074 19.1582 231.442 19.1582H225.491Z"
          fill="black"/>
    <mask id="mask15_241_9479" style="mask-type:luminance" maskUnits="userSpaceOnUse" x="225" y="19" width="15"
          height="19">
        <path d="M229.941 22.594H231.438C232.746 22.594 233.746 23.0482 234.428 23.9524C235.113 24.8566 235.454 26.2023 235.454 27.9854V28.7844C235.454 30.5759 235.113 31.9259 234.428 32.8384C233.742 33.7468 232.762 34.201 231.484 34.201H229.936L229.941 22.594ZM225.491 19.1582V37.6242H231.564C233.162 37.6158 234.609 37.2331 235.908 36.4761C237.208 35.7192 238.213 34.672 238.928 33.3305C239.642 31.989 240 30.475 240 28.7844V27.9349C239.992 26.2612 239.621 24.7472 238.89 23.4015C238.158 22.0515 237.14 21.0086 235.841 20.2684C234.541 19.5283 233.074 19.1582 231.442 19.1582H225.491Z"
              fill="white"/>
    </mask>
    <g mask="url(#mask15_241_9479)">
        <path d="M240 19.1582H225.491V37.6242H240V19.1582Z" fill="black"/>
    </g>
    <defs>
        <linearGradient id="paint0_linear_241_9479" x1="50.5542" y1="58.6781" x2="37.5741" y2="40.8779"
                        gradientUnits="userSpaceOnUse">
            <stop stop-color="#FFDD00"/>
            <stop offset="0.18" stop-color="#F3CB0C"/>
            <stop offset="0.46" stop-color="#E5B51B"/>
            <stop offset="0.74" stop-color="#DCA924"/>
            <stop offset="0.99" stop-color="#DAA528"/>
            <stop offset="1" stop-color="#DAA528"/>
        </linearGradient>
        <linearGradient id="paint1_linear_241_9479" x1="22.3222" y1="59.6048" x2="36.59" y2="38.292"
                        gradientUnits="userSpaceOnUse">
            <stop stop-color="#FFDD00"/>
            <stop offset="0.18" stop-color="#F3CB0C"/>
            <stop offset="0.46" stop-color="#E5B51B"/>
            <stop offset="0.74" stop-color="#DCA924"/>
            <stop offset="0.99" stop-color="#DAA528"/>
            <stop offset="1" stop-color="#DAA528"/>
        </linearGradient>
        <linearGradient id="paint2_linear_241_9479" x1="61.585" y1="31.7378" x2="38.2782" y2="40.0828"
                        gradientUnits="userSpaceOnUse">
            <stop stop-color="#FFDD00"/>
            <stop offset="0.18" stop-color="#F3CB0C"/>
            <stop offset="0.46" stop-color="#E5B51B"/>
            <stop offset="0.74" stop-color="#DCA924"/>
            <stop offset="1" stop-color="#DAA528"/>
        </linearGradient>
        <linearGradient id="paint3_linear_241_9479" x1="33.5776" y1="15.49" x2="33.5776" y2="36.5772"
                        gradientUnits="userSpaceOnUse">
            <stop stop-color="#FFDD00"/>
            <stop offset="0.18" stop-color="#F3CB0C"/>
            <stop offset="0.46" stop-color="#E5B51B"/>
            <stop offset="0.74" stop-color="#DCA924"/>
            <stop offset="0.99" stop-color="#DAA528"/>
            <stop offset="1" stop-color="#DAA528"/>
        </linearGradient>
        <linearGradient id="paint4_linear_241_9479" x1="11.9972" y1="32.2109" x2="35.9609" y2="39.9049"
                        gradientUnits="userSpaceOnUse">
            <stop stop-color="#FFDD00"/>
            <stop offset="0.18" stop-color="#F3CB0C"/>
            <stop offset="0.46" stop-color="#E5B51B"/>
            <stop offset="0.74" stop-color="#DCA924"/>
            <stop offset="0.99" stop-color="#DAA528"/>
            <stop offset="1" stop-color="#DAA528"/>
        </linearGradient>
    </defs>
</svg>
