<svg width="200" height="150" viewBox="0 0 200 150" fill="none" xmlns="http://www.w3.org/2000/svg">
    <g clip-path="url(#clip0_241_9877)">
        <path d="M100 93.9336C74.1834 93.9336 53.1802 72.9309 53.1802 47.1148C53.1802 21.2987 74.1834 0.294434 100 0.294434C125.817 0.294434 146.82 21.2982 146.82 47.1148C146.82 72.9315 125.817 93.9336 100 93.9336Z"
              fill="black"/>
        <path d="M130.366 38.907L107.678 38.2676L100.167 49.2636L130.366 38.907Z" fill="white"/>
        <path d="M100.167 49.264L107.678 38.2674H107.677L100.032 17.4424V49.31L100.167 49.264Z" fill="white"/>
        <path d="M100.096 49.3677L100.04 49.4511L118.689 76.7804L118.695 76.7841L112.931 53.73L100.096 49.3677Z"
              fill="white"/>
        <path d="M100.032 49.435V64.1411L118.689 76.7546L100.039 49.4248L100.032 49.435Z" fill="#D1D2D3"/>
        <mask id="mask0_241_9877" style="mask-type:luminance" maskUnits="userSpaceOnUse" x="100" y="49" width="19"
              height="28">
            <path d="M100.032 49.435V64.1411L118.689 76.7546L100.039 49.4248L100.032 49.435Z" fill="white"/>
        </mask>
        <g mask="url(#mask0_241_9877)">
            <path d="M112.213 40.543L87.0215 58.9126L106.509 85.6366L131.7 67.267L112.213 40.543Z" fill="#D1D2D3"/>
        </g>
        <mask id="mask1_241_9877" style="mask-type:luminance" maskUnits="userSpaceOnUse" x="81" y="49" width="20"
              height="28">
            <path d="M81.3707 76.7547L81.3701 76.7584L100.032 64.1412V49.4361V49.4351L81.3707 76.7547Z" fill="white"/>
        </mask>
        <g mask="url(#mask1_241_9877)">
            <path d="M87.1456 40.8089L68.7397 68.3032L94.2573 85.3857L112.663 57.8914L87.1456 40.8089Z" fill="#D1D2D3"/>
        </g>
        <mask id="mask2_241_9877" style="mask-type:luminance" maskUnits="userSpaceOnUse" x="100" y="38" width="31"
              height="16">
            <path d="M100.168 49.2395L100.097 49.3427L112.932 53.7056L130.716 38.8925L130.367 38.8823L100.168 49.2395Z"
                  fill="white"/>
        </mask>
        <g mask="url(#mask2_241_9877)">
            <path d="M127.236 29.1644L95.3916 40.5664L103.575 63.4227L135.42 52.0207L127.236 29.1644Z" fill="#D1D2D3"/>
        </g>
        <path d="M100.033 49.4404L99.9607 49.3345L87.1326 53.7343L81.3711 76.7809L100.033 49.4613V49.4404Z"
              fill="white"/>
        <mask id="mask3_241_9877" style="mask-type:luminance" maskUnits="userSpaceOnUse" x="92" y="17" width="9"
              height="33">
            <path d="M92.395 38.2238L99.949 49.292L99.9806 49.3027L100.032 49.2845V17.418L92.395 38.2238Z"
                  fill="white"/>
        </mask>
        <g mask="url(#mask3_241_9877)">
            <path d="M100.032 17.418H92.395V49.3027H100.032V17.418Z" fill="#D1D2D3"/>
        </g>
        <path d="M92.3952 38.249L92.3883 38.2683L69.3491 38.9173L99.9487 49.3173L92.3952 38.249Z" fill="white"/>
        <mask id="mask4_241_9877" style="mask-type:luminance" maskUnits="userSpaceOnUse" x="69" y="38" width="31"
              height="16">
            <path d="M87.1334 53.7047L87.1318 53.709L99.9609 49.3092L99.9486 49.2916L69.3496 38.8916L87.1334 53.7047Z"
                  fill="white"/>
        </mask>
        <g mask="url(#mask4_241_9877)">
            <path d="M72.2099 29.9815L65.0366 52.3237L97.1001 62.6182L104.273 40.2759L72.2099 29.9815Z" fill="#D1D2D3"/>
        </g>
        <path d="M137.502 47.1136C137.502 27.9194 122.706 11.6653 103.689 9.80225V11.8462C121.555 13.7002 135.466 29.0778 135.466 47.1136C135.466 65.1494 121.927 80.4082 103.876 82.3617V84.404C122.788 82.4559 137.503 66.2115 137.503 47.1136"
              fill="white"/>
        <path d="M62.4985 47.1136C62.4985 66.6556 77.5872 82.9402 96.9767 84.487V82.4426C78.7355 80.8994 64.5339 65.4967 64.5339 47.1136C64.5339 28.7306 78.736 13.3273 96.9767 11.7842V9.74023C77.5872 11.286 62.4985 27.5716 62.4985 47.1136Z"
              fill="white"/>
        <path d="M99.9997 90.9542C75.8257 90.9542 56.1585 71.2876 56.1585 47.1135C56.1585 22.9395 75.8257 3.27181 99.9997 3.27181C124.174 3.27181 143.841 22.9395 143.841 47.1135C143.841 71.2876 124.174 90.9542 99.9997 90.9542ZM99.9997 1.27979C74.7272 1.27979 54.1665 21.8405 54.1665 47.1141C54.1665 72.3876 74.7272 92.9478 99.9997 92.9478C125.272 92.9478 145.835 72.3871 145.835 47.1141C145.835 21.8411 125.272 1.27979 99.9997 1.27979Z"
              fill="white"/>
        <path d="M101.13 7.01904H99.5156V13.8266H101.13V7.01904Z" fill="white"/>
        <path d="M101.111 73.6616H99.4966V89.6562H101.111V73.6616Z" fill="white"/>
        <path d="M140.9 45.3022C140.072 45.3022 139.399 45.9754 139.399 46.8031C139.399 47.6308 140.072 48.3045 140.9 48.3045C141.729 48.3045 142.401 47.6314 142.401 46.8031C142.401 45.9748 141.727 45.3022 140.9 45.3022Z"
              fill="white"/>
        <path d="M59.4711 45.3022C58.6429 45.3022 57.9692 45.9754 57.9692 46.8031C57.9692 47.6308 58.6429 48.3045 59.4711 48.3045C60.2994 48.3045 60.972 47.6314 60.972 46.8031C60.972 45.9748 60.2989 45.3022 59.4711 45.3022Z"
              fill="white"/>
        <path d="M51.0812 142.736H2.55664V144.582H51.0812V142.736Z" fill="black"/>
        <path d="M51.0812 142.737H2.55664V144.583H51.0812V142.737Z" fill="black"/>
        <path d="M51.0812 142.737H2.55664V144.583H51.0812V142.737Z" fill="black"/>
        <mask id="mask5_241_9877" style="mask-type:luminance" maskUnits="userSpaceOnUse" x="2" y="142" width="50"
              height="3">
            <path d="M51.0815 142.738H2.55688V144.584H51.0815V142.738Z" fill="white"/>
        </mask>
        <g mask="url(#mask5_241_9877)">
            <path d="M51.0815 142.738H2.55688V144.584H51.0815V142.738Z" fill="black"/>
        </g>
        <path d="M197.443 142.736H148.918V144.582H197.443V142.736Z" fill="black"/>
        <path d="M197.443 142.737H148.918V144.583H197.443V142.737Z" fill="black"/>
        <path d="M197.443 142.737H148.918V144.583H197.443V142.737Z" fill="black"/>
        <mask id="mask6_241_9877" style="mask-type:luminance" maskUnits="userSpaceOnUse" x="148" y="142" width="50"
              height="3">
            <path d="M197.443 142.738H148.918V144.584H197.443V142.738Z" fill="white"/>
        </mask>
        <g mask="url(#mask6_241_9877)">
            <path d="M197.443 142.738H148.918V144.584H197.443V142.738Z" fill="black"/>
        </g>
        <path d="M63.9424 143.592C63.9424 140.061 66.2217 137.439 69.9243 137.439C71.5991 137.439 73.3541 138.065 74.6061 139.413L73.1722 140.665C72.3428 139.852 71.262 139.365 69.9083 139.365C67.7467 139.365 66.0719 140.986 66.0719 143.592C66.0719 145.995 67.5915 147.819 69.9939 147.819C70.957 147.819 71.8506 147.568 72.6639 147.027V144.999H69.721V143.175H74.6917V148.178C73.5949 149.093 71.8345 149.681 69.9939 149.681C66.5481 149.676 63.9424 147.391 63.9424 143.592Z"
              fill="black"/>
        <path d="M80.6738 137.573H85.1041C87.9613 137.573 89.2134 139.226 89.2134 141.457C89.2134 143.335 88.2984 144.582 86.5434 145.09L89.6521 149.569H87.2016L84.3283 145.294H82.7231V149.569H80.6792L80.6738 137.573ZM84.66 143.453C86.2973 143.453 87.0945 142.608 87.0945 141.425C87.0945 140.157 86.2652 139.397 84.7991 139.397H82.7231V143.453H84.66Z"
              fill="black"/>
        <path d="M94.2109 143.571C94.2109 140.039 96.6776 137.439 100.279 137.439C103.879 137.439 106.33 139.906 106.33 143.571C106.33 147.236 103.746 149.703 100.279 149.703C96.6776 149.708 94.2109 147.102 94.2109 143.571ZM104.195 143.571C104.195 141.104 102.488 139.344 100.273 139.344C97.9243 139.344 96.3191 141.222 96.3191 143.571C96.3191 145.92 97.9243 147.798 100.273 147.798C102.488 147.798 104.195 146.021 104.195 143.571Z"
              fill="black"/>
        <path d="M111.921 144.636V137.573H113.949V144.486C113.949 146.396 114.961 147.782 116.689 147.782C118.294 147.782 119.444 146.546 119.444 144.486V137.573H121.488V144.636C121.488 147.744 119.68 149.708 116.689 149.708C113.848 149.708 111.921 147.862 111.921 144.636Z"
              fill="black"/>
        <path d="M127.604 137.573H131.949C134.822 137.573 136.058 139.226 136.058 141.457C136.058 144.058 134.298 145.294 131.713 145.294H129.653V149.569H127.609V137.573H127.604ZM131.505 143.453C133.179 143.453 133.939 142.608 133.939 141.425C133.939 140.157 133.126 139.397 131.66 139.397H129.648V143.453H131.505Z"
              fill="black"/>
        <path d="M5.06702 104.489C3.68121 105.045 2.60574 105.821 1.85131 106.811C1.09152 107.806 0.71163 108.956 0.71163 110.256C0.71163 112.873 2.23655 114.922 5.28104 116.42C6.2174 116.886 7.42128 117.362 8.89805 117.854C10.3695 118.347 11.4021 118.828 11.9853 119.294C12.5739 119.754 12.8628 120.401 12.8628 121.231C12.8628 121.964 12.59 122.531 12.0495 122.932C11.5091 123.333 10.7654 123.537 9.82905 123.537C8.36834 123.537 7.30892 123.237 6.66149 122.638C6.01407 122.038 5.68234 121.113 5.68234 119.855H0C0 121.402 0.390594 122.771 1.17178 123.959C1.95297 125.147 3.11405 126.084 4.66037 126.768C6.20134 127.453 7.92959 127.796 9.82905 127.796C12.5311 127.796 14.6553 127.212 16.2016 126.035C17.7533 124.864 18.5291 123.248 18.5291 121.193C18.5291 118.625 17.261 116.608 14.7195 115.142C13.6761 114.537 12.3438 113.975 10.7172 113.456C9.09067 112.937 7.95634 112.429 7.31427 111.937C6.66685 111.45 6.34581 110.899 6.34581 110.299C6.34581 109.609 6.64009 109.042 7.22331 108.598C7.80652 108.148 8.60911 107.929 9.62038 107.929C10.6316 107.929 11.4128 108.191 12.0014 108.721C12.59 109.251 12.8789 109.989 12.8789 110.947H18.5291C18.5291 109.513 18.1546 108.245 17.4162 107.132C16.6725 106.019 15.6344 105.163 14.2968 104.558C12.9591 103.953 11.4449 103.654 9.75414 103.654C8.0152 103.654 6.45282 103.932 5.06702 104.489Z"
              fill="black"/>
        <path d="M5.06702 104.489C3.68121 105.045 2.60574 105.821 1.85131 106.811C1.09152 107.806 0.71163 108.956 0.71163 110.256C0.71163 112.873 2.23655 114.922 5.28104 116.42C6.2174 116.886 7.42128 117.362 8.89805 117.854C10.3695 118.347 11.4021 118.828 11.9853 119.294C12.5739 119.754 12.8628 120.401 12.8628 121.231C12.8628 121.964 12.59 122.531 12.0495 122.932C11.5091 123.333 10.7654 123.537 9.82905 123.537C8.36834 123.537 7.30892 123.237 6.66149 122.638C6.01407 122.038 5.68234 121.113 5.68234 119.855H0C0 121.402 0.390594 122.771 1.17178 123.959C1.95297 125.147 3.11405 126.084 4.66037 126.768C6.20134 127.453 7.92959 127.796 9.82905 127.796C12.5311 127.796 14.6553 127.212 16.2016 126.035C17.7533 124.864 18.5291 123.248 18.5291 121.193C18.5291 118.625 17.261 116.608 14.7195 115.142C13.6761 114.537 12.3438 113.975 10.7172 113.456C9.09067 112.937 7.95634 112.429 7.31427 111.937C6.66685 111.45 6.34581 110.899 6.34581 110.299C6.34581 109.609 6.64009 109.042 7.22331 108.598C7.80652 108.148 8.60911 107.929 9.62038 107.929C10.6316 107.929 11.4128 108.191 12.0014 108.721C12.59 109.251 12.8789 109.989 12.8789 110.947H18.5291C18.5291 109.513 18.1546 108.245 17.4162 107.132C16.6725 106.019 15.6344 105.163 14.2968 104.558C12.9591 103.953 11.4449 103.654 9.75414 103.654C8.0152 103.654 6.45282 103.932 5.06702 104.489Z"
              fill="black"/>
        <path d="M5.06702 104.489C3.68121 105.045 2.60574 105.821 1.85131 106.811C1.09152 107.806 0.71163 108.956 0.71163 110.256C0.71163 112.873 2.23655 114.922 5.28104 116.42C6.2174 116.886 7.42128 117.362 8.89805 117.854C10.3695 118.347 11.4021 118.828 11.9853 119.294C12.5739 119.754 12.8628 120.401 12.8628 121.231C12.8628 121.964 12.59 122.531 12.0495 122.932C11.5091 123.333 10.7654 123.537 9.82905 123.537C8.36834 123.537 7.30892 123.237 6.66149 122.638C6.01407 122.038 5.68234 121.113 5.68234 119.855H0C0 121.402 0.390594 122.771 1.17178 123.959C1.95297 125.147 3.11405 126.084 4.66037 126.768C6.20134 127.453 7.92959 127.796 9.82905 127.796C12.5311 127.796 14.6553 127.212 16.2016 126.035C17.7533 124.864 18.5291 123.248 18.5291 121.193C18.5291 118.625 17.261 116.608 14.7195 115.142C13.6761 114.537 12.3438 113.975 10.7172 113.456C9.09067 112.937 7.95634 112.429 7.31427 111.937C6.66685 111.45 6.34581 110.899 6.34581 110.299C6.34581 109.609 6.64009 109.042 7.22331 108.598C7.80652 108.148 8.60911 107.929 9.62038 107.929C10.6316 107.929 11.4128 108.191 12.0014 108.721C12.59 109.251 12.8789 109.989 12.8789 110.947H18.5291C18.5291 109.513 18.1546 108.245 17.4162 107.132C16.6725 106.019 15.6344 105.163 14.2968 104.558C12.9591 103.953 11.4449 103.654 9.75414 103.654C8.0152 103.654 6.45282 103.932 5.06702 104.489Z"
              fill="black"/>
        <mask id="mask7_241_9877" style="mask-type:luminance" maskUnits="userSpaceOnUse" x="0" y="103" width="19"
              height="25">
            <path d="M5.06702 104.489C3.68121 105.045 2.60574 105.821 1.85131 106.811C1.09152 107.806 0.71163 108.956 0.71163 110.256C0.71163 112.873 2.23655 114.922 5.28104 116.42C6.2174 116.886 7.42128 117.362 8.89805 117.854C10.3695 118.347 11.4021 118.828 11.9853 119.294C12.5739 119.754 12.8628 120.401 12.8628 121.231C12.8628 121.964 12.59 122.531 12.0495 122.932C11.5091 123.333 10.7654 123.537 9.82905 123.537C8.36834 123.537 7.30892 123.237 6.66149 122.638C6.01407 122.038 5.68234 121.113 5.68234 119.855H0C0 121.402 0.390594 122.771 1.17178 123.959C1.95297 125.147 3.11405 126.084 4.66037 126.768C6.20134 127.453 7.92959 127.796 9.82905 127.796C12.5311 127.796 14.6553 127.212 16.2016 126.035C17.7533 124.864 18.5291 123.248 18.5291 121.193C18.5291 118.625 17.261 116.608 14.7195 115.142C13.6761 114.537 12.3438 113.975 10.7172 113.456C9.09067 112.937 7.95634 112.429 7.31427 111.937C6.66685 111.45 6.34581 110.899 6.34581 110.299C6.34581 109.609 6.64009 109.042 7.22331 108.598C7.80652 108.148 8.60911 107.929 9.62038 107.929C10.6316 107.929 11.4128 108.191 12.0014 108.721C12.59 109.251 12.8789 109.989 12.8789 110.947H18.5291C18.5291 109.513 18.1546 108.245 17.4162 107.132C16.6725 106.019 15.6344 105.163 14.2968 104.558C12.9591 103.953 11.4449 103.654 9.75414 103.654C8.0152 103.654 6.45282 103.932 5.06702 104.489Z"
                  fill="white"/>
        </mask>
        <g mask="url(#mask7_241_9877)">
            <path d="M18.5238 103.654H0V127.79H18.5238V103.654Z" fill="black"/>
        </g>
        <path d="M20.894 103.981V108.352H27.8177V127.475H33.484V108.352H40.5307V103.981H20.894Z" fill="black"/>
        <path d="M20.894 103.981V108.353H27.8177V127.476H33.484V108.353H40.5307V103.981H20.894Z" fill="black"/>
        <path d="M20.894 103.982V108.353H27.8177V127.476H33.484V108.353H40.5307V103.982H20.894Z" fill="black"/>
        <mask id="mask8_241_9877" style="mask-type:luminance" maskUnits="userSpaceOnUse" x="20" y="103" width="21"
              height="25">
            <path d="M20.894 103.983V108.354H27.8177V127.477H33.484V108.354H40.5307V103.983H20.894Z" fill="white"/>
        </mask>
        <g mask="url(#mask8_241_9877)">
            <path d="M40.5307 103.983H20.894V127.477H40.5307V103.983Z" fill="black"/>
        </g>
        <path d="M51.1038 110.562L53.6346 118.711H48.5836L51.1038 110.562ZM48.4392 103.981L39.8247 127.475H45.8762L47.2299 123.083H54.9937L56.3634 127.475H62.447L53.7684 103.981H48.4392Z"
              fill="black"/>
        <path d="M51.1038 110.563L53.6346 118.712H48.5836L51.1038 110.563ZM48.4392 103.981L39.8247 127.476H45.8762L47.2299 123.083H54.9937L56.3634 127.476H62.447L53.7684 103.981H48.4392Z"
              fill="black"/>
        <path d="M51.1038 110.563L53.6346 118.712H48.5836L51.1038 110.563ZM48.4392 103.982L39.8247 127.476H45.8762L47.2299 123.084H54.9937L56.3634 127.476H62.447L53.7684 103.982H48.4392Z"
              fill="black"/>
        <mask id="mask9_241_9877" style="mask-type:luminance" maskUnits="userSpaceOnUse" x="39" y="103" width="24"
              height="25">
            <path d="M51.1038 110.564L53.6346 118.713H48.5836L51.1038 110.564ZM48.4392 103.983L39.8247 127.477H45.8762L47.2299 123.085H54.9937L56.3634 127.477H62.447L53.7684 103.983H48.4392Z"
                  fill="white"/>
        </mask>
        <g mask="url(#mask9_241_9877)">
            <path d="M62.447 103.983H39.8247V127.477H62.447V103.983Z" fill="black"/>
        </g>
        <path d="M70.4778 108.336H74.0627C75.1275 108.336 75.9354 108.625 76.4812 109.203C77.0323 109.781 77.3052 110.573 77.3052 111.59C77.3052 112.606 77.0377 113.393 76.4919 113.96C75.9461 114.527 75.1382 114.811 74.0627 114.811H70.4778V108.336ZM64.8169 103.981V127.475H70.4778V119.166H73.5437L77.6904 127.475H83.758V127.235L78.8515 117.748C80.2587 117.085 81.2967 116.212 81.9549 115.137C82.613 114.061 82.9501 112.708 82.9501 111.076C82.9501 108.818 82.1635 107.074 80.5905 105.838C79.0227 104.602 76.8397 103.986 74.0574 103.986L64.8169 103.981Z"
              fill="black"/>
        <path d="M70.4773 108.337H74.0622C75.127 108.337 75.9349 108.626 76.4807 109.204C77.0318 109.781 77.3047 110.573 77.3047 111.59C77.3047 112.607 77.0372 113.393 76.4914 113.96C75.9456 114.527 75.1377 114.811 74.0622 114.811H70.4773V108.337ZM64.8164 103.981V127.476H70.4773V119.166H73.5432L77.6899 127.476H83.7575V127.235L78.851 117.749C80.2582 117.085 81.2962 116.213 81.9544 115.137C82.6125 114.062 82.9496 112.708 82.9496 111.076C82.9496 108.818 82.163 107.074 80.59 105.838C79.0222 104.602 76.8392 103.987 74.0569 103.987L64.8164 103.981Z"
              fill="black"/>
        <path d="M70.4773 108.337H74.0622C75.127 108.337 75.9349 108.626 76.4807 109.204C77.0318 109.782 77.3047 110.574 77.3047 111.59C77.3047 112.607 77.0372 113.394 76.4914 113.961C75.9456 114.528 75.1377 114.812 74.0622 114.812H70.4773V108.337ZM64.8164 103.982V127.476H70.4773V119.167H73.5432L77.6899 127.476H83.7575V127.236L78.851 117.749C80.2582 117.086 81.2962 116.213 81.9544 115.138C82.6125 114.062 82.9496 112.709 82.9496 111.077C82.9496 108.819 82.163 107.075 80.59 105.839C79.0222 104.603 76.8392 103.987 74.0569 103.987L64.8164 103.982Z"
              fill="black"/>
        <mask id="mask10_241_9877" style="mask-type:luminance" maskUnits="userSpaceOnUse" x="64" y="103" width="20"
              height="25">
            <path d="M70.4768 108.338H74.0617C75.1265 108.338 75.9345 108.627 76.4802 109.205C77.0313 109.783 77.3042 110.575 77.3042 111.591C77.3042 112.608 77.0367 113.395 76.4909 113.962C75.9452 114.529 75.1372 114.813 74.0617 114.813H70.4768V108.338ZM64.8159 103.983V127.477H70.4768V119.168H73.5427L77.6895 127.477H83.757V127.237L78.8505 117.75C80.2577 117.087 81.2958 116.214 81.9539 115.139C82.612 114.063 82.9491 112.71 82.9491 111.078C82.9491 108.82 82.1626 107.076 80.5895 105.84C79.0218 104.604 76.8387 103.988 74.0564 103.988L64.8159 103.983Z"
                  fill="white"/>
        </mask>
        <g mask="url(#mask10_241_9877)">
            <path d="M83.7624 103.983H64.8159V127.477H83.7624V103.983Z" fill="black"/>
        </g>
        <path d="M107.927 103.981L105.236 118.711L101.961 103.981H97.1511L93.9247 118.711L91.2279 103.981H85.5991L90.6019 127.475H96.4608L99.5374 114.078L102.689 127.475H108.559L113.545 103.981H107.927Z"
              fill="black"/>
        <path d="M107.928 103.981L105.236 118.712L101.962 103.981H97.1515L93.9251 118.712L91.2284 103.981H85.5996L90.6024 127.476H96.4613L99.5379 114.078L102.689 127.476H108.559L113.546 103.981H107.928Z"
              fill="black"/>
        <path d="M107.928 103.982L105.236 118.712L101.962 103.982H97.1515L93.9251 118.712L91.2284 103.982H85.5996L90.6024 127.476H96.4613L99.5379 114.079L102.689 127.476H108.559L113.546 103.982H107.928Z"
              fill="black"/>
        <mask id="mask11_241_9877" style="mask-type:luminance" maskUnits="userSpaceOnUse" x="85" y="103" width="29"
              height="25">
            <path d="M107.928 103.983L105.237 118.713L101.962 103.983H97.152L93.9256 118.713L91.2289 103.983H85.6001L90.6029 127.477H96.4618L99.5384 114.079L102.69 127.477H108.56L113.546 103.983H107.928Z"
                  fill="white"/>
        </mask>
        <g mask="url(#mask11_241_9877)">
            <path d="M113.546 103.983H85.6001V127.477H113.546V103.983Z" fill="black"/>
        </g>
        <path d="M122.662 121.52C121.897 120.284 121.517 118.512 121.517 116.212L121.534 114.483C121.694 110.224 123.198 108.095 126.033 108.095C127.483 108.095 128.602 108.699 129.383 109.909C130.164 111.118 130.555 112.894 130.555 115.227V116.308C130.544 118.587 130.153 120.337 129.377 121.552C128.602 122.772 127.499 123.376 126.071 123.376C124.557 123.371 123.428 122.756 122.662 121.52ZM120.651 105.093C119.078 106.051 117.863 107.41 117.018 109.165C116.172 110.925 115.75 112.953 115.75 115.259V116.581C115.792 118.796 116.247 120.76 117.114 122.472C117.981 124.184 119.185 125.5 120.736 126.415C122.288 127.336 124.059 127.796 126.06 127.796C128.061 127.796 129.843 127.32 131.405 126.367C132.973 125.415 134.182 124.056 135.028 122.295C135.878 120.53 136.301 118.502 136.301 116.212V115.131C136.29 112.873 135.852 110.866 134.985 109.122C134.118 107.373 132.904 106.024 131.347 105.077C129.784 104.13 128.013 103.659 126.023 103.659C124.022 103.654 122.229 104.135 120.651 105.093Z"
              fill="black"/>
        <path d="M122.662 121.519C121.897 120.283 121.517 118.512 121.517 116.211L121.534 114.483C121.694 110.224 123.198 108.094 126.033 108.094C127.483 108.094 128.602 108.699 129.383 109.908C130.164 111.117 130.555 112.894 130.555 115.227V116.308C130.544 118.587 130.153 120.337 129.377 121.551C128.602 122.771 127.499 123.376 126.071 123.376C124.557 123.37 123.428 122.755 122.662 121.519ZM120.651 105.093C119.078 106.05 117.863 107.41 117.018 109.165C116.172 110.925 115.75 112.953 115.75 115.259V116.58C115.792 118.796 116.247 120.759 117.114 122.471C117.981 124.184 119.185 125.5 120.736 126.415C122.288 127.335 124.059 127.795 126.06 127.795C128.061 127.795 129.843 127.319 131.405 126.367C132.973 125.414 134.182 124.055 135.028 122.295C135.878 120.529 136.301 118.501 136.301 116.211V115.13C136.29 112.872 135.852 110.866 134.985 109.122C134.118 107.372 132.904 106.024 131.347 105.077C129.784 104.13 128.013 103.659 126.023 103.659C124.022 103.653 122.229 104.135 120.651 105.093Z"
              fill="black"/>
        <path d="M122.662 121.519C121.897 120.283 121.517 118.512 121.517 116.211L121.534 114.483C121.694 110.223 123.198 108.094 126.033 108.094C127.483 108.094 128.602 108.699 129.383 109.908C130.164 111.117 130.555 112.893 130.555 115.226V116.307C130.544 118.586 130.153 120.336 129.377 121.551C128.602 122.771 127.499 123.375 126.071 123.375C124.557 123.37 123.428 122.755 122.662 121.519ZM120.651 105.092C119.078 106.05 117.863 107.409 117.018 109.164C116.172 110.924 115.75 112.952 115.75 115.258V116.58C115.792 118.795 116.247 120.759 117.114 122.471C117.981 124.183 119.185 125.499 120.736 126.414C122.288 127.335 124.059 127.795 126.06 127.795C128.061 127.795 129.843 127.319 131.405 126.366C132.973 125.414 134.182 124.055 135.028 122.294C135.878 120.529 136.301 118.501 136.301 116.211V115.13C136.29 112.872 135.852 110.866 134.985 109.121C134.118 107.372 132.904 106.023 131.347 105.076C129.784 104.129 128.013 103.658 126.023 103.658C124.022 103.653 122.229 104.134 120.651 105.092Z"
              fill="black"/>
        <mask id="mask12_241_9877" style="mask-type:luminance" maskUnits="userSpaceOnUse" x="115" y="103" width="22"
              height="25">
            <path d="M122.662 121.518C121.897 120.282 121.517 118.511 121.517 116.21L121.534 114.482C121.694 110.223 123.198 108.093 126.033 108.093C127.483 108.093 128.602 108.698 129.383 109.907C130.164 111.116 130.555 112.893 130.555 115.226V116.307C130.544 118.586 130.153 120.336 129.377 121.55C128.602 122.77 127.499 123.375 126.071 123.375C124.557 123.369 123.428 122.754 122.662 121.518ZM120.651 105.092C119.078 106.049 117.863 107.409 117.018 109.164C116.172 110.924 115.75 112.952 115.75 115.258V116.579C115.792 118.795 116.247 120.758 117.114 122.47C117.981 124.183 119.185 125.499 120.736 126.414C122.288 127.334 124.059 127.794 126.06 127.794C128.061 127.794 129.843 127.318 131.405 126.366C132.973 125.413 134.182 124.054 135.028 122.294C135.878 120.528 136.301 118.5 136.301 116.21V115.129C136.29 112.871 135.852 110.865 134.985 109.121C134.118 107.371 132.904 106.023 131.347 105.076C129.784 104.129 128.013 103.658 126.023 103.658C124.022 103.652 122.229 104.134 120.651 105.092Z"
                  fill="white"/>
        </mask>
        <g mask="url(#mask12_241_9877)">
            <path d="M136.312 103.653H115.755V127.789H136.312V103.653Z" fill="black"/>
        </g>
        <path d="M145.557 108.336H149.137C150.202 108.336 151.01 108.625 151.561 109.203C152.107 109.781 152.385 110.573 152.385 111.59C152.385 112.606 152.112 113.393 151.571 113.96C151.031 114.527 150.218 114.811 149.142 114.811H145.563V108.336H145.557ZM139.896 103.981V127.475H145.557V119.166H148.623L152.77 127.475H158.838V127.235L153.931 117.748C155.344 117.085 156.376 116.212 157.034 115.137C157.698 114.061 158.024 112.708 158.024 111.076C158.024 108.818 157.238 107.074 155.67 105.838C154.097 104.602 151.919 103.986 149.132 103.986L139.896 103.981Z"
              fill="black"/>
        <path d="M145.557 108.337H149.136C150.201 108.337 151.009 108.626 151.56 109.204C152.106 109.781 152.384 110.573 152.384 111.59C152.384 112.607 152.111 113.393 151.571 113.96C151.031 114.527 150.217 114.811 149.142 114.811H145.562V108.337H145.557ZM139.896 103.981V127.476H145.557V119.166H148.623L152.77 127.476H158.837V127.235L153.931 117.749C155.343 117.085 156.376 116.213 157.034 115.137C157.697 114.062 158.024 112.708 158.024 111.076C158.024 108.818 157.237 107.074 155.67 105.838C154.096 104.602 151.919 103.987 149.131 103.987L139.896 103.981Z"
              fill="black"/>
        <path d="M145.557 108.337H149.136C150.201 108.337 151.009 108.626 151.56 109.204C152.106 109.782 152.384 110.574 152.384 111.59C152.384 112.607 152.111 113.394 151.571 113.961C151.031 114.528 150.217 114.812 149.142 114.812H145.562V108.337H145.557ZM139.896 103.982V127.476H145.557V119.167H148.623L152.77 127.476H158.837V127.236L153.931 117.749C155.343 117.086 156.376 116.213 157.034 115.138C157.697 114.062 158.024 112.709 158.024 111.077C158.024 108.819 157.237 107.075 155.67 105.839C154.096 104.603 151.919 103.987 149.131 103.987L139.896 103.982Z"
              fill="black"/>
        <mask id="mask13_241_9877" style="mask-type:luminance" maskUnits="userSpaceOnUse" x="139" y="103" width="20"
              height="25">
            <path d="M145.556 108.338H149.136C150.201 108.338 151.009 108.627 151.56 109.205C152.106 109.783 152.384 110.575 152.384 111.591C152.384 112.608 152.111 113.395 151.571 113.962C151.03 114.529 150.217 114.813 149.141 114.813H145.562V108.338H145.556ZM139.896 103.983V127.477H145.556V119.168H148.622L152.769 127.477H158.837V127.237L153.93 117.75C155.343 117.087 156.375 116.214 157.033 115.139C157.697 114.063 158.023 112.71 158.023 111.078C158.023 108.82 157.237 107.076 155.669 105.84C154.096 104.604 151.918 103.988 149.131 103.988L139.896 103.983Z"
                  fill="white"/>
        </mask>
        <g mask="url(#mask13_241_9877)">
            <path d="M158.837 103.983H139.896V127.477H158.837V103.983Z" fill="black"/>
        </g>
        <path d="M162.112 103.981V127.475H177.634V123.115H167.773V103.981H162.112Z" fill="black"/>
        <path d="M162.112 103.981V127.476H177.634V123.115H167.773V103.981H162.112Z" fill="black"/>
        <path d="M162.112 103.982V127.476H177.634V123.116H167.773V103.982H162.112Z" fill="black"/>
        <mask id="mask14_241_9877" style="mask-type:luminance" maskUnits="userSpaceOnUse" x="162" y="103" width="16"
              height="25">
            <path d="M162.112 103.983V127.477H177.634V123.117H167.773V103.983H162.112Z" fill="white"/>
        </mask>
        <g mask="url(#mask14_241_9877)">
            <path d="M177.634 103.983H162.112V127.477H177.634V103.983Z" fill="black"/>
        </g>
        <path d="M186.345 108.352H188.25C189.914 108.352 191.187 108.93 192.054 110.081C192.926 111.231 193.36 112.943 193.36 115.212V116.228C193.36 118.508 192.926 120.225 192.054 121.386C191.182 122.542 189.935 123.12 188.309 123.12H186.34L186.345 108.352ZM180.684 103.981V127.475H188.41C190.444 127.465 192.284 126.978 193.938 126.015C195.591 125.052 196.87 123.719 197.779 122.012C198.689 120.306 199.144 118.379 199.144 116.228V115.148C199.133 113.018 198.662 111.092 197.731 109.38C196.8 107.662 195.505 106.335 193.852 105.394C192.199 104.452 190.331 103.981 188.255 103.981H180.684Z"
              fill="black"/>
        <path d="M186.345 108.353H188.249C189.913 108.353 191.187 108.931 192.054 110.081C192.926 111.232 193.359 112.944 193.359 115.212V116.229C193.359 118.508 192.926 120.226 192.054 121.387C191.181 122.543 189.935 123.121 188.308 123.121H186.339L186.345 108.353ZM180.684 103.981V127.476H188.41C190.443 127.465 192.284 126.978 193.937 126.015C195.59 125.052 196.869 123.72 197.779 122.013C198.688 120.306 199.143 118.38 199.143 116.229V115.148C199.132 113.019 198.662 111.092 197.731 109.38C196.8 107.663 195.505 106.336 193.851 105.394C192.198 104.452 190.331 103.981 188.255 103.981H180.684Z"
              fill="black"/>
        <path d="M186.345 108.353H188.249C189.913 108.353 191.187 108.931 192.054 110.082C192.926 111.232 193.359 112.944 193.359 115.213V116.229C193.359 118.509 192.926 120.226 192.054 121.387C191.181 122.543 189.935 123.121 188.308 123.121H186.339L186.345 108.353ZM180.684 103.982V127.476H188.41C190.443 127.466 192.284 126.979 193.937 126.016C195.59 125.053 196.869 123.72 197.779 122.013C198.688 120.307 199.143 118.38 199.143 116.229V115.149C199.132 113.019 198.662 111.093 197.731 109.381C196.8 107.663 195.505 106.336 193.851 105.394C192.198 104.453 190.331 103.982 188.255 103.982H180.684Z"
              fill="black"/>
        <mask id="mask15_241_9877" style="mask-type:luminance" maskUnits="userSpaceOnUse" x="180" y="103" width="20"
              height="25">
            <path d="M186.344 108.354H188.249C189.913 108.354 191.186 108.932 192.053 110.083C192.925 111.233 193.359 112.945 193.359 115.214V116.23C193.359 118.51 192.925 120.227 192.053 121.388C191.181 122.544 189.934 123.122 188.308 123.122H186.339L186.344 108.354ZM180.683 103.983V127.477H188.409C190.443 127.467 192.283 126.98 193.937 126.017C195.59 125.054 196.869 123.721 197.778 122.014C198.688 120.308 199.143 118.381 199.143 116.23V115.15C199.132 113.02 198.661 111.094 197.73 109.382C196.799 107.664 195.504 106.337 193.851 105.395C192.198 104.454 190.33 103.983 188.254 103.983H180.683Z"
                  fill="white"/>
        </mask>
        <g mask="url(#mask15_241_9877)">
            <path d="M199.143 103.983H180.683V127.477H199.143V103.983Z" fill="black"/>
        </g>
    </g>
    <defs>
        <clipPath id="clip0_241_9877">
            <rect width="200" height="149.413" fill="white" transform="translate(0 0.293457)"/>
        </clipPath>
    </defs>
</svg>
