<svg width="240" height="74" viewBox="0 0 240 74" fill="none" xmlns="http://www.w3.org/2000/svg">
    <path d="M36.5217 73.5216C16.3835 73.5216 0 57.1385 0 37.0007C0 16.8629 16.3835 0.478516 36.5217 0.478516C56.6599 0.478516 73.0435 16.8625 73.0435 37.0007C73.0435 57.1389 56.6604 73.5216 36.5217 73.5216Z"
          fill="black"/>
    <path d="M60.2088 30.5984L42.5109 30.0996L36.6519 38.677L60.2088 30.5984Z" fill="#FFDD00"/>
    <path d="M36.652 38.6774L42.5111 30.0995H42.5099L36.5469 13.855V38.7133L36.652 38.6774Z" fill="#FFDD00"/>
    <path d="M36.597 38.7578L36.5527 38.8229L51.1002 60.141L51.1048 60.144L46.6089 42.1606L36.597 38.7578Z"
          fill="#FFDD00"/>
    <mask id="mask0_241_9653" style="mask-type:luminance" maskUnits="userSpaceOnUse" x="36" y="38" width="16"
          height="23">
        <path d="M36.5464 38.8112V50.2826L51.0997 60.1218L36.5518 38.8032L36.5464 38.8112Z" fill="white"/>
    </mask>
    <g mask="url(#mask0_241_9653)">
        <path d="M46.0477 31.8744L26.3975 46.2036L41.5986 67.0496L61.2488 52.7205L46.0477 31.8744Z"
              fill="url(#paint0_linear_241_9653)"/>
    </g>
    <mask id="mask1_241_9653" style="mask-type:luminance" maskUnits="userSpaceOnUse" x="21" y="38" width="16"
          height="23">
        <path d="M21.9897 60.1202L21.9893 60.1231L36.5464 50.281V38.8104V38.8096L21.9897 60.1202Z" fill="white"/>
    </mask>
    <g mask="url(#mask1_241_9653)">
        <path d="M26.4942 32.0814L12.1367 53.5283L32.0416 66.8535L46.3991 45.4066L26.4942 32.0814Z"
              fill="url(#paint1_linear_241_9653)"/>
    </g>
    <mask id="mask2_241_9653" style="mask-type:luminance" maskUnits="userSpaceOnUse" x="36" y="30" width="25"
          height="13">
        <path d="M36.6527 38.6567L36.5972 38.7373L46.6091 42.1405L60.4817 30.5856L60.2092 30.5776L36.6527 38.6567Z"
              fill="white"/>
    </mask>
    <g mask="url(#mask2_241_9653)">
        <path d="M57.7676 22.998L32.9272 31.8921L39.311 49.7211L64.1513 40.827L57.7676 22.998Z"
              fill="url(#paint2_linear_241_9653)"/>
    </g>
    <path d="M36.5473 38.8146L36.491 38.7319L26.4845 42.164L21.9902 60.1415L36.5473 38.8309V38.8146Z" fill="#FFDD00"/>
    <mask id="mask3_241_9653" style="mask-type:luminance" maskUnits="userSpaceOnUse" x="30" y="13" width="7"
          height="26">
        <path d="M30.5894 30.065L36.4818 38.6987L36.5064 38.7071L36.5469 38.6929V13.8354L30.5894 30.065Z" fill="white"/>
    </mask>
    <g mask="url(#mask3_241_9653)">
        <path d="M36.5469 13.8354H30.5894V38.7071H36.5469V13.8354Z" fill="url(#paint3_linear_241_9653)"/>
    </g>
    <path d="M30.5898 30.085L30.5844 30.1L12.6128 30.6063L36.4819 38.7187L30.5898 30.085Z" fill="#FFDD00"/>
    <mask id="mask4_241_9653" style="mask-type:luminance" maskUnits="userSpaceOnUse" x="12" y="30" width="25"
          height="13">
        <path d="M26.485 42.1409L26.4837 42.1442L36.4911 38.7122L36.4815 38.6984L12.6128 30.5859L26.485 42.1409Z"
              fill="white"/>
    </mask>
    <g mask="url(#mask4_241_9653)">
        <path d="M14.8441 23.6354L9.24854 41.0635L34.2596 49.0937L39.8551 31.6656L14.8441 23.6354Z"
              fill="url(#paint4_linear_241_9653)"/>
    </g>
    <path d="M65.7753 36.9996C65.7753 22.0272 54.2337 9.34831 39.3994 7.89502V9.48938C53.3359 10.9356 64.1872 22.9309 64.1872 36.9996C64.1872 51.0684 53.626 62.971 39.5455 64.4949V66.088C54.2979 64.5683 65.7757 51.8969 65.7757 36.9996"
          fill="#FFDD00"/>
    <path d="M7.26904 36.9997C7.26904 52.2434 19.0389 64.9461 34.1637 66.1527V64.558C19.9346 63.3543 8.85673 51.3394 8.85673 36.9997C8.85673 22.6601 19.935 10.6447 34.1637 9.44104V7.84668C19.0389 9.05247 7.26904 21.756 7.26904 36.9997Z"
          fill="#FFDD00"/>
    <path d="M36.5216 71.1974C17.6648 71.1974 2.32341 55.8565 2.32341 36.9996C2.32341 18.1427 17.6648 2.80095 36.5216 2.80095C55.3785 2.80095 70.7199 18.1427 70.7199 36.9996C70.7199 55.8565 55.3789 71.1974 36.5216 71.1974ZM36.5216 1.24707C16.8079 1.24707 0.769531 17.2854 0.769531 37C0.769531 56.7146 16.8079 72.7525 36.5216 72.7525C56.2354 72.7525 72.275 56.7142 72.275 37C72.275 17.2858 56.2354 1.24707 36.5216 1.24707Z"
          fill="#FFDD00"/>
    <path d="M37.4037 5.72412H36.144V11.0343H37.4037V5.72412Z" fill="#FFDD00"/>
    <path d="M37.3881 57.7085H36.1289V70.185H37.3881V57.7085Z" fill="#FFDD00"/>
    <path d="M68.4256 35.5869C67.7795 35.5869 67.2549 36.112 67.2549 36.7576C67.2549 37.4033 67.7795 37.9288 68.4256 37.9288C69.0717 37.9288 69.5963 37.4037 69.5963 36.7576C69.5963 36.1116 69.0709 35.5869 68.4256 35.5869Z"
          fill="#FFDD00"/>
    <path d="M4.90691 35.5869C4.26082 35.5869 3.73535 36.112 3.73535 36.7576C3.73535 37.4033 4.26082 37.9288 4.90691 37.9288C5.55301 37.9288 6.07764 37.4037 6.07764 36.7576C6.07764 36.1116 5.55259 35.5869 4.90691 35.5869Z"
          fill="#FFDD00"/>
    <path d="M88.1173 19.9589C87.0328 20.3944 86.1911 21.0016 85.6007 21.7762C85.0061 22.5551 84.7088 23.4554 84.7088 24.4729C84.7088 26.5206 85.9022 28.1244 88.2848 29.2969C89.0176 29.6612 89.9598 30.0338 91.1155 30.4191C92.2671 30.8043 93.0753 31.1812 93.5317 31.5455C93.9923 31.9056 94.2184 32.4123 94.2184 33.0614C94.2184 33.635 94.0049 34.0789 93.5819 34.393C93.159 34.707 92.577 34.8661 91.8442 34.8661C90.701 34.8661 89.8719 34.6316 89.3652 34.1626C88.8585 33.6937 88.5989 32.9692 88.5989 31.9852H84.1519C84.1519 33.1954 84.4575 34.2673 85.0647 35.1969C85.6761 36.1265 86.5847 36.8593 87.7949 37.3953C89.0009 37.9313 90.3534 38.1993 91.8442 38.1993C93.9588 38.1993 95.6212 37.7429 96.8314 36.8217C98.0457 35.9046 98.6529 34.64 98.6529 33.032C98.6529 31.0221 97.6605 29.4434 95.6715 28.2961C94.8549 27.8229 93.8122 27.3832 92.5393 26.977C91.2663 26.5708 90.3786 26.173 89.8761 25.7878C89.3694 25.4067 89.1181 24.9754 89.1181 24.5064C89.1181 23.9663 89.3484 23.5224 89.8049 23.1748C90.2613 22.8231 90.8894 22.6514 91.6808 22.6514C92.4723 22.6514 93.0836 22.8566 93.5442 23.2712C94.0049 23.6857 94.231 24.2636 94.231 25.0131H98.6529C98.6529 23.8909 98.3598 22.8985 97.7819 22.0275C97.1999 21.1565 96.3875 20.4865 95.3407 20.0133C94.2938 19.5402 93.1088 19.3057 91.7855 19.3057C90.4246 19.3099 89.2019 19.5276 88.1173 19.9589Z"
          fill="black"/>
    <mask id="mask5_241_9653" style="mask-type:luminance" maskUnits="userSpaceOnUse" x="84" y="19" width="15"
          height="20">
        <path d="M88.1173 19.9589C87.0328 20.3944 86.1911 21.0016 85.6007 21.7762C85.0061 22.5551 84.7088 23.4554 84.7088 24.4729C84.7088 26.5206 85.9022 28.1244 88.2848 29.2969C89.0176 29.6612 89.9598 30.0338 91.1155 30.4191C92.2671 30.8043 93.0753 31.1812 93.5317 31.5455C93.9923 31.9056 94.2184 32.4123 94.2184 33.0614C94.2184 33.635 94.0049 34.0789 93.5819 34.393C93.159 34.707 92.577 34.8661 91.8442 34.8661C90.701 34.8661 89.8719 34.6316 89.3652 34.1626C88.8585 33.6937 88.5989 32.9692 88.5989 31.9852H84.1519C84.1519 33.1954 84.4575 34.2673 85.0647 35.1969C85.6761 36.1265 86.5847 36.8593 87.7949 37.3953C89.0009 37.9313 90.3534 38.1993 91.8442 38.1993C93.9588 38.1993 95.6212 37.7429 96.8314 36.8217C98.0457 35.9046 98.6529 34.64 98.6529 33.032C98.6529 31.0221 97.6605 29.4434 95.6715 28.2961C94.8549 27.8229 93.8122 27.3832 92.5393 26.977C91.2663 26.5708 90.3786 26.173 89.8761 25.7878C89.3694 25.4067 89.1181 24.9754 89.1181 24.5064C89.1181 23.9663 89.3484 23.5224 89.8049 23.1748C90.2613 22.8231 90.8894 22.6514 91.6808 22.6514C92.4723 22.6514 93.0836 22.8566 93.5442 23.2712C94.0049 23.6857 94.231 24.2636 94.231 25.0131H98.6529C98.6529 23.8909 98.3598 22.8985 97.7819 22.0275C97.1999 21.1565 96.3875 20.4865 95.3407 20.0133C94.2938 19.5402 93.1088 19.3057 91.7855 19.3057C90.4246 19.3099 89.2019 19.5276 88.1173 19.9589Z"
              fill="white"/>
    </mask>
    <g mask="url(#mask5_241_9653)">
        <path d="M98.6487 19.3096H84.1519V38.199H98.6487V19.3096Z" fill="black"/>
    </g>
    <path d="M100.504 19.5654V22.9866H105.922V37.9524H110.353V22.9866H115.872V19.5654H100.504Z" fill="black"/>
    <mask id="mask6_241_9653" style="mask-type:luminance" maskUnits="userSpaceOnUse" x="100" y="19" width="16"
          height="19">
        <path d="M100.504 19.5654V22.9866H105.922V37.9524H110.353V22.9866H115.872V19.5654H100.504Z" fill="white"/>
    </mask>
    <g mask="url(#mask6_241_9653)">
        <path d="M115.872 19.5654H100.504V37.9524H115.872V19.5654Z" fill="black"/>
    </g>
    <path d="M124.142 24.716L126.122 31.0934H122.169L124.142 24.716ZM122.061 19.5654L115.319 37.9524H120.055L121.114 34.5145H127.186L128.258 37.9524H133.019L126.227 19.5654H122.061Z"
          fill="black"/>
    <mask id="mask7_241_9653" style="mask-type:luminance" maskUnits="userSpaceOnUse" x="115" y="19" width="19"
          height="19">
        <path d="M124.142 24.716L126.122 31.0934H122.169L124.142 24.716ZM122.061 19.5654L115.319 37.9524H120.055L121.114 34.5145H127.186L128.258 37.9524H133.019L126.227 19.5654H122.061Z"
              fill="white"/>
    </mask>
    <g mask="url(#mask7_241_9653)">
        <path d="M133.019 19.5654H115.315V37.9524H133.019V19.5654Z" fill="black"/>
    </g>
    <path d="M139.309 22.974H142.114C142.947 22.974 143.58 23.2001 144.007 23.6524C144.438 24.1046 144.652 24.7243 144.652 25.5199C144.652 26.3156 144.442 26.9311 144.015 27.375C143.588 27.8188 142.956 28.0408 142.114 28.0408H139.309V22.974ZM134.874 19.5654V37.9524H139.304V31.4493H141.704L144.949 37.9524H149.698V37.764L145.858 30.3397C146.959 29.8204 147.771 29.1379 148.286 28.2962C148.801 27.4545 149.065 26.3951 149.065 25.118C149.065 23.3509 148.45 21.9858 147.219 21.0185C145.992 20.0512 144.283 19.5696 142.106 19.5696L134.874 19.5654Z"
          fill="black"/>
    <mask id="mask8_241_9653" style="mask-type:luminance" maskUnits="userSpaceOnUse" x="134" y="19" width="16"
          height="19">
        <path d="M139.309 22.974H142.114C142.947 22.974 143.58 23.2001 144.007 23.6524C144.438 24.1046 144.652 24.7243 144.652 25.5199C144.652 26.3156 144.442 26.9311 144.015 27.375C143.588 27.8188 142.956 28.0408 142.114 28.0408H139.309V22.974ZM134.874 19.5654V37.9524H139.304V31.4493H141.704L144.949 37.9524H149.698V37.764L145.858 30.3397C146.959 29.8204 147.771 29.1379 148.286 28.2962C148.801 27.4545 149.065 26.3951 149.065 25.118C149.065 23.3509 148.45 21.9858 147.219 21.0185C145.992 20.0512 144.283 19.5696 142.106 19.5696L134.874 19.5654Z"
              fill="white"/>
    </mask>
    <g mask="url(#mask8_241_9653)">
        <path d="M149.702 19.5654H134.874V37.9524H149.702V19.5654Z" fill="black"/>
    </g>
    <path d="M168.617 19.5654L166.51 31.0934L163.944 19.5654H160.183L157.658 31.0934L155.548 19.5654H151.143L155.058 37.9524H159.639L162.051 27.4671L164.513 37.9524H169.111L173.013 19.5654H168.617Z"
          fill="black"/>
    <mask id="mask9_241_9653" style="mask-type:luminance" maskUnits="userSpaceOnUse" x="151" y="19" width="23"
          height="19">
        <path d="M168.617 19.5654L166.51 31.0934L163.944 19.5654H160.183L157.658 31.0934L155.548 19.5654H151.143L155.058 37.9524H159.639L162.051 27.4671L164.513 37.9524H169.111L173.013 19.5654H168.617Z"
              fill="white"/>
    </mask>
    <g mask="url(#mask9_241_9653)">
        <path d="M173.013 19.5654H151.143V37.9524H173.013V19.5654Z" fill="black"/>
    </g>
    <path d="M180.149 33.2921C179.55 32.3248 179.253 30.9388 179.253 29.1382L179.265 27.7856C179.391 24.4525 180.568 22.7859 182.787 22.7859C183.922 22.7859 184.797 23.259 185.408 24.2054C186.02 25.1518 186.325 26.542 186.325 28.3677V29.2136C186.317 30.9974 186.011 32.3667 185.404 33.3172C184.797 34.272 183.934 34.7451 182.816 34.7451C181.631 34.741 180.744 34.2594 180.149 33.2921ZM178.574 20.4367C177.343 21.1863 176.393 22.2499 175.731 23.6233C175.07 25.001 174.739 26.588 174.739 28.3928V29.4271C174.772 31.1607 175.128 32.6975 175.807 34.0375C176.485 35.3775 177.427 36.4076 178.641 37.1236C179.856 37.8438 181.242 38.204 182.808 38.204C184.374 38.204 185.768 37.8313 186.991 37.0859C188.218 36.3406 189.164 35.277 189.826 33.8993C190.492 32.5174 190.823 30.9304 190.823 29.1382V28.2923C190.814 26.5252 190.471 24.9549 189.793 23.5898C189.114 22.2206 188.164 21.1653 186.945 20.4242C185.722 19.683 184.336 19.3145 182.779 19.3145C181.213 19.3103 179.81 19.6872 178.574 20.4367Z"
          fill="black"/>
    <mask id="mask10_241_9653" style="mask-type:luminance" maskUnits="userSpaceOnUse" x="174" y="19" width="17"
          height="20">
        <path d="M180.149 33.2931C179.551 32.3258 179.253 30.9398 179.253 29.1392L179.266 27.7866C179.391 24.4534 180.568 22.7868 182.787 22.7868C183.922 22.7868 184.797 23.26 185.409 24.2064C186.02 25.1527 186.326 26.543 186.326 28.3687V29.2145C186.317 30.9984 186.012 32.3677 185.405 33.3182C184.797 34.2729 183.935 34.7461 182.817 34.7461C181.632 34.7419 180.744 34.2604 180.149 33.2931ZM178.575 20.4377C177.344 21.1872 176.393 22.2508 175.732 23.6243C175.07 25.002 174.739 26.589 174.739 28.3938V29.4281C174.773 31.1617 175.129 32.6985 175.807 34.0385C176.485 35.3784 177.428 36.4085 178.642 37.1246C179.856 37.8448 181.242 38.2049 182.808 38.2049C184.375 38.2049 185.769 37.8323 186.992 37.0869C188.219 36.3415 189.165 35.2779 189.827 33.9003C190.492 32.5184 190.823 30.9314 190.823 29.1392V28.2933C190.815 26.5262 190.471 24.9559 189.793 23.5908C189.115 22.2215 188.164 21.1663 186.946 20.4251C185.723 19.684 184.337 19.3155 182.779 19.3155C181.213 19.3113 179.81 19.6881 178.575 20.4377Z"
              fill="white"/>
    </mask>
    <g mask="url(#mask10_241_9653)">
        <path d="M190.831 19.311H174.743V38.2005H190.831V19.311Z" fill="black"/>
    </g>
    <path d="M198.067 22.974H200.868C201.701 22.974 202.334 23.2001 202.765 23.6524C203.192 24.1046 203.41 24.7243 203.41 25.5199C203.41 26.3156 203.196 26.9311 202.773 27.375C202.351 27.8188 201.714 28.0408 200.872 28.0408H198.071V22.974H198.067ZM193.632 19.5654V37.9524H198.063V31.4493H200.462L203.707 37.9524H208.456V37.764L204.616 30.3397C205.721 29.8204 206.53 29.1379 207.045 28.2962C207.564 27.4545 207.819 26.3951 207.819 25.118C207.819 23.3509 207.204 21.9858 205.977 21.0185C204.746 20.0512 203.041 19.5696 200.86 19.5696L193.632 19.5654Z"
          fill="black"/>
    <mask id="mask11_241_9653" style="mask-type:luminance" maskUnits="userSpaceOnUse" x="193" y="19" width="16"
          height="19">
        <path d="M198.067 22.974H200.868C201.701 22.974 202.334 23.2001 202.765 23.6524C203.192 24.1046 203.41 24.7243 203.41 25.5199C203.41 26.3156 203.196 26.9311 202.773 27.375C202.351 27.8188 201.714 28.0408 200.872 28.0408H198.071V22.974H198.067ZM193.632 19.5654V37.9524H198.063V31.4493H200.462L203.707 37.9524H208.456V37.764L204.616 30.3397C205.721 29.8204 206.53 29.1379 207.045 28.2962C207.564 27.4545 207.819 26.3951 207.819 25.118C207.819 23.3509 207.204 21.9858 205.977 21.0185C204.746 20.0512 203.041 19.5696 200.86 19.5696L193.632 19.5654Z"
              fill="white"/>
    </mask>
    <g mask="url(#mask11_241_9653)">
        <path d="M208.456 19.5654H193.632V37.9524H208.456V19.5654Z" fill="black"/>
    </g>
    <path d="M211.022 19.5654V37.9524H223.17V34.5397H215.453V19.5654H211.022Z" fill="black"/>
    <mask id="mask12_241_9653" style="mask-type:luminance" maskUnits="userSpaceOnUse" x="211" y="19" width="13"
          height="19">
        <path d="M211.022 19.5654V37.9524H223.17V34.5397H215.453V19.5654H211.022Z" fill="white"/>
    </mask>
    <g mask="url(#mask12_241_9653)">
        <path d="M223.17 19.5654H211.022V37.9524H223.17V19.5654Z" fill="black"/>
    </g>
    <path d="M229.987 22.9866H231.478C232.78 22.9866 233.777 23.4388 234.455 24.3391C235.138 25.2394 235.477 26.5794 235.477 28.3548V29.1504C235.477 30.9343 235.138 32.2785 234.455 33.1871C233.773 34.0916 232.797 34.5438 231.524 34.5438H229.983L229.987 22.9866ZM225.553 19.5654V37.9524H231.599C233.191 37.944 234.631 37.563 235.925 36.8092C237.219 36.0555 238.22 35.0128 238.932 33.6771C239.643 32.3413 239.999 30.8338 239.999 29.1504V28.3046C239.991 26.638 239.622 25.1305 238.894 23.7905C238.165 22.4464 237.152 21.4079 235.858 20.6709C234.564 19.9339 233.103 19.5654 231.478 19.5654H225.553Z"
          fill="black"/>
    <mask id="mask13_241_9653" style="mask-type:luminance" maskUnits="userSpaceOnUse" x="225" y="19" width="15"
          height="19">
        <path d="M229.987 22.9866H231.478C232.78 22.9866 233.777 23.4388 234.455 24.3391C235.138 25.2394 235.477 26.5794 235.477 28.3548V29.1504C235.477 30.9343 235.138 32.2785 234.455 33.1871C233.773 34.0916 232.797 34.5438 231.524 34.5438H229.983L229.987 22.9866ZM225.553 19.5654V37.9524H231.599C233.191 37.944 234.631 37.563 235.925 36.8092C237.219 36.0555 238.22 35.0128 238.932 33.6771C239.643 32.3413 239.999 30.8338 239.999 29.1504V28.3046C239.991 26.638 239.622 25.1305 238.894 23.7905C238.165 22.4464 237.152 21.4079 235.858 20.6709C234.564 19.9339 233.103 19.5654 231.478 19.5654H225.553Z"
              fill="white"/>
    </mask>
    <g mask="url(#mask13_241_9653)">
        <path d="M239.999 19.5654H225.553V37.9524H239.999V19.5654Z" fill="black"/>
    </g>
    <path d="M87.4435 19.6332C86.359 20.0687 85.5173 20.6759 84.9269 21.4506C84.3323 22.2294 84.035 23.1297 84.035 24.1473C84.035 26.1949 85.2284 27.7987 87.611 28.9712C88.3438 29.3355 89.286 29.7082 90.4417 30.0934C91.5933 30.4786 92.4014 30.8555 92.8579 31.2198C93.3185 31.5799 93.5446 32.0866 93.5446 32.7357C93.5446 33.3093 93.331 33.7532 92.9081 34.0673C92.4852 34.3813 91.9031 34.5405 91.1703 34.5405C90.0272 34.5405 89.198 34.306 88.6914 33.837C88.1847 33.368 87.9251 32.6435 87.9251 31.6595H83.478C83.478 32.8697 83.7837 33.9416 84.3951 34.8713C85.0064 35.8009 85.9151 36.5337 87.1253 37.0697C88.3313 37.6056 89.6838 37.8736 91.1703 37.8736C93.285 37.8736 94.9474 37.4172 96.1575 36.496C97.3719 35.5789 97.9791 34.3143 97.9791 32.7064C97.9791 30.6964 96.9867 29.1177 94.9976 27.9704C94.1811 27.4972 93.1384 27.0575 91.8654 26.6513C90.5925 26.2452 89.7047 25.8474 89.2022 25.4621C88.6956 25.0811 88.4443 24.6498 88.4443 24.1808C88.4443 23.6406 88.6746 23.1967 89.1311 22.8492C89.5875 22.4974 90.2156 22.3257 91.007 22.3257C91.7984 22.3257 92.4098 22.5309 92.8704 22.9455C93.331 23.36 93.5572 23.9379 93.5572 24.6874H97.9791C97.9791 23.5652 97.686 22.5728 97.1081 21.7018C96.526 20.8308 95.7137 20.1608 94.6668 19.6877C93.62 19.2145 92.4349 18.98 91.1117 18.98C89.7508 18.98 88.5281 19.1977 87.4435 19.6332Z"
          fill="url(#paint5_linear_241_9653)"/>
    <path d="M87.4435 19.6337C86.359 20.0692 85.5173 20.6764 84.9269 21.451C84.3323 22.2299 84.035 23.1302 84.035 24.1477C84.035 26.1954 85.2284 27.7992 87.611 28.9717C88.3438 29.336 89.286 29.7086 90.4417 30.0939C91.5933 30.4791 92.4014 30.856 92.8579 31.2203C93.3185 31.5804 93.5446 32.0871 93.5446 32.7362C93.5446 33.3098 93.331 33.7537 92.9081 34.0678C92.4852 34.3818 91.9031 34.5409 91.1703 34.5409C90.0272 34.5409 89.198 34.3064 88.6914 33.8375C88.1847 33.3685 87.9251 32.644 87.9251 31.66H83.478C83.478 32.8702 83.7837 33.9421 84.3951 34.8717C85.0064 35.8014 85.9151 36.5342 87.1253 37.0701C88.3313 37.6061 89.6838 37.8741 91.1703 37.8741C93.285 37.8741 94.9474 37.4177 96.1575 36.4965C97.3719 35.5794 97.9791 34.3148 97.9791 32.7068C97.9791 30.6969 96.9867 29.1182 94.9976 27.9709C94.1811 27.4977 93.1384 27.058 91.8654 26.6518C90.5925 26.2456 89.7047 25.8478 89.2022 25.4626C88.6956 25.0815 88.4443 24.6502 88.4443 24.1812C88.4443 23.6411 88.6746 23.1972 89.1311 22.8496C89.5875 22.4979 90.2156 22.3262 91.007 22.3262C91.7984 22.3262 92.4098 22.5314 92.8704 22.946C93.331 23.3605 93.5572 23.9384 93.5572 24.6879H97.9791C97.9791 23.5657 97.686 22.5733 97.1081 21.7023C96.526 20.8313 95.7137 20.1613 94.6668 19.6881C93.62 19.215 92.4349 18.9805 91.1117 18.9805C89.7508 18.9805 88.5281 19.1982 87.4435 19.6337Z"
          fill="url(#paint6_linear_241_9653)"/>
    <mask id="mask14_241_9653" style="mask-type:luminance" maskUnits="userSpaceOnUse" x="83" y="18" width="15"
          height="20">
        <path d="M87.444 19.6347C86.3595 20.0702 85.5178 20.6774 84.9274 21.452C84.3328 22.2309 84.0354 23.1312 84.0354 24.1487C84.0354 26.1964 85.2289 27.8002 87.6115 28.9726C88.3443 29.337 89.2865 29.7096 90.4422 30.0949C91.5937 30.4801 92.4019 30.857 92.8583 31.2213C93.319 31.5814 93.5451 32.0881 93.5451 32.7371C93.5451 33.3108 93.3315 33.7547 92.9086 34.0687C92.4857 34.3828 91.9036 34.5419 91.1708 34.5419C90.0276 34.5419 89.1985 34.3074 88.6919 33.8384C88.1852 33.3694 87.9256 32.645 87.9256 31.661H83.4785C83.4785 32.8711 83.7842 33.9431 84.3956 34.8727C85.0069 35.8023 85.9156 36.5351 87.1258 37.0711C88.3317 37.6071 89.6843 37.8751 91.1708 37.8751C93.2855 37.8751 94.9479 37.4187 96.158 36.4974C97.3724 35.5804 97.9796 34.3158 97.9796 32.7078C97.9796 30.6979 96.9871 29.1192 94.9981 27.9718C94.1816 27.4987 93.1389 27.059 91.8659 26.6528C90.5929 26.2466 89.7052 25.8488 89.2027 25.4636C88.696 25.0825 88.4448 24.6512 88.4448 24.1822C88.4448 23.642 88.6751 23.1982 89.1315 22.8506C89.588 22.4989 90.2161 22.3272 91.0075 22.3272C91.7989 22.3272 92.4103 22.5324 92.8709 22.9469C93.3315 23.3615 93.5576 23.9394 93.5576 24.6889H97.9796C97.9796 23.5667 97.6864 22.5743 97.1086 21.7033C96.5265 20.8323 95.7142 20.1623 94.6673 19.6891C93.6205 19.2159 92.4354 18.9814 91.1122 18.9814C89.7513 18.9814 88.5285 19.1992 87.444 19.6347Z"
              fill="white"/>
    </mask>
    <g mask="url(#mask14_241_9653)">
        <path d="M97.9754 18.9814H83.4785V37.8709H97.9754V18.9814Z" fill="url(#paint7_linear_241_9653)"/>
    </g>
    <path d="M99.8296 19.2349V22.656H105.248V37.6218H109.683V22.656H115.197V19.2349H99.8296Z"
          fill="url(#paint8_linear_241_9653)"/>
    <path d="M99.8296 19.2349V22.656H105.248V37.6218H109.683V22.656H115.197V19.2349H99.8296Z"
          fill="url(#paint9_linear_241_9653)"/>
    <mask id="mask15_241_9653" style="mask-type:luminance" maskUnits="userSpaceOnUse" x="99" y="19" width="17"
          height="19">
        <path d="M99.8296 19.2349V22.656H105.248V37.6218H109.683V22.656H115.197V19.2349H99.8296Z" fill="white"/>
    </mask>
    <g mask="url(#mask15_241_9653)">
        <path d="M115.197 19.2349H99.8296V37.6218H115.197V19.2349Z" fill="url(#paint10_linear_241_9653)"/>
    </g>
    <path d="M123.472 24.3854L125.452 30.7628H121.499L123.472 24.3854ZM121.386 19.2349L114.645 37.6218H119.381L120.44 34.184H126.516L127.588 37.6218H132.349L125.557 19.2349H121.386Z"
          fill="url(#paint11_linear_241_9653)"/>
    <path d="M123.472 24.3854L125.452 30.7628H121.499L123.472 24.3854ZM121.386 19.2349L114.645 37.6218H119.381L120.44 34.184H126.516L127.588 37.6218H132.349L125.557 19.2349H121.386Z"
          fill="url(#paint12_linear_241_9653)"/>
    <mask id="mask16_241_9653" style="mask-type:luminance" maskUnits="userSpaceOnUse" x="114" y="19" width="19"
          height="19">
        <path d="M123.471 24.3854L125.452 30.7628H121.499L123.471 24.3854ZM121.386 19.2349L114.644 37.6218H119.38L120.439 34.184H126.515L127.587 37.6218H132.348L125.556 19.2349H121.386Z"
              fill="white"/>
    </mask>
    <g mask="url(#mask16_241_9653)">
        <path d="M132.348 19.2349H114.644V37.6218H132.348V19.2349Z" fill="url(#paint13_linear_241_9653)"/>
    </g>
    <path d="M138.634 22.6434H141.44C142.273 22.6434 142.906 22.8695 143.333 23.3218C143.764 23.774 143.978 24.3938 143.978 25.1894C143.978 25.985 143.768 26.6005 143.341 27.0444C142.914 27.4883 142.282 27.7102 141.44 27.7102H138.634V22.6434ZM134.204 19.2349V37.6218H138.634V31.1188H141.034L144.279 37.6218H149.028V37.4334L145.188 30.0091C146.289 29.4899 147.101 28.8073 147.616 27.9656C148.131 27.124 148.395 26.0646 148.395 24.7874C148.395 23.0203 147.78 21.6552 146.549 20.6879C145.322 19.7206 143.613 19.239 141.436 19.239L134.204 19.2349Z"
          fill="url(#paint14_linear_241_9653)"/>
    <path d="M138.634 22.6434H141.44C142.273 22.6434 142.906 22.8695 143.333 23.3218C143.764 23.774 143.978 24.3938 143.978 25.1894C143.978 25.985 143.768 26.6005 143.341 27.0444C142.914 27.4883 142.282 27.7102 141.44 27.7102H138.634V22.6434ZM134.204 19.2349V37.6218H138.634V31.1188H141.034L144.279 37.6218H149.028V37.4334L145.188 30.0091C146.289 29.4899 147.101 28.8073 147.616 27.9656C148.131 27.124 148.395 26.0646 148.395 24.7874C148.395 23.0203 147.78 21.6552 146.549 20.6879C145.322 19.7206 143.613 19.239 141.436 19.239L134.204 19.2349Z"
          fill="url(#paint15_linear_241_9653)"/>
    <mask id="mask17_241_9653" style="mask-type:luminance" maskUnits="userSpaceOnUse" x="134" y="19" width="16"
          height="19">
        <path d="M138.634 22.6434H141.44C142.273 22.6434 142.906 22.8695 143.333 23.3218C143.764 23.774 143.978 24.3938 143.978 25.1894C143.978 25.985 143.768 26.6005 143.341 27.0444C142.914 27.4883 142.282 27.7102 141.44 27.7102H138.634V22.6434ZM134.204 19.2349V37.6218H138.634V31.1188H141.034L144.279 37.6218H149.028V37.4334L145.188 30.0091C146.289 29.4899 147.101 28.8073 147.616 27.9656C148.131 27.124 148.395 26.0646 148.395 24.7874C148.395 23.0203 147.78 21.6552 146.549 20.6879C145.322 19.7206 143.613 19.239 141.436 19.239L134.204 19.2349Z"
              fill="white"/>
    </mask>
    <g mask="url(#mask17_241_9653)">
        <path d="M149.032 19.2349H134.204V37.6218H149.032V19.2349Z" fill="url(#paint16_linear_241_9653)"/>
    </g>
    <path d="M167.942 19.2349L165.836 30.7628L163.273 19.2349H159.509L156.984 30.7628L154.873 19.2349H150.468L154.384 37.6218H158.969L161.377 27.1365L163.843 37.6218H168.437L172.339 19.2349H167.942Z"
          fill="url(#paint17_linear_241_9653)"/>
    <path d="M167.942 19.2349L165.836 30.7628L163.273 19.2349H159.509L156.984 30.7628L154.873 19.2349H150.468L154.384 37.6218H158.969L161.377 27.1365L163.843 37.6218H168.437L172.339 19.2349H167.942Z"
          fill="url(#paint18_linear_241_9653)"/>
    <mask id="mask18_241_9653" style="mask-type:luminance" maskUnits="userSpaceOnUse" x="150" y="19" width="23"
          height="19">
        <path d="M167.942 19.2349L165.836 30.7628L163.273 19.2349H159.509L156.984 30.7628L154.873 19.2349H150.468L154.384 37.6218H158.969L161.377 27.1365L163.843 37.6218H168.437L172.339 19.2349H167.942Z"
              fill="white"/>
    </mask>
    <g mask="url(#mask18_241_9653)">
        <path d="M172.339 19.2349H150.468V37.6218H172.339V19.2349Z" fill="url(#paint19_linear_241_9653)"/>
    </g>
    <path d="M179.475 32.9615C178.876 31.9942 178.578 30.6082 178.578 28.8076L178.591 27.4551C178.717 24.1219 179.893 22.4553 182.113 22.4553C183.247 22.4553 184.123 22.9285 184.734 23.8748C185.345 24.8212 185.651 26.2114 185.651 28.0371V28.883C185.643 30.6668 185.337 32.0361 184.73 32.9867C184.123 33.9414 183.26 34.4146 182.142 34.4146C180.957 34.4104 180.073 33.9288 179.475 32.9615ZM177.9 20.1062C176.669 20.8557 175.718 21.9193 175.057 23.2928C174.395 24.6704 174.064 26.2575 174.064 28.0623V29.0966C174.098 30.8302 174.454 32.3669 175.132 33.7069C175.811 35.0469 176.753 36.077 177.967 36.793C179.181 37.5133 180.568 37.8734 182.134 37.8734C183.7 37.8734 185.094 37.5007 186.317 36.7554C187.544 36.01 188.49 34.9464 189.152 33.5687C189.818 32.1869 190.148 30.5998 190.148 28.8076V27.9618C190.14 26.1947 189.797 24.6244 189.118 23.2593C188.44 21.89 187.489 20.8348 186.271 20.0936C185.048 19.3524 183.662 18.9839 182.104 18.9839C180.538 18.9797 179.135 19.3566 177.9 20.1062Z"
          fill="url(#paint20_linear_241_9653)"/>
    <path d="M179.475 32.9611C178.876 31.9938 178.578 30.6077 178.578 28.8071L178.591 27.4546C178.717 24.1214 179.893 22.4548 182.113 22.4548C183.247 22.4548 184.123 22.928 184.734 23.8743C185.345 24.8207 185.651 26.2109 185.651 28.0366V28.8825C185.643 30.6663 185.337 32.0356 184.73 32.9862C184.123 33.9409 183.26 34.4141 182.142 34.4141C180.957 34.4099 180.073 33.9283 179.475 32.9611ZM177.9 20.1057C176.669 20.8552 175.718 21.9188 175.057 23.2923C174.395 24.67 174.064 26.257 174.064 28.0618V29.0961C174.098 30.8297 174.454 32.3664 175.132 33.7064C175.811 35.0464 176.753 36.0765 177.967 36.7925C179.181 37.5128 180.568 37.8729 182.134 37.8729C183.7 37.8729 185.094 37.5002 186.317 36.7549C187.544 36.0095 188.49 34.9459 189.152 33.5682C189.818 32.1864 190.148 30.5993 190.148 28.8071V27.9613C190.14 26.1942 189.797 24.6239 189.118 23.2588C188.44 21.8895 187.489 20.8343 186.271 20.0931C185.048 19.3519 183.662 18.9834 182.104 18.9834C180.538 18.9792 179.135 19.3561 177.9 20.1057Z"
          fill="url(#paint21_linear_241_9653)"/>
    <mask id="mask19_241_9653" style="mask-type:luminance" maskUnits="userSpaceOnUse" x="174" y="18" width="17"
          height="20">
        <path d="M179.474 32.9606C178.875 31.9933 178.578 30.6072 178.578 28.8066L178.591 27.4541C178.716 24.1209 179.893 22.4543 182.112 22.4543C183.247 22.4543 184.122 22.9275 184.734 23.8739C185.345 24.8202 185.651 26.2104 185.651 28.0362V28.882C185.642 30.6659 185.337 32.0351 184.729 32.9857C184.122 33.9404 183.26 34.4136 182.142 34.4136C180.956 34.4094 180.073 33.9279 179.474 32.9606ZM177.9 20.1052C176.669 20.8547 175.718 21.9183 175.056 23.2918C174.395 24.6695 174.064 26.2565 174.064 28.0613V29.0956C174.097 30.8292 174.453 32.366 175.132 33.7059C175.81 35.0459 176.752 36.076 177.967 36.7921C179.181 37.5123 180.567 37.8724 182.133 37.8724C183.699 37.8724 185.094 37.4997 186.316 36.7544C187.543 36.009 188.49 34.9454 189.151 33.5677C189.817 32.1859 190.148 30.5989 190.148 28.8066V27.9608C190.139 26.1937 189.796 24.6234 189.118 23.2583C188.439 21.889 187.489 20.8338 186.27 20.0926C185.048 19.3514 183.662 18.9829 182.104 18.9829C180.538 18.9788 179.135 19.3556 177.9 20.1052Z"
              fill="white"/>
    </mask>
    <g mask="url(#mask19_241_9653)">
        <path d="M190.156 18.9785H174.068V37.868H190.156V18.9785Z" fill="url(#paint22_linear_241_9653)"/>
    </g>
    <path d="M197.393 22.6434H200.194C201.027 22.6434 201.66 22.8695 202.091 23.3218C202.518 23.774 202.736 24.3938 202.736 25.1894C202.736 25.985 202.522 26.6005 202.099 27.0444C201.676 27.4883 201.04 27.7102 200.198 27.7102H197.397V22.6434H197.393ZM192.962 19.2349V37.6218H197.393V31.1188H199.792L203.037 37.6218H207.786V37.4334L203.946 30.0091C205.051 29.4899 205.86 28.8073 206.375 27.9656C206.894 27.124 207.149 26.0646 207.149 24.7874C207.149 23.0203 206.534 21.6552 205.307 20.6879C204.076 19.7206 202.372 19.239 200.19 19.239L192.962 19.2349Z"
          fill="url(#paint23_linear_241_9653)"/>
    <path d="M197.393 22.6434H200.194C201.027 22.6434 201.66 22.8695 202.091 23.3218C202.518 23.774 202.736 24.3938 202.736 25.1894C202.736 25.985 202.522 26.6005 202.099 27.0444C201.676 27.4883 201.04 27.7102 200.198 27.7102H197.397V22.6434H197.393ZM192.962 19.2349V37.6218H197.393V31.1188H199.792L203.037 37.6218H207.786V37.4334L203.946 30.0091C205.051 29.4899 205.86 28.8073 206.375 27.9656C206.894 27.124 207.149 26.0646 207.149 24.7874C207.149 23.0203 206.534 21.6552 205.307 20.6879C204.076 19.7206 202.372 19.239 200.19 19.239L192.962 19.2349Z"
          fill="url(#paint24_linear_241_9653)"/>
    <mask id="mask20_241_9653" style="mask-type:luminance" maskUnits="userSpaceOnUse" x="192" y="19" width="16"
          height="19">
        <path d="M197.393 22.6434H200.194C201.027 22.6434 201.66 22.8695 202.091 23.3218C202.518 23.774 202.736 24.3938 202.736 25.1894C202.736 25.985 202.522 26.6005 202.099 27.0444C201.676 27.4883 201.04 27.7102 200.198 27.7102H197.397V22.6434H197.393ZM192.962 19.2349V37.6218H197.393V31.1188H199.792L203.037 37.6218H207.786V37.4334L203.946 30.0091C205.051 29.4899 205.86 28.8073 206.375 27.9656C206.894 27.124 207.149 26.0646 207.149 24.7874C207.149 23.0203 206.534 21.6552 205.307 20.6879C204.076 19.7206 202.372 19.239 200.19 19.239L192.962 19.2349Z"
              fill="white"/>
    </mask>
    <g mask="url(#mask20_241_9653)">
        <path d="M207.786 19.2349H192.962V37.6218H207.786V19.2349Z" fill="url(#paint25_linear_241_9653)"/>
    </g>
    <path d="M210.349 19.2349V37.6218H222.496V34.2091H214.779V19.2349H210.349Z" fill="url(#paint26_linear_241_9653)"/>
    <path d="M210.349 19.2349V37.6218H222.496V34.2091H214.779V19.2349H210.349Z" fill="url(#paint27_linear_241_9653)"/>
    <mask id="mask21_241_9653" style="mask-type:luminance" maskUnits="userSpaceOnUse" x="210" y="19" width="13"
          height="19">
        <path d="M210.349 19.2349V37.6218H222.496V34.2091H214.779V19.2349H210.349Z" fill="white"/>
    </mask>
    <g mask="url(#mask21_241_9653)">
        <path d="M222.496 19.2349H210.349V37.6218H222.496V19.2349Z" fill="url(#paint28_linear_241_9653)"/>
    </g>
    <path d="M229.313 22.656H230.804C232.106 22.656 233.103 23.1082 233.781 24.0085C234.464 24.9088 234.803 26.2488 234.803 28.0243V28.8199C234.803 30.6037 234.464 31.9479 233.781 32.8566C233.099 33.761 232.123 34.2133 230.85 34.2133H229.309L229.313 22.656ZM224.883 19.2349V37.6218H230.929C232.521 37.6135 233.961 37.2324 235.255 36.4787C236.549 35.7249 237.55 34.6823 238.262 33.3465C238.973 32.0107 239.329 30.5032 239.329 28.8199V27.974C239.321 26.3074 238.953 24.8 238.224 23.46C237.495 22.1158 236.482 21.0773 235.188 20.3403C233.894 19.6034 232.433 19.2349 230.808 19.2349H224.883Z"
          fill="url(#paint29_linear_241_9653)"/>
    <path d="M229.313 22.656H230.804C232.106 22.656 233.103 23.1082 233.781 24.0085C234.464 24.9088 234.803 26.2488 234.803 28.0243V28.8199C234.803 30.6037 234.464 31.9479 233.781 32.8566C233.099 33.761 232.123 34.2133 230.85 34.2133H229.309L229.313 22.656ZM224.883 19.2349V37.6218H230.929C232.521 37.6135 233.961 37.2324 235.255 36.4787C236.549 35.7249 237.55 34.6823 238.262 33.3465C238.973 32.0107 239.329 30.5032 239.329 28.8199V27.974C239.321 26.3074 238.953 24.8 238.224 23.46C237.495 22.1158 236.482 21.0773 235.188 20.3403C233.894 19.6034 232.433 19.2349 230.808 19.2349H224.883Z"
          fill="url(#paint30_linear_241_9653)"/>
    <mask id="mask22_241_9653" style="mask-type:luminance" maskUnits="userSpaceOnUse" x="224" y="19" width="16"
          height="19">
        <path d="M229.313 22.656H230.804C232.106 22.656 233.103 23.1082 233.781 24.0085C234.464 24.9088 234.803 26.2488 234.803 28.0243V28.8199C234.803 30.6037 234.464 31.9479 233.781 32.8566C233.099 33.761 232.123 34.2133 230.85 34.2133H229.309L229.313 22.656ZM224.883 19.2349V37.6218H230.929C232.521 37.6135 233.961 37.2324 235.255 36.4787C236.549 35.7249 237.55 34.6823 238.262 33.3465C238.973 32.0107 239.329 30.5032 239.329 28.8199V27.974C239.321 26.3074 238.953 24.8 238.224 23.46C237.495 22.1158 236.482 21.0773 235.188 20.3403C233.894 19.6034 232.433 19.2349 230.808 19.2349H224.883Z"
              fill="white"/>
    </mask>
    <g mask="url(#mask22_241_9653)">
        <path d="M239.329 19.2349H224.883V37.6218H239.329V19.2349Z" fill="url(#paint31_linear_241_9653)"/>
    </g>
    <path d="M123.454 49.5635H85.478V51.0081H123.454V49.5635Z" fill="white"/>
    <path d="M123.454 49.5635H85.478V51.0081H123.454V49.5635Z" fill="white"/>
    <path d="M123.454 49.563H85.478V51.0076H123.454V49.563Z" fill="white"/>
    <mask id="mask23_241_9653" style="mask-type:luminance" maskUnits="userSpaceOnUse" x="85" y="49" width="39"
          height="3">
        <path d="M123.454 49.5625H85.478V51.0072H123.454V49.5625Z" fill="white"/>
    </mask>
    <g mask="url(#mask23_241_9653)">
        <path d="M123.454 49.5625H85.478V51.0072H123.454V49.5625Z" fill="white"/>
    </g>
    <path d="M237.998 49.5635H200.022V51.0081H237.998V49.5635Z" fill="white"/>
    <path d="M237.998 49.5635H200.022V51.0081H237.998V49.5635Z" fill="white"/>
    <path d="M237.998 49.563H200.022V51.0076H237.998V49.563Z" fill="white"/>
    <mask id="mask24_241_9653" style="mask-type:luminance" maskUnits="userSpaceOnUse" x="200" y="49" width="38"
          height="3">
        <path d="M237.998 49.5625H200.022V51.0072H237.998V49.5625Z" fill="white"/>
    </mask>
    <g mask="url(#mask24_241_9653)">
        <path d="M237.998 49.5625H200.022V51.0072H237.998V49.5625Z" fill="white"/>
    </g>
    <path d="M133.519 50.234C133.519 47.4703 135.303 45.4185 138.201 45.4185C139.511 45.4185 140.885 45.9084 141.865 46.9636L140.742 47.9435C140.093 47.307 139.247 46.9259 138.188 46.9259C136.496 46.9259 135.186 48.1947 135.186 50.234C135.186 52.1141 136.375 53.5421 138.255 53.5421C139.009 53.5421 139.708 53.3453 140.345 52.9223V51.3353H138.041V49.9074H141.932V53.8226C141.073 54.5387 139.695 54.9993 138.255 54.9993C135.558 54.9951 133.519 53.2071 133.519 50.234Z"
          fill="white"/>
    <path d="M146.613 45.5229H150.08C152.317 45.5229 153.296 46.8169 153.296 48.563C153.296 50.0328 152.58 51.0085 151.207 51.4063L153.64 54.9112H151.722L149.473 51.5654H148.217V54.9112H146.617L146.613 45.5229ZM149.733 50.1249C151.014 50.1249 151.638 49.4633 151.638 48.5379C151.638 47.5455 150.989 46.9509 149.842 46.9509H148.217V50.1249H149.733Z"
          fill="white"/>
    <path d="M157.208 50.2172C157.208 47.4535 159.138 45.4185 161.956 45.4185C164.774 45.4185 166.692 47.3489 166.692 50.2172C166.692 53.0856 164.67 55.016 161.956 55.016C159.138 55.0202 157.208 52.9809 157.208 50.2172ZM165.021 50.2172C165.021 48.2868 163.685 46.9092 161.952 46.9092C160.114 46.9092 158.857 48.379 158.857 50.2172C158.857 52.0555 160.114 53.5253 161.952 53.5253C163.685 53.5253 165.021 52.1351 165.021 50.2172Z"
          fill="white"/>
    <path d="M171.068 51.0503V45.5229H172.655V50.9331C172.655 52.428 173.446 53.5126 174.799 53.5126C176.055 53.5126 176.955 52.5453 176.955 50.9331V45.5229H178.555V51.0503C178.555 53.4832 177.14 55.02 174.799 55.02C172.575 55.02 171.068 53.5754 171.068 51.0503Z"
          fill="white"/>
    <path d="M183.341 45.5229H186.741C188.99 45.5229 189.957 46.8169 189.957 48.563C189.957 50.5981 188.58 51.5654 186.557 51.5654H184.945V54.9112H183.345V45.5229H183.341ZM186.394 50.1249C187.705 50.1249 188.299 49.4633 188.299 48.5379C188.299 47.5455 187.663 46.9509 186.515 46.9509H184.941V50.1249H186.394Z"
          fill="white"/>
    <defs>
        <linearGradient id="paint0_linear_241_9653" x1="50.5537" y1="58.6791" x2="37.5736" y2="40.8789"
                        gradientUnits="userSpaceOnUse">
            <stop stop-color="#FFDD00"/>
            <stop offset="0.18" stop-color="#F3CB0C"/>
            <stop offset="0.46" stop-color="#E5B51B"/>
            <stop offset="0.74" stop-color="#DCA924"/>
            <stop offset="0.99" stop-color="#DAA528"/>
            <stop offset="1" stop-color="#DAA528"/>
        </linearGradient>
        <linearGradient id="paint1_linear_241_9653" x1="22.3215" y1="59.6058" x2="36.5892" y2="38.2929"
                        gradientUnits="userSpaceOnUse">
            <stop stop-color="#FFDD00"/>
            <stop offset="0.18" stop-color="#F3CB0C"/>
            <stop offset="0.46" stop-color="#E5B51B"/>
            <stop offset="0.74" stop-color="#DCA924"/>
            <stop offset="0.99" stop-color="#DAA528"/>
            <stop offset="1" stop-color="#DAA528"/>
        </linearGradient>
        <linearGradient id="paint2_linear_241_9653" x1="61.585" y1="31.7378" x2="38.2782" y2="40.0828"
                        gradientUnits="userSpaceOnUse">
            <stop stop-color="#FFDD00"/>
            <stop offset="0.18" stop-color="#F3CB0C"/>
            <stop offset="0.46" stop-color="#E5B51B"/>
            <stop offset="0.74" stop-color="#DCA924"/>
            <stop offset="1" stop-color="#DAA528"/>
        </linearGradient>
        <linearGradient id="paint3_linear_241_9653" x1="33.5773" y1="15.4885" x2="33.5773" y2="36.5757"
                        gradientUnits="userSpaceOnUse">
            <stop stop-color="#FFDD00"/>
            <stop offset="0.18" stop-color="#F3CB0C"/>
            <stop offset="0.46" stop-color="#E5B51B"/>
            <stop offset="0.74" stop-color="#DCA924"/>
            <stop offset="0.99" stop-color="#DAA528"/>
            <stop offset="1" stop-color="#DAA528"/>
        </linearGradient>
        <linearGradient id="paint4_linear_241_9653" x1="11.9969" y1="32.21" x2="35.9607" y2="39.9039"
                        gradientUnits="userSpaceOnUse">
            <stop stop-color="#FFDD00"/>
            <stop offset="0.18" stop-color="#F3CB0C"/>
            <stop offset="0.46" stop-color="#E5B51B"/>
            <stop offset="0.74" stop-color="#DCA924"/>
            <stop offset="0.99" stop-color="#DAA528"/>
            <stop offset="1" stop-color="#DAA528"/>
        </linearGradient>
        <linearGradient id="paint5_linear_241_9653" x1="90.7286" y1="37.8736" x2="90.7286" y2="18.98"
                        gradientUnits="userSpaceOnUse">
            <stop stop-color="#FFDE00"/>
            <stop offset="1" stop-color="#E5BA50"/>
        </linearGradient>
        <linearGradient id="paint6_linear_241_9653" x1="90.7286" y1="37.8741" x2="90.7286" y2="18.9805"
                        gradientUnits="userSpaceOnUse">
            <stop stop-color="#FFDE00"/>
            <stop offset="1" stop-color="#E5BA50"/>
        </linearGradient>
        <linearGradient id="paint7_linear_241_9653" x1="90.7269" y1="37.8713" x2="90.7269" y2="18.9814"
                        gradientUnits="userSpaceOnUse">
            <stop stop-color="#FFDE00"/>
            <stop offset="1" stop-color="#E5BA50"/>
        </linearGradient>
        <linearGradient id="paint8_linear_241_9653" x1="107.514" y1="37.6218" x2="107.514" y2="19.2353"
                        gradientUnits="userSpaceOnUse">
            <stop stop-color="#FFDE00"/>
            <stop offset="1" stop-color="#E5BA50"/>
        </linearGradient>
        <linearGradient id="paint9_linear_241_9653" x1="107.514" y1="37.6218" x2="107.514" y2="19.2353"
                        gradientUnits="userSpaceOnUse">
            <stop stop-color="#FFDE00"/>
            <stop offset="1" stop-color="#E5BA50"/>
        </linearGradient>
        <linearGradient id="paint10_linear_241_9653" x1="107.514" y1="37.6223" x2="107.514" y2="19.2353"
                        gradientUnits="userSpaceOnUse">
            <stop stop-color="#FFDE00"/>
            <stop offset="1" stop-color="#E5BA50"/>
        </linearGradient>
        <linearGradient id="paint11_linear_241_9653" x1="123.497" y1="37.6223" x2="123.497" y2="19.2353"
                        gradientUnits="userSpaceOnUse">
            <stop stop-color="#FFDE00"/>
            <stop offset="1" stop-color="#E5BA50"/>
        </linearGradient>
        <linearGradient id="paint12_linear_241_9653" x1="123.497" y1="37.6223" x2="123.497" y2="19.2353"
                        gradientUnits="userSpaceOnUse">
            <stop stop-color="#FFDE00"/>
            <stop offset="1" stop-color="#E5BA50"/>
        </linearGradient>
        <linearGradient id="paint13_linear_241_9653" x1="123.496" y1="37.6223" x2="123.496" y2="19.2353"
                        gradientUnits="userSpaceOnUse">
            <stop stop-color="#FFDE00"/>
            <stop offset="1" stop-color="#E5BA50"/>
        </linearGradient>
        <linearGradient id="paint14_linear_241_9653" x1="141.616" y1="37.6223" x2="141.616" y2="19.2353"
                        gradientUnits="userSpaceOnUse">
            <stop stop-color="#FFDE00"/>
            <stop offset="1" stop-color="#E5BA50"/>
        </linearGradient>
        <linearGradient id="paint15_linear_241_9653" x1="141.616" y1="37.6223" x2="141.616" y2="19.2353"
                        gradientUnits="userSpaceOnUse">
            <stop stop-color="#FFDE00"/>
            <stop offset="1" stop-color="#E5BA50"/>
        </linearGradient>
        <linearGradient id="paint16_linear_241_9653" x1="141.618" y1="37.6223" x2="141.618" y2="19.2353"
                        gradientUnits="userSpaceOnUse">
            <stop stop-color="#FFDE00"/>
            <stop offset="1" stop-color="#E5BA50"/>
        </linearGradient>
        <linearGradient id="paint17_linear_241_9653" x1="161.404" y1="37.6218" x2="161.404" y2="19.2353"
                        gradientUnits="userSpaceOnUse">
            <stop stop-color="#FFDE00"/>
            <stop offset="1" stop-color="#E5BA50"/>
        </linearGradient>
        <linearGradient id="paint18_linear_241_9653" x1="161.404" y1="37.6218" x2="161.404" y2="19.2353"
                        gradientUnits="userSpaceOnUse">
            <stop stop-color="#FFDE00"/>
            <stop offset="1" stop-color="#E5BA50"/>
        </linearGradient>
        <linearGradient id="paint19_linear_241_9653" x1="161.404" y1="37.6223" x2="161.404" y2="19.2353"
                        gradientUnits="userSpaceOnUse">
            <stop stop-color="#FFDE00"/>
            <stop offset="1" stop-color="#E5BA50"/>
        </linearGradient>
        <linearGradient id="paint20_linear_241_9653" x1="182.106" y1="37.8734" x2="182.106" y2="18.9839"
                        gradientUnits="userSpaceOnUse">
            <stop stop-color="#FFDE00"/>
            <stop offset="1" stop-color="#E5BA50"/>
        </linearGradient>
        <linearGradient id="paint21_linear_241_9653" x1="182.106" y1="37.8729" x2="182.106" y2="18.9834"
                        gradientUnits="userSpaceOnUse">
            <stop stop-color="#FFDE00"/>
            <stop offset="1" stop-color="#E5BA50"/>
        </linearGradient>
        <linearGradient id="paint22_linear_241_9653" x1="182.112" y1="37.8684" x2="182.112" y2="18.9785"
                        gradientUnits="userSpaceOnUse">
            <stop stop-color="#FFDE00"/>
            <stop offset="1" stop-color="#E5BA50"/>
        </linearGradient>
        <linearGradient id="paint23_linear_241_9653" x1="200.374" y1="37.6223" x2="200.374" y2="19.2353"
                        gradientUnits="userSpaceOnUse">
            <stop stop-color="#FFDE00"/>
            <stop offset="1" stop-color="#E5BA50"/>
        </linearGradient>
        <linearGradient id="paint24_linear_241_9653" x1="200.374" y1="37.6223" x2="200.374" y2="19.2353"
                        gradientUnits="userSpaceOnUse">
            <stop stop-color="#FFDE00"/>
            <stop offset="1" stop-color="#E5BA50"/>
        </linearGradient>
        <linearGradient id="paint25_linear_241_9653" x1="200.374" y1="37.6223" x2="200.374" y2="19.2353"
                        gradientUnits="userSpaceOnUse">
            <stop stop-color="#FFDE00"/>
            <stop offset="1" stop-color="#E5BA50"/>
        </linearGradient>
        <linearGradient id="paint26_linear_241_9653" x1="216.422" y1="37.6218" x2="216.422" y2="19.2353"
                        gradientUnits="userSpaceOnUse">
            <stop stop-color="#FFDE00"/>
            <stop offset="1" stop-color="#E5BA50"/>
        </linearGradient>
        <linearGradient id="paint27_linear_241_9653" x1="216.422" y1="37.6218" x2="216.422" y2="19.2353"
                        gradientUnits="userSpaceOnUse">
            <stop stop-color="#FFDE00"/>
            <stop offset="1" stop-color="#E5BA50"/>
        </linearGradient>
        <linearGradient id="paint28_linear_241_9653" x1="216.422" y1="37.6223" x2="216.422" y2="19.2353"
                        gradientUnits="userSpaceOnUse">
            <stop stop-color="#FFDE00"/>
            <stop offset="1" stop-color="#E5BA50"/>
        </linearGradient>
        <linearGradient id="paint29_linear_241_9653" x1="232.106" y1="37.6223" x2="232.106" y2="19.2353"
                        gradientUnits="userSpaceOnUse">
            <stop stop-color="#FFDE00"/>
            <stop offset="1" stop-color="#E5BA50"/>
        </linearGradient>
        <linearGradient id="paint30_linear_241_9653" x1="232.106" y1="37.6223" x2="232.106" y2="19.2353"
                        gradientUnits="userSpaceOnUse">
            <stop stop-color="#FFDE00"/>
            <stop offset="1" stop-color="#E5BA50"/>
        </linearGradient>
        <linearGradient id="paint31_linear_241_9653" x1="232.106" y1="37.6223" x2="232.106" y2="19.2353"
                        gradientUnits="userSpaceOnUse">
            <stop stop-color="#FFDE00"/>
            <stop offset="1" stop-color="#E5BA50"/>
        </linearGradient>
    </defs>
</svg>
