<svg width="200" height="150" viewBox="0 0 200 150" fill="none" xmlns="http://www.w3.org/2000/svg">
    <g clip-path="url(#clip0_241_9255)">
        <path d="M100 93.9336C74.1834 93.9336 53.1802 72.9309 53.1802 47.1148C53.1802 21.2987 74.1834 0.294434 100 0.294434C125.817 0.294434 146.82 21.2982 146.82 47.1148C146.82 72.9315 125.817 93.9336 100 93.9336Z"
              fill="black"/>
        <path d="M130.366 38.907L107.678 38.2676L100.167 49.2636L130.366 38.907Z" fill="#FFDD00"/>
        <path d="M100.167 49.264L107.678 38.2674H107.677L100.032 17.4424V49.31L100.167 49.264Z" fill="#FFDD00"/>
        <path d="M100.096 49.3677L100.04 49.4511L118.689 76.7804L118.695 76.7841L112.931 53.73L100.096 49.3677Z"
              fill="#FFDD00"/>
        <mask id="mask0_241_9255" style="mask-type:luminance" maskUnits="userSpaceOnUse" x="100" y="49" width="19"
              height="28">
            <path d="M100.032 49.435V64.1411L118.689 76.7546L100.039 49.4248L100.032 49.435Z" fill="white"/>
        </mask>
        <g mask="url(#mask0_241_9255)">
            <path d="M112.213 40.543L87.0215 58.9126L106.509 85.6366L131.7 67.267L112.213 40.543Z"
                  fill="url(#paint0_linear_241_9255)"/>
        </g>
        <mask id="mask1_241_9255" style="mask-type:luminance" maskUnits="userSpaceOnUse" x="81" y="49" width="20"
              height="28">
            <path d="M81.3707 76.7547L81.3701 76.7584L100.032 64.1412V49.4361V49.4351L81.3707 76.7547Z" fill="white"/>
        </mask>
        <g mask="url(#mask1_241_9255)">
            <path d="M87.1456 40.8089L68.7397 68.3032L94.2573 85.3857L112.663 57.8914L87.1456 40.8089Z"
                  fill="url(#paint1_linear_241_9255)"/>
        </g>
        <mask id="mask2_241_9255" style="mask-type:luminance" maskUnits="userSpaceOnUse" x="100" y="38" width="31"
              height="16">
            <path d="M100.168 49.2395L100.097 49.3427L112.932 53.7056L130.716 38.8925L130.367 38.8823L100.168 49.2395Z"
                  fill="white"/>
        </mask>
        <g mask="url(#mask2_241_9255)">
            <path d="M127.236 29.1644L95.3916 40.5664L103.575 63.4227L135.42 52.0207L127.236 29.1644Z"
                  fill="url(#paint2_linear_241_9255)"/>
        </g>
        <path d="M100.033 49.4404L99.9607 49.3345L87.1326 53.7343L81.3711 76.7809L100.033 49.4613V49.4404Z"
              fill="#FFDD00"/>
        <mask id="mask3_241_9255" style="mask-type:luminance" maskUnits="userSpaceOnUse" x="92" y="17" width="9"
              height="33">
            <path d="M92.395 38.2238L99.949 49.292L99.9806 49.3027L100.032 49.2845V17.418L92.395 38.2238Z"
                  fill="white"/>
        </mask>
        <g mask="url(#mask3_241_9255)">
            <path d="M100.032 17.418H92.395V49.3027H100.032V17.418Z" fill="url(#paint3_linear_241_9255)"/>
        </g>
        <path d="M92.3952 38.249L92.3883 38.2683L69.3491 38.9173L99.9487 49.3173L92.3952 38.249Z" fill="#FFDD00"/>
        <mask id="mask4_241_9255" style="mask-type:luminance" maskUnits="userSpaceOnUse" x="69" y="38" width="31"
              height="16">
            <path d="M87.1334 53.7047L87.1318 53.709L99.9609 49.3092L99.9486 49.2916L69.3496 38.8916L87.1334 53.7047Z"
                  fill="white"/>
        </mask>
        <g mask="url(#mask4_241_9255)">
            <path d="M72.2099 29.9815L65.0366 52.3237L97.1001 62.6182L104.273 40.2759L72.2099 29.9815Z"
                  fill="url(#paint4_linear_241_9255)"/>
        </g>
        <path d="M137.502 47.1136C137.502 27.9194 122.706 11.6653 103.689 9.80225V11.8462C121.555 13.7002 135.466 29.0778 135.466 47.1136C135.466 65.1494 121.927 80.4082 103.876 82.3617V84.404C122.788 82.4559 137.503 66.2115 137.503 47.1136"
              fill="#FFDD00"/>
        <path d="M62.4985 47.1136C62.4985 66.6556 77.5872 82.9402 96.9767 84.487V82.4426C78.7355 80.8994 64.5339 65.4967 64.5339 47.1136C64.5339 28.7306 78.736 13.3273 96.9767 11.7842V9.74023C77.5872 11.286 62.4985 27.5716 62.4985 47.1136Z"
              fill="#FFDD00"/>
        <path d="M99.9997 90.9542C75.8257 90.9542 56.1585 71.2876 56.1585 47.1135C56.1585 22.9395 75.8257 3.27181 99.9997 3.27181C124.174 3.27181 143.841 22.9395 143.841 47.1135C143.841 71.2876 124.174 90.9542 99.9997 90.9542ZM99.9997 1.27979C74.7272 1.27979 54.1665 21.8405 54.1665 47.1141C54.1665 72.3876 74.7272 92.9478 99.9997 92.9478C125.272 92.9478 145.835 72.3871 145.835 47.1141C145.835 21.8411 125.272 1.27979 99.9997 1.27979Z"
              fill="#FFDD00"/>
        <path d="M101.13 7.01904H99.5156V13.8266H101.13V7.01904Z" fill="#FFDD00"/>
        <path d="M101.111 73.6616H99.4966V89.6562H101.111V73.6616Z" fill="#FFDD00"/>
        <path d="M140.9 45.3022C140.072 45.3022 139.399 45.9754 139.399 46.8031C139.399 47.6308 140.072 48.3045 140.9 48.3045C141.729 48.3045 142.401 47.6314 142.401 46.8031C142.401 45.9748 141.727 45.3022 140.9 45.3022Z"
              fill="#FFDD00"/>
        <path d="M59.4711 45.3022C58.6429 45.3022 57.9692 45.9754 57.9692 46.8031C57.9692 47.6308 58.6429 48.3045 59.4711 48.3045C60.2994 48.3045 60.972 47.6314 60.972 46.8031C60.972 45.9748 60.2989 45.3022 59.4711 45.3022Z"
              fill="#FFDD00"/>
        <path d="M5.92883 104.905C4.54303 105.462 3.46756 106.238 2.71312 107.228C1.95334 108.223 1.57345 109.373 1.57345 110.673C1.57345 113.29 3.09837 115.339 6.14286 116.837C7.07921 117.303 8.2831 117.779 9.75986 118.271C11.2313 118.764 12.2639 119.245 12.8472 119.711C13.4357 120.171 13.7247 120.818 13.7247 121.648C13.7247 122.381 13.4518 122.948 12.9114 123.349C12.371 123.75 11.6272 123.954 10.6909 123.954C9.23015 123.954 8.17073 123.654 7.52331 123.055C6.87589 122.455 6.54415 121.53 6.54415 120.272H0.861816C0.861816 121.819 1.25241 123.188 2.02825 124.376C2.80943 125.564 3.97051 126.501 5.51684 127.185C7.05781 127.87 8.78605 128.213 10.6909 128.213C13.3929 128.213 15.5171 127.629 17.0634 126.452C18.6151 125.281 19.3909 123.665 19.3909 121.61C19.3909 119.042 18.1228 117.025 15.5813 115.559C14.5379 114.954 13.2056 114.392 11.5791 113.873C9.95248 113.354 8.81816 112.846 8.17608 112.354C7.52866 111.867 7.20763 111.316 7.20763 110.716C7.20763 110.026 7.50191 109.459 8.08512 109.015C8.66834 108.565 9.47093 108.346 10.4822 108.346C11.4935 108.346 12.2746 108.608 12.8632 109.138C13.4518 109.668 13.7407 110.406 13.7407 111.364H19.3909C19.3909 109.93 19.0164 108.662 18.278 107.549C17.5343 106.436 16.4963 105.58 15.1586 104.975C13.821 104.37 12.3067 104.071 10.616 104.071C8.87701 104.076 7.31464 104.354 5.92883 104.905Z"
              fill="black"/>
        <mask id="mask5_241_9255" style="mask-type:luminance" maskUnits="userSpaceOnUse" x="0" y="104" width="20"
              height="25">
            <path d="M5.92932 104.905C4.54352 105.461 3.46805 106.237 2.71361 107.227C1.95383 108.222 1.57393 109.372 1.57393 110.672C1.57393 113.289 3.09886 115.338 6.14335 116.836C7.0797 117.302 8.28358 117.778 9.76035 118.27C11.2318 118.763 12.2644 119.244 12.8476 119.71C13.4362 120.17 13.7251 120.817 13.7251 121.647C13.7251 122.38 13.4523 122.947 12.9119 123.348C12.3714 123.749 11.6277 123.953 10.6914 123.953C9.23064 123.953 8.17122 123.653 7.5238 123.054C6.87638 122.454 6.54464 121.529 6.54464 120.271H0.862305C0.862305 121.818 1.2529 123.188 2.02874 124.375C2.80992 125.563 3.971 126.5 5.51733 127.184C7.0583 127.869 8.78654 128.212 10.6914 128.212C13.3934 128.212 15.5176 127.629 17.0639 126.451C18.6156 125.28 19.3914 123.664 19.3914 121.609C19.3914 119.041 18.1233 117.024 15.5818 115.558C14.5384 114.953 13.2061 114.391 11.5796 113.872C9.95297 113.353 8.81864 112.845 8.17657 112.353C7.52915 111.866 7.20811 111.315 7.20811 110.715C7.20811 110.025 7.5024 109.458 8.08561 109.014C8.66883 108.564 9.47142 108.345 10.4827 108.345C11.4939 108.345 12.2751 108.607 12.8637 109.137C13.4523 109.667 13.7412 110.405 13.7412 111.363H19.3914C19.3914 109.929 19.0169 108.661 18.2785 107.548C17.5348 106.435 16.4968 105.579 15.1591 104.974C13.8215 104.369 12.3072 104.07 10.6164 104.07C8.8775 104.075 7.31513 104.353 5.92932 104.905Z"
                  fill="white"/>
        </mask>
        <g mask="url(#mask5_241_9255)">
            <path d="M19.3861 104.076H0.862305V128.212H19.3861V104.076Z" fill="black"/>
        </g>
        <path d="M21.7559 104.403V108.774H28.6795V127.897H34.3405V108.774H41.3926V104.403H21.7559Z" fill="black"/>
        <mask id="mask6_241_9255" style="mask-type:luminance" maskUnits="userSpaceOnUse" x="21" y="104" width="21"
              height="24">
            <path d="M21.7563 104.403V108.775H28.68V127.898H34.341V108.775H41.393V104.403H21.7563Z" fill="white"/>
        </mask>
        <g mask="url(#mask6_241_9255)">
            <path d="M41.393 104.403H21.7563V127.898H41.393V104.403Z" fill="black"/>
        </g>
        <path d="M51.9597 110.984L54.4906 119.133H49.4396L51.9597 110.984ZM49.3005 104.403L40.686 127.897H46.7376L48.0913 123.504H55.8496L57.2194 127.897H63.303L54.6243 104.403H49.3005Z"
              fill="black"/>
        <mask id="mask7_241_9255" style="mask-type:luminance" maskUnits="userSpaceOnUse" x="40" y="104" width="24"
              height="24">
            <path d="M51.9597 110.985L54.4906 119.134H49.4396L51.9597 110.985ZM49.3005 104.403L40.686 127.898H46.7376L48.0913 123.505H55.8496L57.2194 127.898H63.303L54.6243 104.403H49.3005Z"
                  fill="white"/>
        </mask>
        <g mask="url(#mask7_241_9255)">
            <path d="M63.303 104.403H40.6807V127.898H63.303V104.403Z" fill="black"/>
        </g>
        <path d="M71.3396 108.758H74.9245C75.9893 108.758 76.7972 109.047 77.343 109.625C77.8941 110.203 78.167 110.995 78.167 112.011C78.167 113.028 77.8995 113.815 77.3537 114.382C76.8079 114.949 76 115.232 74.9245 115.232H71.3396V108.758ZM65.6733 104.403V127.897H71.3343V119.588H74.4002L78.5469 127.897H84.6145V127.657L79.708 118.17C81.1152 117.506 82.1532 116.634 82.8113 115.559C83.4694 114.483 83.8065 113.13 83.8065 111.498C83.8065 109.24 83.02 107.495 81.4469 106.259C79.8792 105.023 77.6961 104.408 74.9138 104.408L65.6733 104.403Z"
              fill="black"/>
        <mask id="mask8_241_9255" style="mask-type:luminance" maskUnits="userSpaceOnUse" x="65" y="104" width="20"
              height="24">
            <path d="M71.3396 108.759H74.9245C75.9893 108.759 76.7972 109.048 77.343 109.626C77.8941 110.203 78.167 110.995 78.167 112.012C78.167 113.028 77.8995 113.815 77.3537 114.382C76.8079 114.949 76 115.233 74.9245 115.233H71.3396V108.759ZM65.6733 104.403V127.898H71.3343V119.588H74.4002L78.5469 127.898H84.6145V127.657L79.708 118.17C81.1152 117.507 82.1532 116.635 82.8113 115.559C83.4694 114.484 83.8065 113.13 83.8065 111.498C83.8065 109.24 83.02 107.496 81.4469 106.26C79.8792 105.024 77.6961 104.409 74.9138 104.409L65.6733 104.403Z"
                  fill="white"/>
        </mask>
        <g mask="url(#mask8_241_9255)">
            <path d="M84.6198 104.403H65.6733V127.898H84.6198V104.403Z" fill="black"/>
        </g>
        <path d="M108.788 104.403L106.097 119.133L102.817 104.403H98.0124L94.786 119.133L92.0893 104.403H86.4604L91.4633 127.897H97.3168L100.399 114.499L103.545 127.897H109.42L114.407 104.403H108.788Z"
              fill="black"/>
        <mask id="mask9_241_9255" style="mask-type:luminance" maskUnits="userSpaceOnUse" x="86" y="104" width="29"
              height="24">
            <path d="M108.788 104.403L106.097 119.134L102.817 104.403H98.0119L94.7855 119.134L92.0888 104.403H86.46L91.4628 127.898H97.3163L100.398 114.5L103.544 127.898H109.419L114.406 104.403H108.788Z"
                  fill="white"/>
        </mask>
        <g mask="url(#mask9_241_9255)">
            <path d="M114.406 104.403H86.46V127.898H114.406V104.403Z" fill="black"/>
        </g>
        <path d="M123.524 121.941C122.759 120.705 122.379 118.934 122.379 116.634L122.395 114.905C122.556 110.646 124.059 108.517 126.895 108.517C128.345 108.517 129.463 109.121 130.245 110.331C131.026 111.54 131.416 113.316 131.416 115.649V116.73C131.406 119.009 131.015 120.759 130.239 121.973C129.463 123.193 128.361 123.798 126.933 123.798C125.418 123.793 124.284 123.177 123.524 121.941ZM121.512 105.515C119.939 106.473 118.725 107.832 117.879 109.587C117.034 111.347 116.611 113.375 116.611 115.681V117.003C116.654 119.218 117.109 121.182 117.976 122.894C118.843 124.606 120.046 125.922 121.598 126.837C123.15 127.757 124.921 128.218 126.922 128.218C128.923 128.218 130.705 127.741 132.267 126.789C133.835 125.837 135.044 124.478 135.89 122.717C136.74 120.952 137.163 118.924 137.163 116.634V115.553C137.152 113.295 136.714 111.288 135.847 109.544C134.98 107.794 133.765 106.446 132.208 105.499C130.646 104.552 128.875 104.081 126.884 104.081C124.883 104.076 123.091 104.557 121.512 105.515Z"
              fill="black"/>
        <mask id="mask10_241_9255" style="mask-type:luminance" maskUnits="userSpaceOnUse" x="116" y="104" width="22"
              height="25">
            <path d="M123.524 121.94C122.759 120.704 122.379 118.933 122.379 116.633L122.395 114.904C122.556 110.645 124.059 108.516 126.895 108.516C128.345 108.516 129.463 109.12 130.245 110.33C131.026 111.539 131.416 113.315 131.416 115.648V116.729C131.406 119.008 131.015 120.758 130.239 121.973C129.463 123.192 128.361 123.797 126.933 123.797C125.418 123.792 124.284 123.176 123.524 121.94ZM121.512 105.514C119.939 106.472 118.725 107.831 117.879 109.586C117.034 111.346 116.611 113.374 116.611 115.68V117.002C116.654 119.217 117.109 121.181 117.976 122.893C118.843 124.605 120.046 125.921 121.598 126.836C123.15 127.757 124.921 128.217 126.922 128.217C128.923 128.217 130.705 127.74 132.267 126.788C133.835 125.836 135.044 124.477 135.89 122.716C136.74 120.951 137.163 118.923 137.163 116.633V115.552C137.152 113.294 136.714 111.287 135.847 109.543C134.98 107.793 133.765 106.445 132.208 105.498C130.646 104.551 128.875 104.08 126.884 104.08C124.883 104.075 123.091 104.556 121.512 105.514Z"
                  fill="white"/>
        </mask>
        <g mask="url(#mask10_241_9255)">
            <path d="M137.174 104.075H116.617V128.212H137.174V104.075Z" fill="black"/>
        </g>
        <path d="M146.419 108.758H149.999C151.064 108.758 151.871 109.047 152.423 109.625C152.968 110.203 153.247 110.995 153.247 112.011C153.247 113.028 152.974 113.815 152.433 114.382C151.893 114.949 151.08 115.232 150.004 115.232H146.425V108.758H146.419ZM140.753 104.403V127.897H146.414V119.588H149.48L153.626 127.897H159.694V127.657L154.788 118.17C156.2 117.506 157.233 116.634 157.891 115.559C158.554 114.483 158.881 113.13 158.881 111.498C158.881 109.24 158.094 107.495 156.526 106.259C154.953 105.023 152.776 104.408 149.988 104.408L140.753 104.403Z"
              fill="black"/>
        <mask id="mask11_241_9255" style="mask-type:luminance" maskUnits="userSpaceOnUse" x="140" y="104" width="20"
              height="24">
            <path d="M146.419 108.759H149.999C151.064 108.759 151.871 109.048 152.423 109.626C152.968 110.203 153.247 110.995 153.247 112.012C153.247 113.028 152.974 113.815 152.433 114.382C151.893 114.949 151.08 115.233 150.004 115.233H146.425V108.759H146.419ZM140.753 104.403V127.898H146.414V119.588H149.48L153.626 127.898H159.694V127.657L154.788 118.17C156.2 117.507 157.233 116.635 157.891 115.559C158.554 114.484 158.881 113.13 158.881 111.498C158.881 109.24 158.094 107.496 156.526 106.26C154.953 105.024 152.776 104.409 149.988 104.409L140.753 104.403Z"
                  fill="white"/>
        </mask>
        <g mask="url(#mask11_241_9255)">
            <path d="M159.694 104.403H140.753V127.898H159.694V104.403Z" fill="black"/>
        </g>
        <path d="M162.974 104.403V127.897H178.496V123.537H168.635V104.403H162.974Z" fill="black"/>
        <mask id="mask12_241_9255" style="mask-type:luminance" maskUnits="userSpaceOnUse" x="162" y="104" width="17"
              height="24">
            <path d="M162.975 104.403V127.898H178.497V123.537H168.636V104.403H162.975Z" fill="white"/>
        </mask>
        <g mask="url(#mask12_241_9255)">
            <path d="M178.497 104.403H162.975V127.898H178.497V104.403Z" fill="black"/>
        </g>
        <path d="M187.207 108.774H189.112C190.776 108.774 192.049 109.352 192.916 110.503C193.788 111.653 194.221 113.365 194.221 115.634V116.65C194.221 118.93 193.788 120.647 192.916 121.808C192.044 122.964 190.797 123.542 189.17 123.542H187.201L187.207 108.774ZM181.541 104.403V127.897H189.267C191.3 127.887 193.141 127.4 194.794 126.437C196.447 125.473 197.726 124.141 198.636 122.434C199.545 120.728 200 118.801 200 116.65V115.57C199.989 113.44 199.519 111.514 198.588 109.802C197.657 108.084 196.362 106.757 194.708 105.815C193.055 104.874 191.188 104.403 189.112 104.403H181.541Z"
              fill="black"/>
        <mask id="mask13_241_9255" style="mask-type:luminance" maskUnits="userSpaceOnUse" x="181" y="104" width="19"
              height="24">
            <path d="M187.207 108.775H189.112C190.776 108.775 192.049 109.353 192.916 110.503C193.788 111.653 194.221 113.366 194.221 115.634V116.651C194.221 118.93 193.788 120.648 192.916 121.809C192.044 122.965 190.797 123.542 189.17 123.542H187.201L187.207 108.775ZM181.541 104.403V127.898H189.267C191.3 127.887 193.141 127.4 194.794 126.437C196.447 125.474 197.726 124.142 198.636 122.435C199.545 120.728 200 118.802 200 116.651V115.57C199.989 113.44 199.519 111.514 198.588 109.802C197.657 108.085 196.362 106.758 194.708 105.816C193.055 104.874 191.188 104.403 189.112 104.403H181.541Z"
                  fill="white"/>
        </mask>
        <g mask="url(#mask13_241_9255)">
            <path d="M200 104.403H181.541V127.898H200V104.403Z" fill="black"/>
        </g>
        <path d="M5.06702 104.489C3.68121 105.045 2.60574 105.821 1.85131 106.811C1.09152 107.806 0.71163 108.956 0.71163 110.256C0.71163 112.873 2.23655 114.922 5.28104 116.42C6.2174 116.886 7.42128 117.362 8.89805 117.854C10.3695 118.347 11.4021 118.828 11.9853 119.294C12.5739 119.754 12.8628 120.401 12.8628 121.231C12.8628 121.964 12.59 122.531 12.0495 122.932C11.5091 123.333 10.7654 123.537 9.82905 123.537C8.36834 123.537 7.30892 123.237 6.66149 122.638C6.01407 122.038 5.68234 121.113 5.68234 119.855H0C0 121.402 0.390594 122.771 1.17178 123.959C1.95297 125.147 3.11405 126.084 4.66037 126.768C6.20134 127.453 7.92959 127.796 9.82905 127.796C12.5311 127.796 14.6553 127.212 16.2016 126.035C17.7533 124.864 18.5291 123.248 18.5291 121.193C18.5291 118.625 17.261 116.608 14.7195 115.142C13.6761 114.537 12.3438 113.975 10.7172 113.456C9.09067 112.937 7.95634 112.429 7.31427 111.937C6.66685 111.45 6.34581 110.899 6.34581 110.299C6.34581 109.609 6.64009 109.042 7.22331 108.598C7.80652 108.148 8.60911 107.929 9.62038 107.929C10.6316 107.929 11.4128 108.191 12.0014 108.721C12.59 109.251 12.8789 109.989 12.8789 110.947H18.5291C18.5291 109.513 18.1546 108.245 17.4162 107.132C16.6725 106.019 15.6344 105.163 14.2968 104.558C12.9591 103.953 11.4449 103.654 9.75414 103.654C8.0152 103.654 6.45282 103.932 5.06702 104.489Z"
              fill="url(#paint5_linear_241_9255)"/>
        <path d="M5.06702 104.489C3.68121 105.045 2.60574 105.821 1.85131 106.811C1.09152 107.806 0.71163 108.956 0.71163 110.256C0.71163 112.873 2.23655 114.922 5.28104 116.42C6.2174 116.886 7.42128 117.362 8.89805 117.854C10.3695 118.347 11.4021 118.828 11.9853 119.294C12.5739 119.754 12.8628 120.401 12.8628 121.231C12.8628 121.964 12.59 122.531 12.0495 122.932C11.5091 123.333 10.7654 123.537 9.82905 123.537C8.36834 123.537 7.30892 123.237 6.66149 122.638C6.01407 122.038 5.68234 121.113 5.68234 119.855H0C0 121.402 0.390594 122.771 1.17178 123.959C1.95297 125.147 3.11405 126.084 4.66037 126.768C6.20134 127.453 7.92959 127.796 9.82905 127.796C12.5311 127.796 14.6553 127.212 16.2016 126.035C17.7533 124.864 18.5291 123.248 18.5291 121.193C18.5291 118.625 17.261 116.608 14.7195 115.142C13.6761 114.537 12.3438 113.975 10.7172 113.456C9.09067 112.937 7.95634 112.429 7.31427 111.937C6.66685 111.45 6.34581 110.899 6.34581 110.299C6.34581 109.609 6.64009 109.042 7.22331 108.598C7.80652 108.148 8.60911 107.929 9.62038 107.929C10.6316 107.929 11.4128 108.191 12.0014 108.721C12.59 109.251 12.8789 109.989 12.8789 110.947H18.5291C18.5291 109.513 18.1546 108.245 17.4162 107.132C16.6725 106.019 15.6344 105.163 14.2968 104.558C12.9591 103.953 11.4449 103.654 9.75414 103.654C8.0152 103.654 6.45282 103.932 5.06702 104.489Z"
              fill="url(#paint6_linear_241_9255)"/>
        <mask id="mask14_241_9255" style="mask-type:luminance" maskUnits="userSpaceOnUse" x="0" y="103" width="19"
              height="25">
            <path d="M5.06702 104.489C3.68121 105.045 2.60574 105.821 1.85131 106.811C1.09152 107.806 0.71163 108.956 0.71163 110.256C0.71163 112.873 2.23655 114.922 5.28104 116.42C6.2174 116.886 7.42128 117.362 8.89805 117.854C10.3695 118.347 11.4021 118.828 11.9853 119.294C12.5739 119.754 12.8628 120.401 12.8628 121.231C12.8628 121.964 12.59 122.531 12.0495 122.932C11.5091 123.333 10.7654 123.537 9.82905 123.537C8.36834 123.537 7.30892 123.237 6.66149 122.638C6.01407 122.038 5.68234 121.113 5.68234 119.855H0C0 121.402 0.390594 122.771 1.17178 123.959C1.95297 125.147 3.11405 126.084 4.66037 126.768C6.20134 127.453 7.92959 127.796 9.82905 127.796C12.5311 127.796 14.6553 127.212 16.2016 126.035C17.7533 124.864 18.5291 123.248 18.5291 121.193C18.5291 118.625 17.261 116.608 14.7195 115.142C13.6761 114.537 12.3438 113.975 10.7172 113.456C9.09067 112.937 7.95634 112.429 7.31427 111.937C6.66685 111.45 6.34581 110.899 6.34581 110.299C6.34581 109.609 6.64009 109.042 7.22331 108.598C7.80652 108.148 8.60911 107.929 9.62038 107.929C10.6316 107.929 11.4128 108.191 12.0014 108.721C12.59 109.251 12.8789 109.989 12.8789 110.947H18.5291C18.5291 109.513 18.1546 108.245 17.4162 107.132C16.6725 106.019 15.6344 105.163 14.2968 104.558C12.9591 103.953 11.4449 103.654 9.75414 103.654C8.0152 103.654 6.45282 103.932 5.06702 104.489Z"
                  fill="white"/>
        </mask>
        <g mask="url(#mask14_241_9255)">
            <path d="M18.5238 103.654H0V127.79H18.5238V103.654Z" fill="url(#paint7_linear_241_9255)"/>
        </g>
        <path d="M20.894 103.981V108.352H27.8177V127.475H33.484V108.352H40.5307V103.981H20.894Z"
              fill="url(#paint8_linear_241_9255)"/>
        <path d="M20.894 103.981V108.353H27.8177V127.476H33.484V108.353H40.5307V103.981H20.894Z"
              fill="url(#paint9_linear_241_9255)"/>
        <mask id="mask15_241_9255" style="mask-type:luminance" maskUnits="userSpaceOnUse" x="20" y="103" width="21"
              height="25">
            <path d="M20.894 103.982V108.354H27.8177V127.477H33.484V108.354H40.5307V103.982H20.894Z" fill="white"/>
        </mask>
        <g mask="url(#mask15_241_9255)">
            <path d="M40.5307 103.982H20.894V127.477H40.5307V103.982Z" fill="url(#paint10_linear_241_9255)"/>
        </g>
        <path d="M51.1033 110.562L53.6341 118.711H48.5831L51.1033 110.562ZM48.4387 103.981L39.8242 127.475H45.8757L47.2294 123.083H54.9932L56.3629 127.475H62.4465L53.7679 103.981H48.4387Z"
              fill="url(#paint11_linear_241_9255)"/>
        <path d="M51.1033 110.563L53.6341 118.712H48.5831L51.1033 110.563ZM48.4387 103.981L39.8242 127.476H45.8757L47.2294 123.083H54.9932L56.3629 127.476H62.4465L53.7679 103.981H48.4387Z"
              fill="url(#paint12_linear_241_9255)"/>
        <mask id="mask16_241_9255" style="mask-type:luminance" maskUnits="userSpaceOnUse" x="39" y="103" width="24"
              height="25">
            <path d="M51.1028 110.564L53.6336 118.713H48.5827L51.1028 110.564ZM48.4382 103.982L39.8237 127.477H45.8753L47.229 123.084H54.9927L56.3624 127.477H62.4461L53.7674 103.982H48.4382Z"
                  fill="white"/>
        </mask>
        <g mask="url(#mask16_241_9255)">
            <path d="M62.4461 103.982H39.8237V127.477H62.4461V103.982Z" fill="url(#paint13_linear_241_9255)"/>
        </g>
        <path d="M70.4783 108.336H74.0632C75.128 108.336 75.9359 108.625 76.4817 109.203C77.0328 109.781 77.3057 110.573 77.3057 111.59C77.3057 112.606 77.0381 113.393 76.4924 113.96C75.9466 114.527 75.1387 114.811 74.0632 114.811H70.4783V108.336ZM64.8174 103.981V127.475H70.4783V119.166H73.5442L77.6909 127.475H83.7585V127.235L78.852 117.748C80.2592 117.085 81.2972 116.212 81.9553 115.137C82.6135 114.061 82.9506 112.708 82.9506 111.076C82.9506 108.818 82.164 107.074 80.5909 105.838C79.0232 104.602 76.8402 103.986 74.0579 103.986L64.8174 103.981Z"
              fill="url(#paint14_linear_241_9255)"/>
        <path d="M70.4778 108.337H74.0627C75.1275 108.337 75.9354 108.626 76.4812 109.204C77.0323 109.781 77.3052 110.573 77.3052 111.59C77.3052 112.607 77.0377 113.393 76.4919 113.96C75.9461 114.527 75.1382 114.811 74.0627 114.811H70.4778V108.337ZM64.8169 103.981V127.476H70.4778V119.166H73.5437L77.6904 127.476H83.758V127.235L78.8515 117.749C80.2587 117.085 81.2967 116.213 81.9549 115.137C82.613 114.062 82.9501 112.708 82.9501 111.076C82.9501 108.818 82.1635 107.074 80.5905 105.838C79.0227 104.602 76.8397 103.987 74.0574 103.987L64.8169 103.981Z"
              fill="url(#paint15_linear_241_9255)"/>
        <mask id="mask17_241_9255" style="mask-type:luminance" maskUnits="userSpaceOnUse" x="64" y="103" width="20"
              height="25">
            <path d="M70.4773 108.338H74.0622C75.127 108.338 75.9349 108.627 76.4807 109.205C77.0318 109.782 77.3047 110.574 77.3047 111.591C77.3047 112.608 77.0372 113.394 76.4914 113.961C75.9456 114.528 75.1377 114.812 74.0622 114.812H70.4773V108.338ZM64.8164 103.982V127.477H70.4773V119.167H73.5432L77.6899 127.477H83.7575V127.236L78.851 117.75C80.2582 117.086 81.2962 116.214 81.9544 115.138C82.6125 114.063 82.9496 112.709 82.9496 111.077C82.9496 108.819 82.163 107.075 80.59 105.839C79.0222 104.603 76.8392 103.988 74.0569 103.988L64.8164 103.982Z"
                  fill="white"/>
        </mask>
        <g mask="url(#mask17_241_9255)">
            <path d="M83.7629 103.982H64.8164V127.477H83.7629V103.982Z" fill="url(#paint16_linear_241_9255)"/>
        </g>
        <path d="M107.927 103.981L105.236 118.711L101.961 103.981H97.1511L93.9247 118.711L91.2279 103.981H85.5991L90.6019 127.475H96.4608L99.5374 114.078L102.689 127.475H108.559L113.545 103.981H107.927Z"
              fill="url(#paint17_linear_241_9255)"/>
        <path d="M107.928 103.981L105.236 118.712L101.962 103.981H97.1515L93.9251 118.712L91.2284 103.981H85.5996L90.6024 127.476H96.4613L99.5379 114.078L102.689 127.476H108.559L113.546 103.981H107.928Z"
              fill="url(#paint18_linear_241_9255)"/>
        <mask id="mask18_241_9255" style="mask-type:luminance" maskUnits="userSpaceOnUse" x="85" y="103" width="29"
              height="25">
            <path d="M107.928 103.982L105.237 118.713L101.962 103.982H97.152L93.9256 118.713L91.2289 103.982H85.6001L90.6029 127.477H96.4618L99.5384 114.079L102.69 127.477H108.56L113.546 103.982H107.928Z"
                  fill="white"/>
        </mask>
        <g mask="url(#mask18_241_9255)">
            <path d="M113.546 103.982H85.6001V127.477H113.546V103.982Z" fill="url(#paint19_linear_241_9255)"/>
        </g>
        <path d="M122.662 121.52C121.897 120.284 121.517 118.512 121.517 116.212L121.534 114.483C121.694 110.224 123.198 108.095 126.033 108.095C127.483 108.095 128.602 108.699 129.383 109.909C130.164 111.118 130.555 112.894 130.555 115.227V116.308C130.544 118.587 130.153 120.337 129.377 121.552C128.602 122.772 127.499 123.376 126.071 123.376C124.557 123.371 123.428 122.756 122.662 121.52ZM120.651 105.093C119.078 106.051 117.863 107.41 117.018 109.165C116.172 110.925 115.75 112.953 115.75 115.259V116.581C115.792 118.796 116.247 120.76 117.114 122.472C117.981 124.184 119.185 125.5 120.736 126.415C122.288 127.336 124.059 127.796 126.06 127.796C128.061 127.796 129.843 127.32 131.405 126.367C132.973 125.415 134.182 124.056 135.028 122.295C135.878 120.53 136.301 118.502 136.301 116.212V115.131C136.29 112.873 135.852 110.866 134.985 109.122C134.118 107.373 132.904 106.024 131.347 105.077C129.784 104.13 128.013 103.659 126.023 103.659C124.022 103.654 122.229 104.135 120.651 105.093Z"
              fill="url(#paint20_linear_241_9255)"/>
        <path d="M122.662 121.519C121.897 120.283 121.517 118.512 121.517 116.211L121.534 114.483C121.694 110.224 123.198 108.094 126.033 108.094C127.483 108.094 128.602 108.699 129.383 109.908C130.164 111.117 130.555 112.894 130.555 115.227V116.308C130.544 118.587 130.153 120.337 129.377 121.551C128.602 122.771 127.499 123.376 126.071 123.376C124.557 123.37 123.428 122.755 122.662 121.519ZM120.651 105.093C119.078 106.05 117.863 107.41 117.018 109.165C116.172 110.925 115.75 112.953 115.75 115.259V116.58C115.792 118.796 116.247 120.759 117.114 122.471C117.981 124.184 119.185 125.5 120.736 126.415C122.288 127.335 124.059 127.795 126.06 127.795C128.061 127.795 129.843 127.319 131.405 126.367C132.973 125.414 134.182 124.055 135.028 122.295C135.878 120.529 136.301 118.501 136.301 116.211V115.13C136.29 112.872 135.852 110.866 134.985 109.122C134.118 107.372 132.904 106.024 131.347 105.077C129.784 104.13 128.013 103.659 126.023 103.659C124.022 103.653 122.229 104.135 120.651 105.093Z"
              fill="url(#paint21_linear_241_9255)"/>
        <mask id="mask19_241_9255" style="mask-type:luminance" maskUnits="userSpaceOnUse" x="115" y="103" width="22"
              height="25">
            <path d="M122.662 121.519C121.897 120.283 121.517 118.512 121.517 116.211L121.534 114.483C121.694 110.223 123.198 108.094 126.033 108.094C127.483 108.094 128.602 108.699 129.383 109.908C130.164 111.117 130.555 112.893 130.555 115.226V116.307C130.544 118.586 130.153 120.336 129.377 121.551C128.602 122.771 127.499 123.375 126.071 123.375C124.557 123.37 123.428 122.755 122.662 121.519ZM120.651 105.092C119.078 106.05 117.863 107.409 117.018 109.164C116.172 110.924 115.75 112.952 115.75 115.258V116.58C115.792 118.795 116.247 120.759 117.114 122.471C117.981 124.183 119.185 125.499 120.736 126.414C122.288 127.335 124.059 127.795 126.06 127.795C128.061 127.795 129.843 127.319 131.405 126.366C132.973 125.414 134.182 124.055 135.028 122.294C135.878 120.529 136.301 118.501 136.301 116.211V115.13C136.29 112.872 135.852 110.866 134.985 109.121C134.118 107.372 132.904 106.023 131.347 105.076C129.784 104.129 128.013 103.658 126.023 103.658C124.022 103.653 122.229 104.134 120.651 105.092Z"
                  fill="white"/>
        </mask>
        <g mask="url(#mask19_241_9255)">
            <path d="M136.312 103.653H115.755V127.79H136.312V103.653Z" fill="url(#paint22_linear_241_9255)"/>
        </g>
        <path d="M145.557 108.336H149.137C150.202 108.336 151.01 108.625 151.561 109.203C152.107 109.781 152.385 110.573 152.385 111.59C152.385 112.606 152.112 113.393 151.571 113.96C151.031 114.527 150.218 114.811 149.142 114.811H145.563V108.336H145.557ZM139.896 103.981V127.475H145.557V119.166H148.623L152.77 127.475H158.838V127.235L153.931 117.748C155.344 117.085 156.376 116.212 157.034 115.137C157.698 114.061 158.024 112.708 158.024 111.076C158.024 108.818 157.238 107.074 155.67 105.838C154.097 104.602 151.919 103.986 149.132 103.986L139.896 103.981Z"
              fill="url(#paint23_linear_241_9255)"/>
        <path d="M145.557 108.337H149.137C150.202 108.337 151.01 108.626 151.561 109.204C152.107 109.781 152.385 110.573 152.385 111.59C152.385 112.607 152.112 113.393 151.571 113.96C151.031 114.527 150.218 114.811 149.142 114.811H145.563V108.337H145.557ZM139.896 103.981V127.476H145.557V119.166H148.623L152.77 127.476H158.838V127.235L153.931 117.749C155.344 117.085 156.376 116.213 157.034 115.137C157.698 114.062 158.024 112.708 158.024 111.076C158.024 108.818 157.238 107.074 155.67 105.838C154.097 104.602 151.919 103.987 149.132 103.987L139.896 103.981Z"
              fill="url(#paint24_linear_241_9255)"/>
        <mask id="mask20_241_9255" style="mask-type:luminance" maskUnits="userSpaceOnUse" x="139" y="103" width="20"
              height="25">
            <path d="M145.557 108.338H149.136C150.201 108.338 151.009 108.627 151.56 109.205C152.106 109.782 152.384 110.574 152.384 111.591C152.384 112.608 152.111 113.394 151.571 113.961C151.031 114.528 150.217 114.812 149.142 114.812H145.562V108.338H145.557ZM139.896 103.982V127.477H145.557V119.167H148.623L152.77 127.477H158.837V127.236L153.931 117.75C155.343 117.086 156.376 116.214 157.034 115.138C157.697 114.063 158.024 112.709 158.024 111.077C158.024 108.819 157.237 107.075 155.67 105.839C154.096 104.603 151.919 103.988 149.131 103.988L139.896 103.982Z"
                  fill="white"/>
        </mask>
        <g mask="url(#mask20_241_9255)">
            <path d="M158.837 103.982H139.896V127.477H158.837V103.982Z" fill="url(#paint25_linear_241_9255)"/>
        </g>
        <path d="M162.112 103.981V127.475H177.634V123.115H167.773V103.981H162.112Z"
              fill="url(#paint26_linear_241_9255)"/>
        <path d="M162.112 103.981V127.476H177.634V123.115H167.773V103.981H162.112Z"
              fill="url(#paint27_linear_241_9255)"/>
        <mask id="mask21_241_9255" style="mask-type:luminance" maskUnits="userSpaceOnUse" x="162" y="103" width="16"
              height="25">
            <path d="M162.112 103.982V127.477H177.634V123.116H167.773V103.982H162.112Z" fill="white"/>
        </mask>
        <g mask="url(#mask21_241_9255)">
            <path d="M177.634 103.982H162.112V127.477H177.634V103.982Z" fill="url(#paint28_linear_241_9255)"/>
        </g>
        <path d="M186.345 108.352H188.25C189.914 108.352 191.187 108.93 192.054 110.081C192.926 111.231 193.36 112.943 193.36 115.212V116.228C193.36 118.508 192.926 120.225 192.054 121.386C191.182 122.542 189.935 123.12 188.309 123.12H186.34L186.345 108.352ZM180.684 103.981V127.475H188.41C190.444 127.465 192.284 126.978 193.938 126.015C195.591 125.052 196.87 123.719 197.779 122.012C198.689 120.306 199.144 118.379 199.144 116.228V115.148C199.133 113.018 198.662 111.092 197.731 109.38C196.8 107.662 195.505 106.335 193.852 105.394C192.199 104.452 190.331 103.981 188.255 103.981H180.684Z"
              fill="url(#paint29_linear_241_9255)"/>
        <path d="M186.345 108.353H188.25C189.914 108.353 191.187 108.931 192.054 110.081C192.926 111.232 193.36 112.944 193.36 115.212V116.229C193.36 118.508 192.926 120.226 192.054 121.387C191.182 122.543 189.935 123.121 188.309 123.121H186.34L186.345 108.353ZM180.684 103.981V127.476H188.41C190.444 127.465 192.284 126.978 193.938 126.015C195.591 125.052 196.87 123.72 197.779 122.013C198.689 120.306 199.144 118.38 199.144 116.229V115.148C199.133 113.019 198.662 111.092 197.731 109.38C196.8 107.663 195.505 106.336 193.852 105.394C192.199 104.452 190.331 103.981 188.255 103.981H180.684Z"
              fill="url(#paint30_linear_241_9255)"/>
        <mask id="mask22_241_9255" style="mask-type:luminance" maskUnits="userSpaceOnUse" x="180" y="103" width="20"
              height="25">
            <path d="M186.345 108.354H188.249C189.913 108.354 191.187 108.932 192.054 110.082C192.926 111.232 193.359 112.945 193.359 115.213V116.23C193.359 118.509 192.926 120.227 192.054 121.388C191.181 122.544 189.935 123.122 188.308 123.122H186.339L186.345 108.354ZM180.684 103.982V127.477H188.41C190.443 127.466 192.284 126.979 193.937 126.016C195.59 125.053 196.869 123.721 197.779 122.014C198.688 120.307 199.143 118.381 199.143 116.23V115.149C199.132 113.02 198.662 111.093 197.731 109.381C196.8 107.664 195.505 106.337 193.851 105.395C192.198 104.453 190.331 103.982 188.255 103.982H180.684Z"
                  fill="white"/>
        </mask>
        <g mask="url(#mask22_241_9255)">
            <path d="M199.143 103.982H180.684V127.477H199.143V103.982Z" fill="url(#paint31_linear_241_9255)"/>
        </g>
        <path d="M51.0807 142.736H2.55615V144.582H51.0807V142.736Z" fill="white"/>
        <path d="M51.0807 142.736H2.55615V144.582H51.0807V142.736Z" fill="white"/>
        <path d="M51.0802 142.737H2.55566V144.583H51.0802V142.737Z" fill="white"/>
        <mask id="mask23_241_9255" style="mask-type:luminance" maskUnits="userSpaceOnUse" x="2" y="142" width="50"
              height="3">
            <path d="M51.0802 142.738H2.55566V144.584H51.0802V142.738Z" fill="white"/>
        </mask>
        <g mask="url(#mask23_241_9255)">
            <path d="M51.0802 142.738H2.55566V144.584H51.0802V142.738Z" fill="white"/>
        </g>
        <path d="M197.443 142.736H148.918V144.582H197.443V142.736Z" fill="white"/>
        <path d="M197.443 142.736H148.918V144.582H197.443V142.736Z" fill="white"/>
        <path d="M197.443 142.737H148.918V144.583H197.443V142.737Z" fill="white"/>
        <mask id="mask24_241_9255" style="mask-type:luminance" maskUnits="userSpaceOnUse" x="148" y="142" width="50"
              height="3">
            <path d="M197.443 142.738H148.918V144.584H197.443V142.738Z" fill="white"/>
        </mask>
        <g mask="url(#mask24_241_9255)">
            <path d="M197.443 142.738H148.918V144.584H197.443V142.738Z" fill="white"/>
        </g>
        <path d="M63.9419 143.592C63.9419 140.06 66.2212 137.438 69.9239 137.438C71.5986 137.438 73.3536 138.065 74.6056 139.413L73.1717 140.665C72.3423 139.852 71.2615 139.365 69.9078 139.365C67.7462 139.365 66.0714 140.986 66.0714 143.592C66.0714 145.994 67.591 147.819 69.9934 147.819C70.9565 147.819 71.8501 147.567 72.6634 147.027V144.999H69.7205V143.174H74.6912V148.177C73.5944 149.092 71.834 149.681 69.9934 149.681C66.5476 149.675 63.9419 147.391 63.9419 143.592Z"
              fill="white"/>
        <path d="M80.6733 137.572H85.1036C87.9609 137.572 89.2129 139.226 89.2129 141.457C89.2129 143.335 88.2979 144.582 86.5429 145.09L89.6516 149.568H87.2011L84.3278 145.293H82.7226V149.568H80.6787L80.6733 137.572ZM84.6595 143.453C86.2968 143.453 87.0941 142.607 87.0941 141.425C87.0941 140.157 86.2647 139.397 84.7986 139.397H82.7226V143.453H84.6595Z"
              fill="white"/>
        <path d="M94.21 143.57C94.21 140.039 96.6766 137.438 100.278 137.438C103.878 137.438 106.329 139.905 106.329 143.57C106.329 147.235 103.745 149.702 100.278 149.702C96.6766 149.707 94.21 147.102 94.21 143.57ZM104.194 143.57C104.194 141.104 102.487 139.343 100.272 139.343C97.9233 139.343 96.3181 141.221 96.3181 143.57C96.3181 145.919 97.9233 147.797 100.272 147.797C102.487 147.797 104.194 146.021 104.194 143.57Z"
              fill="white"/>
        <path d="M111.921 144.635V137.572H113.949V144.485C113.949 146.395 114.96 147.781 116.688 147.781C118.293 147.781 119.444 146.545 119.444 144.485V137.572H121.488V144.635C121.488 147.744 119.679 149.707 116.688 149.707C113.847 149.707 111.921 147.861 111.921 144.635Z"
              fill="white"/>
        <path d="M127.604 137.572H131.948C134.821 137.572 136.057 139.226 136.057 141.457C136.057 144.057 134.297 145.293 131.713 145.293H129.653V149.568H127.609V137.572H127.604ZM131.504 143.453C133.179 143.453 133.939 142.607 133.939 141.425C133.939 140.157 133.125 139.397 131.659 139.397H129.647V143.453H131.504Z"
              fill="white"/>
    </g>
    <defs>
        <linearGradient id="paint0_linear_241_9255" x1="117.969" y1="74.8487" x2="101.329" y2="52.0294"
                        gradientUnits="userSpaceOnUse">
            <stop stop-color="#FFDD00"/>
            <stop offset="0.18" stop-color="#F3CB0C"/>
            <stop offset="0.46" stop-color="#E5B51B"/>
            <stop offset="0.74" stop-color="#DCA924"/>
            <stop offset="0.99" stop-color="#DAA528"/>
            <stop offset="1" stop-color="#DAA528"/>
        </linearGradient>
        <linearGradient id="paint1_linear_241_9255" x1="81.5704" y1="76.4598" x2="99.8775" y2="49.1129"
                        gradientUnits="userSpaceOnUse">
            <stop stop-color="#FFDD00"/>
            <stop offset="0.18" stop-color="#F3CB0C"/>
            <stop offset="0.46" stop-color="#E5B51B"/>
            <stop offset="0.74" stop-color="#DCA924"/>
            <stop offset="0.99" stop-color="#DAA528"/>
            <stop offset="1" stop-color="#DAA528"/>
        </linearGradient>
        <linearGradient id="paint2_linear_241_9255" x1="132.295" y1="40.3114" x2="102.443" y2="51"
                        gradientUnits="userSpaceOnUse">
            <stop stop-color="#FFDD00"/>
            <stop offset="0.18" stop-color="#F3CB0C"/>
            <stop offset="0.46" stop-color="#E5B51B"/>
            <stop offset="0.74" stop-color="#DCA924"/>
            <stop offset="1" stop-color="#DAA528"/>
        </linearGradient>
        <linearGradient id="paint3_linear_241_9255" x1="96.2191" y1="19.4981" x2="96.2191" y2="46.5313"
                        gradientUnits="userSpaceOnUse">
            <stop stop-color="#FFDD00"/>
            <stop offset="0.18" stop-color="#F3CB0C"/>
            <stop offset="0.46" stop-color="#E5B51B"/>
            <stop offset="0.74" stop-color="#DCA924"/>
            <stop offset="0.99" stop-color="#DAA528"/>
            <stop offset="1" stop-color="#DAA528"/>
        </linearGradient>
        <linearGradient id="paint4_linear_241_9255" x1="68.1726" y1="40.8502" x2="98.8662" y2="50.7049"
                        gradientUnits="userSpaceOnUse">
            <stop stop-color="#FFDD00"/>
            <stop offset="0.18" stop-color="#F3CB0C"/>
            <stop offset="0.46" stop-color="#E5B51B"/>
            <stop offset="0.74" stop-color="#DCA924"/>
            <stop offset="0.99" stop-color="#DAA528"/>
            <stop offset="1" stop-color="#DAA528"/>
        </linearGradient>
        <linearGradient id="paint5_linear_241_9255" x1="9.26456" y1="127.796" x2="9.26456" y2="103.654"
                        gradientUnits="userSpaceOnUse">
            <stop stop-color="#FFDE00"/>
            <stop offset="1" stop-color="#E5BA50"/>
        </linearGradient>
        <linearGradient id="paint6_linear_241_9255" x1="9.26456" y1="127.796" x2="9.26456" y2="103.654"
                        gradientUnits="userSpaceOnUse">
            <stop stop-color="#FFDE00"/>
            <stop offset="1" stop-color="#E5BA50"/>
        </linearGradient>
        <linearGradient id="paint7_linear_241_9255" x1="9.26189" y1="127.791" x2="9.26189" y2="103.654"
                        gradientUnits="userSpaceOnUse">
            <stop stop-color="#FFDE00"/>
            <stop offset="1" stop-color="#E5BA50"/>
        </linearGradient>
        <linearGradient id="paint8_linear_241_9255" x1="30.7124" y1="127.475" x2="30.7124" y2="103.981"
                        gradientUnits="userSpaceOnUse">
            <stop stop-color="#FFDE00"/>
            <stop offset="1" stop-color="#E5BA50"/>
        </linearGradient>
        <linearGradient id="paint9_linear_241_9255" x1="30.7124" y1="127.476" x2="30.7124" y2="103.982"
                        gradientUnits="userSpaceOnUse">
            <stop stop-color="#FFDE00"/>
            <stop offset="1" stop-color="#E5BA50"/>
        </linearGradient>
        <linearGradient id="paint10_linear_241_9255" x1="30.7124" y1="127.477" x2="30.7124" y2="103.983"
                        gradientUnits="userSpaceOnUse">
            <stop stop-color="#FFDE00"/>
            <stop offset="1" stop-color="#E5BA50"/>
        </linearGradient>
        <linearGradient id="paint11_linear_241_9255" x1="51.1354" y1="127.476" x2="51.1354" y2="103.981"
                        gradientUnits="userSpaceOnUse">
            <stop stop-color="#FFDE00"/>
            <stop offset="1" stop-color="#E5BA50"/>
        </linearGradient>
        <linearGradient id="paint12_linear_241_9255" x1="51.1354" y1="127.476" x2="51.1354" y2="103.982"
                        gradientUnits="userSpaceOnUse">
            <stop stop-color="#FFDE00"/>
            <stop offset="1" stop-color="#E5BA50"/>
        </linearGradient>
        <linearGradient id="paint13_linear_241_9255" x1="51.1349" y1="127.477" x2="51.1349" y2="103.983"
                        gradientUnits="userSpaceOnUse">
            <stop stop-color="#FFDE00"/>
            <stop offset="1" stop-color="#E5BA50"/>
        </linearGradient>
        <linearGradient id="paint14_linear_241_9255" x1="74.2879" y1="127.476" x2="74.2879" y2="103.981"
                        gradientUnits="userSpaceOnUse">
            <stop stop-color="#FFDE00"/>
            <stop offset="1" stop-color="#E5BA50"/>
        </linearGradient>
        <linearGradient id="paint15_linear_241_9255" x1="74.2875" y1="127.476" x2="74.2875" y2="103.982"
                        gradientUnits="userSpaceOnUse">
            <stop stop-color="#FFDE00"/>
            <stop offset="1" stop-color="#E5BA50"/>
        </linearGradient>
        <linearGradient id="paint16_linear_241_9255" x1="74.2896" y1="127.477" x2="74.2896" y2="103.983"
                        gradientUnits="userSpaceOnUse">
            <stop stop-color="#FFDE00"/>
            <stop offset="1" stop-color="#E5BA50"/>
        </linearGradient>
        <linearGradient id="paint17_linear_241_9255" x1="99.5722" y1="127.475" x2="99.5722" y2="103.981"
                        gradientUnits="userSpaceOnUse">
            <stop stop-color="#FFDE00"/>
            <stop offset="1" stop-color="#E5BA50"/>
        </linearGradient>
        <linearGradient id="paint18_linear_241_9255" x1="99.5727" y1="127.476" x2="99.5727" y2="103.982"
                        gradientUnits="userSpaceOnUse">
            <stop stop-color="#FFDE00"/>
            <stop offset="1" stop-color="#E5BA50"/>
        </linearGradient>
        <linearGradient id="paint19_linear_241_9255" x1="99.5732" y1="127.477" x2="99.5732" y2="103.983"
                        gradientUnits="userSpaceOnUse">
            <stop stop-color="#FFDE00"/>
            <stop offset="1" stop-color="#E5BA50"/>
        </linearGradient>
        <linearGradient id="paint20_linear_241_9255" x1="126.025" y1="127.796" x2="126.025" y2="103.659"
                        gradientUnits="userSpaceOnUse">
            <stop stop-color="#FFDE00"/>
            <stop offset="1" stop-color="#E5BA50"/>
        </linearGradient>
        <linearGradient id="paint21_linear_241_9255" x1="126.025" y1="127.795" x2="126.025" y2="103.659"
                        gradientUnits="userSpaceOnUse">
            <stop stop-color="#FFDE00"/>
            <stop offset="1" stop-color="#E5BA50"/>
        </linearGradient>
        <linearGradient id="paint22_linear_241_9255" x1="126.033" y1="127.79" x2="126.033" y2="103.653"
                        gradientUnits="userSpaceOnUse">
            <stop stop-color="#FFDE00"/>
            <stop offset="1" stop-color="#E5BA50"/>
        </linearGradient>
        <linearGradient id="paint23_linear_241_9255" x1="149.367" y1="127.476" x2="149.367" y2="103.981"
                        gradientUnits="userSpaceOnUse">
            <stop stop-color="#FFDE00"/>
            <stop offset="1" stop-color="#E5BA50"/>
        </linearGradient>
        <linearGradient id="paint24_linear_241_9255" x1="149.367" y1="127.476" x2="149.367" y2="103.982"
                        gradientUnits="userSpaceOnUse">
            <stop stop-color="#FFDE00"/>
            <stop offset="1" stop-color="#E5BA50"/>
        </linearGradient>
        <linearGradient id="paint25_linear_241_9255" x1="149.367" y1="127.477" x2="149.367" y2="103.983"
                        gradientUnits="userSpaceOnUse">
            <stop stop-color="#FFDE00"/>
            <stop offset="1" stop-color="#E5BA50"/>
        </linearGradient>
        <linearGradient id="paint26_linear_241_9255" x1="169.873" y1="127.475" x2="169.873" y2="103.981"
                        gradientUnits="userSpaceOnUse">
            <stop stop-color="#FFDE00"/>
            <stop offset="1" stop-color="#E5BA50"/>
        </linearGradient>
        <linearGradient id="paint27_linear_241_9255" x1="169.873" y1="127.476" x2="169.873" y2="103.982"
                        gradientUnits="userSpaceOnUse">
            <stop stop-color="#FFDE00"/>
            <stop offset="1" stop-color="#E5BA50"/>
        </linearGradient>
        <linearGradient id="paint28_linear_241_9255" x1="169.873" y1="127.477" x2="169.873" y2="103.983"
                        gradientUnits="userSpaceOnUse">
            <stop stop-color="#FFDE00"/>
            <stop offset="1" stop-color="#E5BA50"/>
        </linearGradient>
        <linearGradient id="paint29_linear_241_9255" x1="189.914" y1="127.476" x2="189.914" y2="103.981"
                        gradientUnits="userSpaceOnUse">
            <stop stop-color="#FFDE00"/>
            <stop offset="1" stop-color="#E5BA50"/>
        </linearGradient>
        <linearGradient id="paint30_linear_241_9255" x1="189.914" y1="127.476" x2="189.914" y2="103.982"
                        gradientUnits="userSpaceOnUse">
            <stop stop-color="#FFDE00"/>
            <stop offset="1" stop-color="#E5BA50"/>
        </linearGradient>
        <linearGradient id="paint31_linear_241_9255" x1="189.913" y1="127.477" x2="189.913" y2="103.983"
                        gradientUnits="userSpaceOnUse">
            <stop stop-color="#FFDE00"/>
            <stop offset="1" stop-color="#E5BA50"/>
        </linearGradient>
        <clipPath id="clip0_241_9255">
            <rect width="200" height="149.413" fill="white" transform="translate(0 0.293457)"/>
        </clipPath>
    </defs>
</svg>
