<svg width="184" height="56" viewBox="0 0 184 56" fill="none" xmlns="http://www.w3.org/2000/svg">
    <path d="M28.0002 56C12.5608 56 0 43.4395 0 28.0005C0 12.5614 12.5608 0 28.0002 0C43.4395 0 56.0003 12.5611 56.0003 28.0005C56.0003 43.4399 43.4399 56 28.0002 56Z"
          fill="black"/>
    <path d="M46.1602 23.0919L32.5918 22.7095L28.0999 29.2855L46.1602 23.0919Z" fill="#FFDD00"/>
    <path d="M28.0999 29.286L32.5919 22.7096H32.5909L28.0193 10.2554V29.3135L28.0999 29.286Z" fill="#FFDD00"/>
    <path d="M28.0576 29.3477L28.0237 29.3976L39.1768 45.7416L39.1804 45.7438L35.7335 31.9565L28.0576 29.3477Z"
          fill="#FFDD00"/>
    <mask id="mask0_302_493" style="mask-type:luminance" maskUnits="userSpaceOnUse" x="28" y="29" width="12"
          height="17">
        <path d="M28.0193 29.3879V38.1828L39.1769 45.7261L28.0234 29.3818L28.0193 29.3879Z" fill="white"/>
    </mask>
    <g mask="url(#mask0_302_493)">
        <path d="M35.3038 24.0704L20.2385 35.0562L31.8928 51.0382L46.9581 40.0524L35.3038 24.0704Z"
              fill="url(#paint0_linear_302_493)"/>
    </g>
    <mask id="mask1_302_493" style="mask-type:luminance" maskUnits="userSpaceOnUse" x="16" y="29" width="13"
          height="17">
        <path d="M16.8592 45.7259L16.8589 45.7282L28.0194 38.1825V29.3883V29.3877L16.8592 45.7259Z" fill="white"/>
    </mask>
    <g mask="url(#mask1_302_493)">
        <path d="M20.3126 24.2291L9.30518 40.6719L24.5657 50.8879L35.5731 34.4452L20.3126 24.2291Z"
              fill="url(#paint1_linear_302_493)"/>
    </g>
    <mask id="mask2_302_493" style="mask-type:luminance" maskUnits="userSpaceOnUse" x="28" y="23" width="19" height="9">
        <path d="M28.1002 29.2707L28.0576 29.3324L35.7335 31.9416L46.3692 23.0827L46.1603 23.0767L28.1002 29.2707Z"
              fill="white"/>
    </mask>
    <g mask="url(#mask2_302_493)">
        <path d="M44.2883 17.2651L25.2439 24.084L30.1381 37.753L49.1825 30.9341L44.2883 17.2651Z"
              fill="url(#paint2_linear_302_493)"/>
    </g>
    <path d="M28.0196 29.391L27.9764 29.3276L20.3048 31.9589L16.8591 45.7417L28.0196 29.4035V29.391Z" fill="#FFDD00"/>
    <mask id="mask3_302_493" style="mask-type:luminance" maskUnits="userSpaceOnUse" x="23" y="10" width="6" height="20">
        <path d="M23.4519 22.6829L27.9695 29.3022L27.9884 29.3086L28.0194 29.2977V10.2402L23.4519 22.6829Z"
              fill="white"/>
    </mask>
    <g mask="url(#mask3_302_493)">
        <path d="M28.0194 10.2402H23.4519V29.3086H28.0194V10.2402Z" fill="url(#paint3_linear_302_493)"/>
    </g>
    <path d="M23.4522 22.6982L23.448 22.7098L9.66968 23.0979L27.9694 29.3175L23.4522 22.6982Z" fill="#FFDD00"/>
    <mask id="mask4_302_493" style="mask-type:luminance" maskUnits="userSpaceOnUse" x="9" y="23" width="19" height="9">
        <path d="M20.3053 31.9414L20.3044 31.9439L27.9767 29.3127L27.9693 29.3021L9.66992 23.0825L20.3053 31.9414Z"
              fill="white"/>
    </mask>
    <g mask="url(#mask4_302_493)">
        <path d="M11.3805 17.7537L7.09058 31.1152L26.2658 37.2717L30.5558 23.9102L11.3805 17.7537Z"
              fill="url(#paint4_linear_302_493)"/>
    </g>
    <path d="M50.4281 27.9997C50.4281 16.5208 41.5795 6.80023 30.2065 5.68604V6.90839C40.8912 8.01714 49.2106 17.2136 49.2106 27.9997C49.2106 38.7858 41.1136 47.9112 30.3185 49.0795V50.3009C41.6288 49.1358 50.4285 39.421 50.4285 27.9997"
          fill="#FFDD00"/>
    <path d="M5.573 27.9997C5.573 39.6866 14.5966 49.4254 26.1923 50.3505V49.1278C15.2833 48.205 6.79023 38.9935 6.79023 27.9997C6.79023 17.0059 15.2836 7.79412 26.1923 6.87128V5.64893C14.5966 6.57337 5.573 16.3128 5.573 27.9997Z"
          fill="#FFDD00"/>
    <path d="M28.0002 54.2182C13.5432 54.2182 1.7814 42.4568 1.7814 27.9998C1.7814 13.5428 13.5432 1.78067 28.0002 1.78067C42.4572 1.78067 54.219 13.5428 54.219 27.9998C54.219 42.4568 42.4575 54.2182 28.0002 54.2182ZM28.0002 0.589355C12.8862 0.589355 0.590088 12.8855 0.590088 28.0001C0.590088 43.1147 12.8862 55.4105 28.0002 55.4105C43.1141 55.4105 55.4113 43.1144 55.4113 28.0001C55.4113 12.8858 43.1141 0.589355 28.0002 0.589355Z"
          fill="#FFDD00"/>
    <path d="M28.6762 4.02148H27.7104V8.09268H28.6762V4.02148Z" fill="#FFDD00"/>
    <path d="M28.6644 43.8765H27.699V53.4418H28.6644V43.8765Z" fill="#FFDD00"/>
    <path d="M52.4598 26.9165C51.9645 26.9165 51.5623 27.319 51.5623 27.8141C51.5623 28.3091 51.9645 28.712 52.4598 28.712C52.9552 28.712 53.3574 28.3094 53.3574 27.8141C53.3574 27.3187 52.9545 26.9165 52.4598 26.9165Z"
          fill="#FFDD00"/>
    <path d="M3.76197 26.9165C3.26663 26.9165 2.86377 27.319 2.86377 27.8141C2.86377 28.3091 3.26663 28.712 3.76197 28.712C4.25731 28.712 4.65954 28.3094 4.65954 27.8141C4.65954 27.3187 4.25699 26.9165 3.76197 26.9165Z"
          fill="#FFDD00"/>
    <path d="M67.5573 14.9354C66.7258 15.2693 66.0805 15.7348 65.6279 16.3287C65.172 16.9258 64.9441 17.6161 64.9441 18.3962C64.9441 19.966 65.859 21.1956 67.6857 22.0945C68.2475 22.3738 68.9699 22.6596 69.8559 22.9549C70.7388 23.2503 71.3584 23.5392 71.7083 23.8185C72.0615 24.0946 72.2348 24.4831 72.2348 24.9807C72.2348 25.4205 72.0711 25.7608 71.7469 26.0016C71.4226 26.2423 70.9764 26.3643 70.4146 26.3643C69.5381 26.3643 68.9025 26.1846 68.514 25.825C68.1256 25.4654 67.9265 24.91 67.9265 24.1556H64.5171C64.5171 25.0834 64.7514 25.9052 65.217 26.618C65.6857 27.3307 66.3823 27.8925 67.3101 28.3034C68.2347 28.7143 69.2717 28.9198 70.4146 28.9198C72.0358 28.9198 73.3103 28.5699 74.2381 27.8636C75.1691 27.1605 75.6346 26.191 75.6346 24.9582C75.6346 23.4172 74.8738 22.2069 73.3488 21.3272C72.7228 20.9645 71.9234 20.6274 70.9475 20.316C69.9715 20.0046 69.2909 19.6996 68.9057 19.4042C68.5172 19.1121 68.3246 18.7814 68.3246 18.4219C68.3246 18.0077 68.5012 17.6674 68.8511 17.401C69.201 17.1313 69.6826 16.9997 70.2893 16.9997C70.8961 16.9997 71.3648 17.157 71.718 17.4748C72.0711 17.7926 72.2445 18.2357 72.2445 18.8103H75.6346C75.6346 17.9499 75.4099 17.1891 74.9669 16.5213C74.5206 15.8536 73.8978 15.3399 73.0952 14.9771C72.2926 14.6143 71.3841 14.4346 70.3696 14.4346C69.3262 14.4378 68.3888 14.6047 67.5573 14.9354Z"
          fill="black"/>
    <mask id="mask5_302_493" style="mask-type:luminance" maskUnits="userSpaceOnUse" x="64" y="14" width="12"
          height="15">
        <path d="M67.5573 14.9354C66.7258 15.2693 66.0805 15.7348 65.6279 16.3287C65.172 16.9258 64.9441 17.6161 64.9441 18.3962C64.9441 19.966 65.859 21.1956 67.6857 22.0945C68.2475 22.3738 68.9699 22.6596 69.8559 22.9549C70.7388 23.2503 71.3584 23.5392 71.7083 23.8185C72.0615 24.0946 72.2348 24.4831 72.2348 24.9807C72.2348 25.4205 72.0711 25.7608 71.7469 26.0016C71.4226 26.2423 70.9764 26.3643 70.4146 26.3643C69.5381 26.3643 68.9025 26.1846 68.514 25.825C68.1256 25.4654 67.9265 24.91 67.9265 24.1556H64.5171C64.5171 25.0834 64.7514 25.9052 65.217 26.618C65.6857 27.3307 66.3823 27.8925 67.3101 28.3034C68.2347 28.7143 69.2717 28.9198 70.4146 28.9198C72.0358 28.9198 73.3103 28.5699 74.2381 27.8636C75.1691 27.1605 75.6346 26.191 75.6346 24.9582C75.6346 23.4172 74.8738 22.2069 73.3488 21.3272C72.7228 20.9645 71.9234 20.6274 70.9475 20.316C69.9715 20.0046 69.2909 19.6996 68.9057 19.4042C68.5172 19.1121 68.3246 18.7814 68.3246 18.4219C68.3246 18.0077 68.5012 17.6674 68.8511 17.401C69.201 17.1313 69.6826 16.9997 70.2893 16.9997C70.8961 16.9997 71.3648 17.157 71.718 17.4748C72.0711 17.7926 72.2445 18.2357 72.2445 18.8103H75.6346C75.6346 17.9499 75.4099 17.1891 74.9669 16.5213C74.5206 15.8536 73.8978 15.3399 73.0952 14.9771C72.2926 14.6143 71.3841 14.4346 70.3696 14.4346C69.3262 14.4378 68.3888 14.6047 67.5573 14.9354Z"
              fill="white"/>
    </mask>
    <g mask="url(#mask5_302_493)">
        <path d="M75.6314 14.438H64.5171V28.92H75.6314V14.438Z" fill="black"/>
    </g>
    <path d="M77.0537 14.6338V17.2567H81.2079V28.7306H84.6045V17.2567H88.8358V14.6338H77.0537Z" fill="black"/>
    <mask id="mask6_302_493" style="mask-type:luminance" maskUnits="userSpaceOnUse" x="77" y="14" width="12"
          height="15">
        <path d="M77.0537 14.6338V17.2567H81.2079V28.7306H84.6045V17.2567H88.8358V14.6338H77.0537Z" fill="white"/>
    </mask>
    <g mask="url(#mask6_302_493)">
        <path d="M88.8358 14.6338H77.0537V28.7306H88.8358V14.6338Z" fill="black"/>
    </g>
    <path d="M95.1761 18.5826L96.6946 23.472H93.664L95.1761 18.5826ZM93.5806 14.6338L88.4119 28.7306H92.0428L92.855 26.0948H97.5101L98.3319 28.7306H101.982L96.7749 14.6338H93.5806Z"
          fill="black"/>
    <mask id="mask7_302_493" style="mask-type:luminance" maskUnits="userSpaceOnUse" x="88" y="14" width="14"
          height="15">
        <path d="M95.1761 18.5826L96.6946 23.472H93.664L95.1761 18.5826ZM93.5806 14.6338L88.4119 28.7306H92.0428L92.855 26.0948H97.5101L98.3319 28.7306H101.982L96.7749 14.6338H93.5806Z"
              fill="white"/>
    </mask>
    <g mask="url(#mask7_302_493)">
        <path d="M101.982 14.6338H88.4087V28.7306H101.982V14.6338Z" fill="black"/>
    </g>
    <path d="M106.804 17.247H108.955C109.594 17.247 110.079 17.4204 110.406 17.7671C110.737 18.1138 110.901 18.589 110.901 19.1989C110.901 19.8089 110.74 20.2808 110.413 20.6211C110.085 20.9614 109.6 21.1316 108.955 21.1316H106.804V17.247ZM103.404 14.6338V28.7306H106.801V23.7448H108.64L111.128 28.7306H114.769V28.5861L111.825 22.8941C112.669 22.496 113.292 21.9727 113.687 21.3274C114.082 20.6821 114.284 19.8699 114.284 18.8908C114.284 17.536 113.812 16.4894 112.868 15.7478C111.928 15.0062 110.618 14.637 108.949 14.637L103.404 14.6338Z"
          fill="black"/>
    <mask id="mask8_302_493" style="mask-type:luminance" maskUnits="userSpaceOnUse" x="103" y="14" width="12"
          height="15">
        <path d="M106.804 17.247H108.955C109.594 17.247 110.079 17.4204 110.406 17.7671C110.737 18.1138 110.901 18.589 110.901 19.1989C110.901 19.8089 110.74 20.2808 110.413 20.6211C110.085 20.9614 109.6 21.1316 108.955 21.1316H106.804V17.247ZM103.404 14.6338V28.7306H106.801V23.7448H108.64L111.128 28.7306H114.769V28.5861L111.825 22.8941C112.669 22.496 113.292 21.9727 113.687 21.3274C114.082 20.6821 114.284 19.8699 114.284 18.8908C114.284 17.536 113.812 16.4894 112.868 15.7478C111.928 15.0062 110.618 14.637 108.949 14.637L103.404 14.6338Z"
              fill="white"/>
    </mask>
    <g mask="url(#mask8_302_493)">
        <path d="M114.772 14.6338H103.404V28.7306H114.772V14.6338Z" fill="black"/>
    </g>
    <path d="M129.274 14.6338L127.659 23.472L125.691 14.6338H122.808L120.872 23.472L119.254 14.6338H115.877L118.878 28.7306H122.391L124.24 20.6918L126.127 28.7306H129.652L132.645 14.6338H129.274Z"
          fill="black"/>
    <mask id="mask9_302_493" style="mask-type:luminance" maskUnits="userSpaceOnUse" x="115" y="14" width="18"
          height="15">
        <path d="M129.274 14.6338L127.659 23.472L125.691 14.6338H122.808L120.872 23.472L119.254 14.6338H115.877L118.878 28.7306H122.391L124.24 20.6918L126.127 28.7306H129.652L132.645 14.6338H129.274Z"
              fill="white"/>
    </mask>
    <g mask="url(#mask9_302_493)">
        <path d="M132.645 14.6338H115.877V28.7306H132.645V14.6338Z" fill="black"/>
    </g>
    <path d="M138.115 25.1572C137.656 24.4156 137.428 23.353 137.428 21.9725L137.437 20.9355C137.534 18.3801 138.436 17.1023 140.137 17.1023C141.007 17.1023 141.678 17.4651 142.147 18.1907C142.616 18.9162 142.85 19.9821 142.85 21.3818V22.0303C142.844 23.3979 142.609 24.4477 142.144 25.1764C141.678 25.9084 141.017 26.2712 140.16 26.2712C139.251 26.268 138.571 25.8988 138.115 25.1572ZM136.908 15.3013C135.964 15.876 135.235 16.6914 134.728 17.7444C134.221 18.8006 133.967 20.0174 133.967 21.401V22.194C133.993 23.5231 134.266 24.7013 134.786 25.7286C135.306 26.756 136.028 27.5457 136.959 28.0947C137.89 28.6469 138.953 28.923 140.153 28.923C141.354 28.923 142.423 28.6372 143.361 28.0658C144.301 27.4943 145.027 26.6789 145.534 25.6227C146.044 24.5633 146.298 23.3465 146.298 21.9725V21.324C146.292 19.9692 146.028 18.7653 145.508 17.7187C144.988 16.6689 144.26 15.8599 143.325 15.2917C142.388 14.7235 141.325 14.4409 140.131 14.4409C138.93 14.4377 137.855 14.7267 136.908 15.3013Z"
          fill="black"/>
    <mask id="mask10_302_493" style="mask-type:luminance" maskUnits="userSpaceOnUse" x="133" y="14" width="14"
          height="15">
        <path d="M138.115 25.1572C137.656 24.4156 137.428 23.353 137.428 21.9725L137.437 20.9355C137.534 18.3801 138.436 17.1023 140.137 17.1023C141.007 17.1023 141.678 17.4651 142.147 18.1907C142.616 18.9162 142.85 19.9821 142.85 21.3818V22.0303C142.844 23.3979 142.609 24.4477 142.144 25.1764C141.678 25.9084 141.017 26.2712 140.16 26.2712C139.251 26.268 138.571 25.8988 138.115 25.1572ZM136.908 15.3013C135.964 15.876 135.235 16.6914 134.728 17.7444C134.221 18.8006 133.967 20.0174 133.967 21.401V22.194C133.993 23.5231 134.266 24.7013 134.786 25.7286C135.306 26.756 136.028 27.5457 136.959 28.0947C137.89 28.6469 138.953 28.923 140.153 28.923C141.354 28.923 142.423 28.6372 143.361 28.0658C144.301 27.4943 145.027 26.6789 145.534 25.6227C146.044 24.5633 146.298 23.3465 146.298 21.9725V21.324C146.292 19.9692 146.028 18.7653 145.508 17.7187C144.988 16.6689 144.26 15.8599 143.325 15.2917C142.388 14.7235 141.325 14.4409 140.131 14.4409C138.93 14.4377 137.855 14.7267 136.908 15.3013Z"
              fill="white"/>
    </mask>
    <g mask="url(#mask10_302_493)">
        <path d="M146.304 14.4375H133.97V28.9195H146.304V14.4375Z" fill="black"/>
    </g>
    <path d="M151.852 17.247H154C154.639 17.247 155.124 17.4204 155.454 17.7671C155.782 18.1138 155.949 18.589 155.949 19.1989C155.949 19.8089 155.785 20.2808 155.461 20.6211C155.136 20.9614 154.648 21.1316 154.003 21.1316H151.855V17.247H151.852ZM148.452 14.6338V28.7306H151.849V23.7448H153.689L156.177 28.7306H159.817V28.5861L156.873 22.8941C157.721 22.496 158.34 21.9727 158.735 21.3274C159.133 20.6821 159.329 19.8699 159.329 18.8908C159.329 17.536 158.857 16.4894 157.917 15.7478C156.973 15.0062 155.666 14.637 153.993 14.637L148.452 14.6338Z"
          fill="black"/>
    <mask id="mask11_302_493" style="mask-type:luminance" maskUnits="userSpaceOnUse" x="148" y="14" width="12"
          height="15">
        <path d="M151.852 17.247H154C154.639 17.247 155.124 17.4204 155.454 17.7671C155.782 18.1138 155.949 18.589 155.949 19.1989C155.949 19.8089 155.785 20.2808 155.461 20.6211C155.136 20.9614 154.648 21.1316 154.003 21.1316H151.855V17.247H151.852ZM148.452 14.6338V28.7306H151.849V23.7448H153.689L156.177 28.7306H159.817V28.5861L156.873 22.8941C157.721 22.496 158.34 21.9727 158.735 21.3274C159.133 20.6821 159.329 19.8699 159.329 18.8908C159.329 17.536 158.857 16.4894 157.917 15.7478C156.973 15.0062 155.666 14.637 153.993 14.637L148.452 14.6338Z"
              fill="white"/>
    </mask>
    <g mask="url(#mask11_302_493)">
        <path d="M159.817 14.6338H148.452V28.7306H159.817V14.6338Z" fill="black"/>
    </g>
    <path d="M161.785 14.6338V28.7306H171.098V26.1141H165.182V14.6338H161.785Z" fill="black"/>
    <mask id="mask12_302_493" style="mask-type:luminance" maskUnits="userSpaceOnUse" x="161" y="14" width="11"
          height="15">
        <path d="M161.785 14.6338V28.7306H171.098V26.1141H165.182V14.6338H161.785Z" fill="white"/>
    </mask>
    <g mask="url(#mask12_302_493)">
        <path d="M171.098 14.6338H161.785V28.7306H171.098V14.6338Z" fill="black"/>
    </g>
    <path d="M176.325 17.2567H177.468C178.466 17.2567 179.23 17.6034 179.75 18.2936C180.274 18.9839 180.534 20.0112 180.534 21.3724V21.9823C180.534 23.35 180.274 24.3805 179.75 25.0771C179.227 25.7706 178.479 26.1173 177.503 26.1173H176.322L176.325 17.2567ZM172.925 14.6338V28.7306H177.561C178.781 28.7241 179.885 28.432 180.877 27.8541C181.869 27.2763 182.636 26.4769 183.182 25.4528C183.728 24.4286 184.001 23.2729 184.001 21.9823V21.3338C183.994 20.0561 183.712 18.9004 183.153 17.8731C182.595 16.8425 181.818 16.0464 180.826 15.4813C179.834 14.9163 178.713 14.6338 177.468 14.6338H172.925Z"
          fill="black"/>
    <mask id="mask13_302_493" style="mask-type:luminance" maskUnits="userSpaceOnUse" x="172" y="14" width="13"
          height="15">
        <path d="M176.325 17.2567H177.468C178.466 17.2567 179.23 17.6034 179.75 18.2936C180.274 18.9839 180.534 20.0112 180.534 21.3724V21.9823C180.534 23.35 180.274 24.3805 179.75 25.0771C179.227 25.7706 178.479 26.1173 177.503 26.1173H176.322L176.325 17.2567ZM172.925 14.6338V28.7306H177.561C178.781 28.7241 179.885 28.432 180.877 27.8541C181.869 27.2763 182.636 26.4769 183.182 25.4528C183.728 24.4286 184.001 23.2729 184.001 21.9823V21.3338C183.994 20.0561 183.712 18.9004 183.153 17.8731C182.595 16.8425 181.818 16.0464 180.826 15.4813C179.834 14.9163 178.713 14.6338 177.468 14.6338H172.925Z"
              fill="white"/>
    </mask>
    <g mask="url(#mask13_302_493)">
        <path d="M184.001 14.6338H172.925V28.7306H184.001V14.6338Z" fill="black"/>
    </g>
    <path d="M67.0405 14.6849C66.209 15.0188 65.5637 15.4843 65.111 16.0782C64.6552 16.6753 64.4272 17.3656 64.4272 18.1457C64.4272 19.7156 65.3422 20.9451 67.1689 21.844C67.7307 22.1233 68.453 22.4091 69.3391 22.7044C70.222 22.9998 70.8416 23.2887 71.1915 23.568C71.5446 23.8441 71.718 24.2326 71.718 24.7302C71.718 25.17 71.5543 25.5103 71.23 25.7511C70.9058 25.9918 70.4595 26.1138 69.8977 26.1138C69.0213 26.1138 68.3856 25.9341 67.9972 25.5745C67.6087 25.2149 67.4097 24.6595 67.4097 23.9051H64.0002C64.0002 24.8329 64.2346 25.6548 64.7033 26.3675C65.172 27.0802 65.8687 27.642 66.7965 28.0529C67.7211 28.4638 68.758 28.6693 69.8977 28.6693C71.5189 28.6693 72.7935 28.3194 73.7213 27.6131C74.6523 26.91 75.1178 25.9405 75.1178 24.7077C75.1178 23.1667 74.3569 21.9564 72.832 21.0768C72.206 20.714 71.4066 20.3769 70.4306 20.0655C69.4547 19.7541 68.7741 19.4491 68.3888 19.1537C68.0004 18.8616 67.8078 18.5309 67.8078 18.1714C67.8078 17.7572 67.9843 17.4169 68.3343 17.1505C68.6842 16.8808 69.1657 16.7492 69.7725 16.7492C70.3793 16.7492 70.848 16.9065 71.2011 17.2243C71.5543 17.5421 71.7276 17.9852 71.7276 18.5598H75.1178C75.1178 17.6994 74.8931 16.9386 74.45 16.2708C74.0038 15.6031 73.381 15.0894 72.5784 14.7266C71.7758 14.3639 70.8672 14.1841 69.8528 14.1841C68.8094 14.1841 67.872 14.351 67.0405 14.6849Z"
          fill="url(#paint5_linear_302_493)"/>
    <path d="M67.0405 14.6849C66.209 15.0188 65.5637 15.4843 65.111 16.0782C64.6552 16.6753 64.4272 17.3656 64.4272 18.1457C64.4272 19.7156 65.3422 20.9451 67.1689 21.844C67.7307 22.1233 68.453 22.4091 69.3391 22.7044C70.222 22.9998 70.8416 23.2887 71.1915 23.568C71.5446 23.8441 71.718 24.2326 71.718 24.7302C71.718 25.17 71.5543 25.5103 71.23 25.7511C70.9058 25.9918 70.4595 26.1138 69.8977 26.1138C69.0213 26.1138 68.3856 25.9341 67.9972 25.5745C67.6087 25.2149 67.4097 24.6595 67.4097 23.9051H64.0002C64.0002 24.8329 64.2346 25.6548 64.7033 26.3675C65.172 27.0802 65.8687 27.642 66.7965 28.0529C67.7211 28.4638 68.758 28.6693 69.8977 28.6693C71.5189 28.6693 72.7935 28.3194 73.7213 27.6131C74.6523 26.91 75.1178 25.9405 75.1178 24.7077C75.1178 23.1667 74.3569 21.9564 72.832 21.0768C72.206 20.714 71.4066 20.3769 70.4306 20.0655C69.4547 19.7541 68.7741 19.4491 68.3888 19.1537C68.0004 18.8616 67.8078 18.5309 67.8078 18.1714C67.8078 17.7572 67.9843 17.4169 68.3343 17.1505C68.6842 16.8808 69.1657 16.7492 69.7725 16.7492C70.3793 16.7492 70.848 16.9065 71.2011 17.2243C71.5543 17.5421 71.7276 17.9852 71.7276 18.5598H75.1178C75.1178 17.6994 74.8931 16.9386 74.45 16.2708C74.0038 15.6031 73.381 15.0894 72.5784 14.7266C71.7758 14.3639 70.8672 14.1841 69.8528 14.1841C68.8094 14.1841 67.872 14.351 67.0405 14.6849Z"
          fill="url(#paint6_linear_302_493)"/>
    <mask id="mask14_302_493" style="mask-type:luminance" maskUnits="userSpaceOnUse" x="64" y="14" width="12"
          height="15">
        <path d="M67.0405 14.6849C66.209 15.0188 65.5637 15.4843 65.111 16.0782C64.6552 16.6753 64.4272 17.3656 64.4272 18.1457C64.4272 19.7156 65.3422 20.9451 67.1689 21.844C67.7307 22.1233 68.453 22.4091 69.3391 22.7044C70.222 22.9998 70.8416 23.2887 71.1915 23.568C71.5446 23.8441 71.718 24.2326 71.718 24.7302C71.718 25.17 71.5543 25.5103 71.23 25.7511C70.9058 25.9918 70.4595 26.1138 69.8977 26.1138C69.0213 26.1138 68.3856 25.9341 67.9972 25.5745C67.6087 25.2149 67.4097 24.6595 67.4097 23.9051H64.0002C64.0002 24.8329 64.2346 25.6548 64.7033 26.3675C65.172 27.0802 65.8687 27.642 66.7965 28.0529C67.7211 28.4638 68.758 28.6693 69.8977 28.6693C71.5189 28.6693 72.7935 28.3194 73.7213 27.6131C74.6523 26.91 75.1178 25.9405 75.1178 24.7077C75.1178 23.1667 74.3569 21.9564 72.832 21.0768C72.206 20.714 71.4066 20.3769 70.4306 20.0655C69.4547 19.7541 68.7741 19.4491 68.3888 19.1537C68.0004 18.8616 67.8078 18.5309 67.8078 18.1714C67.8078 17.7572 67.9843 17.4169 68.3343 17.1505C68.6842 16.8808 69.1657 16.7492 69.7725 16.7492C70.3793 16.7492 70.848 16.9065 71.2011 17.2243C71.5543 17.5421 71.7276 17.9852 71.7276 18.5598H75.1178C75.1178 17.6994 74.8931 16.9386 74.45 16.2708C74.0038 15.6031 73.381 15.0894 72.5784 14.7266C71.7758 14.3639 70.8672 14.1841 69.8528 14.1841C68.8094 14.1841 67.872 14.351 67.0405 14.6849Z"
              fill="white"/>
    </mask>
    <g mask="url(#mask14_302_493)">
        <path d="M75.1146 14.1841H64.0002V28.6661H75.1146V14.1841Z" fill="url(#paint7_linear_302_493)"/>
    </g>
    <path d="M76.5366 14.3799V17.0028H80.6908V28.4766H84.0906V17.0028H88.3187V14.3799H76.5366Z"
          fill="url(#paint8_linear_302_493)"/>
    <path d="M76.5366 14.3799V17.0028H80.6908V28.4766H84.0906V17.0028H88.3187V14.3799H76.5366Z"
          fill="url(#paint9_linear_302_493)"/>
    <mask id="mask15_302_493" style="mask-type:luminance" maskUnits="userSpaceOnUse" x="76" y="14" width="13"
          height="15">
        <path d="M76.5366 14.3799V17.0028H80.6908V28.4766H84.0906V17.0028H88.3187V14.3799H76.5366Z" fill="white"/>
    </mask>
    <g mask="url(#mask15_302_493)">
        <path d="M88.3187 14.3799H76.5366V28.4766H88.3187V14.3799Z" fill="url(#paint10_linear_302_493)"/>
    </g>
    <path d="M94.6625 18.3287L96.181 23.218H93.1504L94.6625 18.3287ZM93.0637 14.3799L87.895 28.4766H91.526L92.3382 25.8409H96.9964L97.8183 28.4766H101.468L96.2613 14.3799H93.0637Z"
          fill="url(#paint11_linear_302_493)"/>
    <path d="M94.6625 18.3287L96.181 23.218H93.1504L94.6625 18.3287ZM93.0637 14.3799L87.895 28.4766H91.526L92.3382 25.8409H96.9964L97.8183 28.4766H101.468L96.2613 14.3799H93.0637Z"
          fill="url(#paint12_linear_302_493)"/>
    <mask id="mask16_302_493" style="mask-type:luminance" maskUnits="userSpaceOnUse" x="87" y="14" width="15"
          height="15">
        <path d="M94.6625 18.3287L96.181 23.218H93.1504L94.6625 18.3287ZM93.0637 14.3799L87.895 28.4766H91.526L92.3382 25.8409H96.9964L97.8183 28.4766H101.468L96.2613 14.3799H93.0637Z"
              fill="white"/>
    </mask>
    <g mask="url(#mask16_302_493)">
        <path d="M101.468 14.3799H87.895V28.4766H101.468V14.3799Z" fill="url(#paint13_linear_302_493)"/>
    </g>
    <path d="M106.287 16.9931H108.438C109.077 16.9931 109.562 17.1665 109.889 17.5132C110.22 17.8599 110.384 18.3351 110.384 18.945C110.384 19.555 110.223 20.0269 109.896 20.3672C109.568 20.7075 109.083 20.8777 108.438 20.8777H106.287V16.9931ZM102.891 14.3799V28.4766H106.287V23.4909H108.127L110.615 28.4766H114.255V28.3322L111.311 22.6402C112.156 22.2421 112.779 21.7188 113.173 21.0735C113.568 20.4282 113.771 19.616 113.771 18.6368C113.771 17.2821 113.299 16.2355 112.355 15.4939C111.414 14.7523 110.104 14.3831 108.435 14.3831L102.891 14.3799Z"
          fill="url(#paint14_linear_302_493)"/>
    <path d="M106.287 16.9931H108.438C109.077 16.9931 109.562 17.1665 109.889 17.5132C110.22 17.8599 110.384 18.3351 110.384 18.945C110.384 19.555 110.223 20.0269 109.896 20.3672C109.568 20.7075 109.083 20.8777 108.438 20.8777H106.287V16.9931ZM102.891 14.3799V28.4766H106.287V23.4909H108.127L110.615 28.4766H114.255V28.3322L111.311 22.6402C112.156 22.2421 112.779 21.7188 113.173 21.0735C113.568 20.4282 113.771 19.616 113.771 18.6368C113.771 17.2821 113.299 16.2355 112.355 15.4939C111.414 14.7523 110.104 14.3831 108.435 14.3831L102.891 14.3799Z"
          fill="url(#paint15_linear_302_493)"/>
    <mask id="mask17_302_493" style="mask-type:luminance" maskUnits="userSpaceOnUse" x="102" y="14" width="13"
          height="15">
        <path d="M106.287 16.9931H108.438C109.077 16.9931 109.562 17.1665 109.889 17.5132C110.22 17.8599 110.384 18.3351 110.384 18.945C110.384 19.555 110.223 20.0269 109.896 20.3672C109.568 20.7075 109.083 20.8777 108.438 20.8777H106.287V16.9931ZM102.891 14.3799V28.4766H106.287V23.4909H108.127L110.615 28.4766H114.255V28.3322L111.311 22.6402C112.156 22.2421 112.779 21.7188 113.173 21.0735C113.568 20.4282 113.771 19.616 113.771 18.6368C113.771 17.2821 113.299 16.2355 112.355 15.4939C111.414 14.7523 110.104 14.3831 108.435 14.3831L102.891 14.3799Z"
              fill="white"/>
    </mask>
    <g mask="url(#mask17_302_493)">
        <path d="M114.259 14.3799H102.891V28.4766H114.259V14.3799Z" fill="url(#paint16_linear_302_493)"/>
    </g>
    <path d="M128.757 14.3799L127.142 23.218L125.177 14.3799H122.291L120.355 23.218L118.737 14.3799H115.36L118.362 28.4766H121.877L123.723 20.4379L125.614 28.4766H129.136L132.128 14.3799H128.757Z"
          fill="url(#paint17_linear_302_493)"/>
    <path d="M128.757 14.3799L127.142 23.218L125.177 14.3799H122.291L120.355 23.218L118.737 14.3799H115.36L118.362 28.4766H121.877L123.723 20.4379L125.614 28.4766H129.136L132.128 14.3799H128.757Z"
          fill="url(#paint18_linear_302_493)"/>
    <mask id="mask18_302_493" style="mask-type:luminance" maskUnits="userSpaceOnUse" x="115" y="14" width="18"
          height="15">
        <path d="M128.757 14.3799L127.142 23.218L125.177 14.3799H122.291L120.355 23.218L118.737 14.3799H115.36L118.362 28.4766H121.877L123.723 20.4379L125.614 28.4766H129.136L132.128 14.3799H128.757Z"
              fill="white"/>
    </mask>
    <g mask="url(#mask18_302_493)">
        <path d="M132.128 14.3799H115.36V28.4766H132.128V14.3799Z" fill="url(#paint19_linear_302_493)"/>
    </g>
    <path d="M137.598 24.9038C137.139 24.1622 136.911 23.0995 136.911 21.7191L136.921 20.6821C137.017 18.1267 137.919 16.8489 139.621 16.8489C140.491 16.8489 141.162 17.2117 141.63 17.9372C142.099 18.6628 142.333 19.7286 142.333 21.1284V21.7769C142.327 23.1445 142.093 24.1943 141.627 24.923C141.162 25.655 140.5 26.0178 139.643 26.0178C138.734 26.0146 138.057 25.6454 137.598 24.9038ZM136.391 15.0479C135.447 15.6226 134.718 16.438 134.211 17.491C133.704 18.5472 133.45 19.7639 133.45 21.1476V21.9406C133.476 23.2697 133.749 24.4479 134.269 25.4752C134.789 26.5025 135.511 27.2923 136.442 27.8413C137.373 28.3934 138.436 28.6695 139.637 28.6695C140.837 28.6695 141.906 28.3838 142.844 27.8124C143.784 27.2409 144.51 26.4255 145.017 25.3693C145.528 24.3098 145.781 23.0931 145.781 21.7191V21.0706C145.775 19.7158 145.512 18.5119 144.992 17.4653C144.471 16.4155 143.743 15.6065 142.808 15.0383C141.871 14.47 140.808 14.1875 139.614 14.1875C138.413 14.1843 137.338 14.4733 136.391 15.0479Z"
          fill="url(#paint20_linear_302_493)"/>
    <path d="M137.598 24.9038C137.139 24.1622 136.911 23.0995 136.911 21.7191L136.921 20.6821C137.017 18.1267 137.919 16.8489 139.621 16.8489C140.491 16.8489 141.162 17.2117 141.63 17.9372C142.099 18.6628 142.333 19.7286 142.333 21.1284V21.7769C142.327 23.1445 142.093 24.1943 141.627 24.923C141.162 25.655 140.5 26.0178 139.643 26.0178C138.734 26.0146 138.057 25.6454 137.598 24.9038ZM136.391 15.0479C135.447 15.6226 134.718 16.438 134.211 17.491C133.704 18.5472 133.45 19.7639 133.45 21.1476V21.9406C133.476 23.2697 133.749 24.4479 134.269 25.4752C134.789 26.5025 135.511 27.2923 136.442 27.8413C137.373 28.3934 138.436 28.6695 139.637 28.6695C140.837 28.6695 141.906 28.3838 142.844 27.8124C143.784 27.2409 144.51 26.4255 145.017 25.3693C145.528 24.3098 145.781 23.0931 145.781 21.7191V21.0706C145.775 19.7158 145.512 18.5119 144.992 17.4653C144.471 16.4155 143.743 15.6065 142.808 15.0383C141.871 14.47 140.808 14.1875 139.614 14.1875C138.413 14.1843 137.338 14.4733 136.391 15.0479Z"
          fill="url(#paint21_linear_302_493)"/>
    <mask id="mask19_302_493" style="mask-type:luminance" maskUnits="userSpaceOnUse" x="133" y="14" width="13"
          height="15">
        <path d="M137.598 24.9038C137.139 24.1622 136.911 23.0995 136.911 21.7191L136.921 20.6821C137.017 18.1267 137.919 16.8489 139.621 16.8489C140.491 16.8489 141.162 17.2117 141.63 17.9372C142.099 18.6628 142.333 19.7286 142.333 21.1284V21.7769C142.327 23.1445 142.093 24.1943 141.627 24.923C141.162 25.655 140.5 26.0178 139.643 26.0178C138.734 26.0146 138.057 25.6454 137.598 24.9038ZM136.391 15.0479C135.447 15.6226 134.718 16.438 134.211 17.491C133.704 18.5472 133.45 19.7639 133.45 21.1476V21.9406C133.476 23.2697 133.749 24.4479 134.269 25.4752C134.789 26.5025 135.511 27.2923 136.442 27.8413C137.373 28.3934 138.436 28.6695 139.637 28.6695C140.837 28.6695 141.906 28.3838 142.844 27.8124C143.784 27.2409 144.51 26.4255 145.017 25.3693C145.528 24.3098 145.781 23.0931 145.781 21.7191V21.0706C145.775 19.7158 145.512 18.5119 144.992 17.4653C144.471 16.4155 143.743 15.6065 142.808 15.0383C141.871 14.47 140.808 14.1875 139.614 14.1875C138.413 14.1843 137.338 14.4733 136.391 15.0479Z"
              fill="white"/>
    </mask>
    <g mask="url(#mask19_302_493)">
        <path d="M145.788 14.1846H133.453V28.6666H145.788V14.1846Z" fill="url(#paint22_linear_302_493)"/>
    </g>
    <path d="M151.335 16.9931H153.483C154.122 16.9931 154.607 17.1665 154.937 17.5132C155.265 17.8599 155.432 18.3351 155.432 18.945C155.432 19.555 155.268 20.0269 154.944 20.3672C154.62 20.7075 154.132 20.8777 153.486 20.8777H151.339V16.9931H151.335ZM147.939 14.3799V28.4766H151.335V23.4909H153.175L155.663 28.4766H159.303V28.3322L156.36 22.6402C157.207 22.2421 157.827 21.7188 158.222 21.0735C158.62 20.4282 158.815 19.616 158.815 18.6368C158.815 17.2821 158.344 16.2355 157.403 15.4939C156.459 14.7523 155.152 14.3831 153.48 14.3831L147.939 14.3799Z"
          fill="url(#paint23_linear_302_493)"/>
    <path d="M151.335 16.9931H153.483C154.122 16.9931 154.607 17.1665 154.937 17.5132C155.265 17.8599 155.432 18.3351 155.432 18.945C155.432 19.555 155.268 20.0269 154.944 20.3672C154.62 20.7075 154.132 20.8777 153.486 20.8777H151.339V16.9931H151.335ZM147.939 14.3799V28.4766H151.335V23.4909H153.175L155.663 28.4766H159.303V28.3322L156.36 22.6402C157.207 22.2421 157.827 21.7188 158.222 21.0735C158.62 20.4282 158.815 19.616 158.815 18.6368C158.815 17.2821 158.344 16.2355 157.403 15.4939C156.459 14.7523 155.152 14.3831 153.48 14.3831L147.939 14.3799Z"
          fill="url(#paint24_linear_302_493)"/>
    <mask id="mask20_302_493" style="mask-type:luminance" maskUnits="userSpaceOnUse" x="147" y="14" width="13"
          height="15">
        <path d="M151.335 16.9931H153.483C154.122 16.9931 154.607 17.1665 154.937 17.5132C155.265 17.8599 155.432 18.3351 155.432 18.945C155.432 19.555 155.268 20.0269 154.944 20.3672C154.62 20.7075 154.132 20.8777 153.486 20.8777H151.339V16.9931H151.335ZM147.939 14.3799V28.4766H151.335V23.4909H153.175L155.663 28.4766H159.303V28.3322L156.36 22.6402C157.207 22.2421 157.827 21.7188 158.222 21.0735C158.62 20.4282 158.815 19.616 158.815 18.6368C158.815 17.2821 158.344 16.2355 157.403 15.4939C156.459 14.7523 155.152 14.3831 153.48 14.3831L147.939 14.3799Z"
              fill="white"/>
    </mask>
    <g mask="url(#mask20_302_493)">
        <path d="M159.303 14.3799H147.939V28.4766H159.303V14.3799Z" fill="url(#paint25_linear_302_493)"/>
    </g>
    <path d="M161.268 14.3799V28.4766H170.582V25.8602H164.665V14.3799H161.268Z" fill="url(#paint26_linear_302_493)"/>
    <path d="M161.268 14.3799V28.4766H170.582V25.8602H164.665V14.3799H161.268Z" fill="url(#paint27_linear_302_493)"/>
    <mask id="mask21_302_493" style="mask-type:luminance" maskUnits="userSpaceOnUse" x="161" y="14" width="10"
          height="15">
        <path d="M161.268 14.3799V28.4766H170.582V25.8602H164.665V14.3799H161.268Z" fill="white"/>
    </mask>
    <g mask="url(#mask21_302_493)">
        <path d="M170.582 14.3799H161.268V28.4766H170.582V14.3799Z" fill="url(#paint28_linear_302_493)"/>
    </g>
    <path d="M175.808 17.0028H176.951C177.949 17.0028 178.713 17.3495 179.233 18.0397C179.757 18.7299 180.017 19.7573 180.017 21.1185V21.7284C180.017 23.0961 179.757 24.1266 179.233 24.8232C178.71 25.5167 177.962 25.8634 176.986 25.8634H175.805L175.808 17.0028ZM172.411 14.3799V28.4766H177.047C178.267 28.4702 179.371 28.1781 180.363 27.6002C181.355 27.0223 182.123 26.223 182.669 25.1989C183.214 24.1747 183.487 23.019 183.487 21.7284V21.0799C183.481 19.8022 183.198 18.6465 182.64 17.6192C182.081 16.5886 181.304 15.7924 180.312 15.2274C179.32 14.6624 178.2 14.3799 176.954 14.3799H172.411Z"
          fill="url(#paint29_linear_302_493)"/>
    <path d="M175.808 17.0028H176.951C177.949 17.0028 178.713 17.3495 179.233 18.0397C179.757 18.7299 180.017 19.7573 180.017 21.1185V21.7284C180.017 23.0961 179.757 24.1266 179.233 24.8232C178.71 25.5167 177.962 25.8634 176.986 25.8634H175.805L175.808 17.0028ZM172.411 14.3799V28.4766H177.047C178.267 28.4702 179.371 28.1781 180.363 27.6002C181.355 27.0223 182.123 26.223 182.669 25.1989C183.214 24.1747 183.487 23.019 183.487 21.7284V21.0799C183.481 19.8022 183.198 18.6465 182.64 17.6192C182.081 16.5886 181.304 15.7924 180.312 15.2274C179.32 14.6624 178.2 14.3799 176.954 14.3799H172.411Z"
          fill="url(#paint30_linear_302_493)"/>
    <mask id="mask22_302_493" style="mask-type:luminance" maskUnits="userSpaceOnUse" x="172" y="14" width="12"
          height="15">
        <path d="M175.808 17.0028H176.951C177.949 17.0028 178.713 17.3495 179.233 18.0397C179.757 18.7299 180.017 19.7573 180.017 21.1185V21.7284C180.017 23.0961 179.757 24.1266 179.233 24.8232C178.71 25.5167 177.962 25.8634 176.986 25.8634H175.805L175.808 17.0028ZM172.411 14.3799V28.4766H177.047C178.267 28.4702 179.371 28.1781 180.363 27.6002C181.355 27.0223 182.123 26.223 182.669 25.1989C183.214 24.1747 183.487 23.019 183.487 21.7284V21.0799C183.481 19.8022 183.198 18.6465 182.64 17.6192C182.081 16.5886 181.304 15.7924 180.312 15.2274C179.32 14.6624 178.2 14.3799 176.954 14.3799H172.411Z"
              fill="white"/>
    </mask>
    <g mask="url(#mask22_302_493)">
        <path d="M183.487 14.3799H172.411V28.4766H183.487V14.3799Z" fill="url(#paint31_linear_302_493)"/>
    </g>
    <path d="M94.6491 37.6328H65.5342V38.7404H94.6491V37.6328Z" fill="white"/>
    <path d="M94.6491 37.6328H65.5342V38.7404H94.6491V37.6328Z" fill="white"/>
    <path d="M94.6491 37.6328H65.5342V38.7404H94.6491V37.6328Z" fill="white"/>
    <mask id="mask23_302_493" style="mask-type:luminance" maskUnits="userSpaceOnUse" x="65" y="37" width="30"
          height="2">
        <path d="M94.6491 37.6328H65.5342V38.7404H94.6491V37.6328Z" fill="white"/>
    </mask>
    <g mask="url(#mask23_302_493)">
        <path d="M94.6491 37.6328H65.5342V38.7404H94.6491V37.6328Z" fill="white"/>
    </g>
    <path d="M182.467 37.6328H153.352V38.7404H182.467V37.6328Z" fill="white"/>
    <path d="M182.467 37.6328H153.352V38.7404H182.467V37.6328Z" fill="white"/>
    <path d="M182.467 37.6328H153.352V38.7404H182.467V37.6328Z" fill="white"/>
    <mask id="mask24_302_493" style="mask-type:luminance" maskUnits="userSpaceOnUse" x="153" y="37" width="30"
          height="2">
        <path d="M182.467 37.6328H153.352V38.7404H182.467V37.6328Z" fill="white"/>
    </mask>
    <g mask="url(#mask24_302_493)">
        <path d="M182.467 37.6328H153.352V38.7404H182.467V37.6328Z" fill="white"/>
    </g>
    <path d="M102.366 38.1465C102.366 36.0277 103.733 34.4546 105.955 34.4546C106.96 34.4546 108.013 34.8302 108.764 35.6392L107.904 36.3904C107.406 35.9025 106.758 35.6103 105.945 35.6103C104.648 35.6103 103.643 36.5831 103.643 38.1465C103.643 39.588 104.555 40.6827 105.997 40.6827C106.575 40.6827 107.111 40.5318 107.599 40.2076V38.9909H105.833V37.8961H108.815V40.8978C108.157 41.4468 107.101 41.7999 105.997 41.7999C103.929 41.7967 102.366 40.4259 102.366 38.1465Z"
          fill="white"/>
    <path d="M112.405 34.5347H115.063C116.777 34.5347 117.528 35.5267 117.528 36.8654C117.528 37.9922 116.979 38.7403 115.926 39.0452L117.792 41.7323H116.321L114.597 39.1672H113.634V41.7323H112.408L112.405 34.5347ZM114.796 38.0629C115.779 38.0629 116.257 37.5556 116.257 36.8461C116.257 36.0853 115.759 35.6294 114.88 35.6294H113.634V38.0629H114.796Z"
          fill="white"/>
    <path d="M120.527 38.1337C120.527 36.0148 122.007 34.4546 124.167 34.4546C126.328 34.4546 127.798 35.9346 127.798 38.1337C127.798 40.3328 126.248 41.8128 124.167 41.8128C122.007 41.816 120.527 40.2525 120.527 38.1337ZM126.517 38.1337C126.517 36.6537 125.493 35.5975 124.164 35.5975C122.755 35.5975 121.792 36.7243 121.792 38.1337C121.792 39.543 122.755 40.6699 124.164 40.6699C125.493 40.6699 126.517 39.604 126.517 38.1337Z"
          fill="white"/>
    <path d="M131.153 38.7724V34.5347H132.37V38.6825C132.37 39.8286 132.977 40.6601 134.014 40.6601C134.977 40.6601 135.667 39.9185 135.667 38.6825V34.5347H136.893V38.7724C136.893 40.6376 135.808 41.8158 134.014 41.8158C132.309 41.8158 131.153 40.7082 131.153 38.7724Z"
          fill="white"/>
    <path d="M140.563 34.5347H143.17C144.894 34.5347 145.635 35.5267 145.635 36.8654C145.635 38.4256 144.579 39.1672 143.028 39.1672H141.792V41.7323H140.566V34.5347H140.563ZM142.903 38.0629C143.908 38.0629 144.364 37.5556 144.364 36.8461C144.364 36.0853 143.876 35.6294 142.996 35.6294H141.789V38.0629H142.903Z"
          fill="white"/>
    <defs>
        <linearGradient id="paint0_linear_302_493" x1="38.7584" y1="44.6207" x2="28.8069" y2="30.9738"
                        gradientUnits="userSpaceOnUse">
            <stop stop-color="#FFDD00"/>
            <stop offset="0.18" stop-color="#F3CB0C"/>
            <stop offset="0.46" stop-color="#E5B51B"/>
            <stop offset="0.74" stop-color="#DCA924"/>
            <stop offset="0.99" stop-color="#DAA528"/>
            <stop offset="1" stop-color="#DAA528"/>
        </linearGradient>
        <linearGradient id="paint1_linear_302_493" x1="17.1135" y1="45.3313" x2="28.0522" y2="28.9913"
                        gradientUnits="userSpaceOnUse">
            <stop stop-color="#FFDD00"/>
            <stop offset="0.18" stop-color="#F3CB0C"/>
            <stop offset="0.46" stop-color="#E5B51B"/>
            <stop offset="0.74" stop-color="#DCA924"/>
            <stop offset="0.99" stop-color="#DAA528"/>
            <stop offset="1" stop-color="#DAA528"/>
        </linearGradient>
        <linearGradient id="paint2_linear_302_493" x1="47.215" y1="23.9657" x2="29.3463" y2="30.3636"
                        gradientUnits="userSpaceOnUse">
            <stop stop-color="#FFDD00"/>
            <stop offset="0.18" stop-color="#F3CB0C"/>
            <stop offset="0.46" stop-color="#E5B51B"/>
            <stop offset="0.74" stop-color="#DCA924"/>
            <stop offset="1" stop-color="#DAA528"/>
        </linearGradient>
        <linearGradient id="paint3_linear_302_493" x1="25.7427" y1="11.5076" x2="25.7427" y2="27.6746"
                        gradientUnits="userSpaceOnUse">
            <stop stop-color="#FFDD00"/>
            <stop offset="0.18" stop-color="#F3CB0C"/>
            <stop offset="0.46" stop-color="#E5B51B"/>
            <stop offset="0.74" stop-color="#DCA924"/>
            <stop offset="0.99" stop-color="#DAA528"/>
            <stop offset="1" stop-color="#DAA528"/>
        </linearGradient>
        <linearGradient id="paint4_linear_302_493" x1="9.19767" y1="24.3275" x2="27.57" y2="30.2262"
                        gradientUnits="userSpaceOnUse">
            <stop stop-color="#FFDD00"/>
            <stop offset="0.18" stop-color="#F3CB0C"/>
            <stop offset="0.46" stop-color="#E5B51B"/>
            <stop offset="0.74" stop-color="#DCA924"/>
            <stop offset="0.99" stop-color="#DAA528"/>
            <stop offset="1" stop-color="#DAA528"/>
        </linearGradient>
        <linearGradient id="paint5_linear_302_493" x1="69.559" y1="28.6693" x2="69.559" y2="14.1841"
                        gradientUnits="userSpaceOnUse">
            <stop stop-color="#FFDE00"/>
            <stop offset="1" stop-color="#E5BA50"/>
        </linearGradient>
        <linearGradient id="paint6_linear_302_493" x1="69.559" y1="28.6693" x2="69.559" y2="14.1841"
                        gradientUnits="userSpaceOnUse">
            <stop stop-color="#FFDE00"/>
            <stop offset="1" stop-color="#E5BA50"/>
        </linearGradient>
        <linearGradient id="paint7_linear_302_493" x1="69.5574" y1="28.6664" x2="69.5574" y2="14.1841"
                        gradientUnits="userSpaceOnUse">
            <stop stop-color="#FFDE00"/>
            <stop offset="1" stop-color="#E5BA50"/>
        </linearGradient>
        <linearGradient id="paint8_linear_302_493" x1="82.4277" y1="28.4766" x2="82.4277" y2="14.3802"
                        gradientUnits="userSpaceOnUse">
            <stop stop-color="#FFDE00"/>
            <stop offset="1" stop-color="#E5BA50"/>
        </linearGradient>
        <linearGradient id="paint9_linear_302_493" x1="82.4277" y1="28.4766" x2="82.4277" y2="14.3802"
                        gradientUnits="userSpaceOnUse">
            <stop stop-color="#FFDE00"/>
            <stop offset="1" stop-color="#E5BA50"/>
        </linearGradient>
        <linearGradient id="paint10_linear_302_493" x1="82.4277" y1="28.477" x2="82.4277" y2="14.3802"
                        gradientUnits="userSpaceOnUse">
            <stop stop-color="#FFDE00"/>
            <stop offset="1" stop-color="#E5BA50"/>
        </linearGradient>
        <linearGradient id="paint11_linear_302_493" x1="94.6818" y1="28.477" x2="94.6818" y2="14.3802"
                        gradientUnits="userSpaceOnUse">
            <stop stop-color="#FFDE00"/>
            <stop offset="1" stop-color="#E5BA50"/>
        </linearGradient>
        <linearGradient id="paint12_linear_302_493" x1="94.6818" y1="28.477" x2="94.6818" y2="14.3802"
                        gradientUnits="userSpaceOnUse">
            <stop stop-color="#FFDE00"/>
            <stop offset="1" stop-color="#E5BA50"/>
        </linearGradient>
        <linearGradient id="paint13_linear_302_493" x1="94.6818" y1="28.477" x2="94.6818" y2="14.3802"
                        gradientUnits="userSpaceOnUse">
            <stop stop-color="#FFDE00"/>
            <stop offset="1" stop-color="#E5BA50"/>
        </linearGradient>
        <linearGradient id="paint14_linear_302_493" x1="108.573" y1="28.477" x2="108.573" y2="14.3802"
                        gradientUnits="userSpaceOnUse">
            <stop stop-color="#FFDE00"/>
            <stop offset="1" stop-color="#E5BA50"/>
        </linearGradient>
        <linearGradient id="paint15_linear_302_493" x1="108.573" y1="28.477" x2="108.573" y2="14.3802"
                        gradientUnits="userSpaceOnUse">
            <stop stop-color="#FFDE00"/>
            <stop offset="1" stop-color="#E5BA50"/>
        </linearGradient>
        <linearGradient id="paint16_linear_302_493" x1="108.575" y1="28.477" x2="108.575" y2="14.3802"
                        gradientUnits="userSpaceOnUse">
            <stop stop-color="#FFDE00"/>
            <stop offset="1" stop-color="#E5BA50"/>
        </linearGradient>
        <linearGradient id="paint17_linear_302_493" x1="123.744" y1="28.4766" x2="123.744" y2="14.3802"
                        gradientUnits="userSpaceOnUse">
            <stop stop-color="#FFDE00"/>
            <stop offset="1" stop-color="#E5BA50"/>
        </linearGradient>
        <linearGradient id="paint18_linear_302_493" x1="123.744" y1="28.4766" x2="123.744" y2="14.3802"
                        gradientUnits="userSpaceOnUse">
            <stop stop-color="#FFDE00"/>
            <stop offset="1" stop-color="#E5BA50"/>
        </linearGradient>
        <linearGradient id="paint19_linear_302_493" x1="123.744" y1="28.477" x2="123.744" y2="14.3802"
                        gradientUnits="userSpaceOnUse">
            <stop stop-color="#FFDE00"/>
            <stop offset="1" stop-color="#E5BA50"/>
        </linearGradient>
        <linearGradient id="paint20_linear_302_493" x1="139.616" y1="28.6695" x2="139.616" y2="14.1875"
                        gradientUnits="userSpaceOnUse">
            <stop stop-color="#FFDE00"/>
            <stop offset="1" stop-color="#E5BA50"/>
        </linearGradient>
        <linearGradient id="paint21_linear_302_493" x1="139.616" y1="28.6695" x2="139.616" y2="14.1875"
                        gradientUnits="userSpaceOnUse">
            <stop stop-color="#FFDE00"/>
            <stop offset="1" stop-color="#E5BA50"/>
        </linearGradient>
        <linearGradient id="paint22_linear_302_493" x1="139.621" y1="28.6669" x2="139.621" y2="14.1846"
                        gradientUnits="userSpaceOnUse">
            <stop stop-color="#FFDE00"/>
            <stop offset="1" stop-color="#E5BA50"/>
        </linearGradient>
        <linearGradient id="paint23_linear_302_493" x1="153.621" y1="28.477" x2="153.621" y2="14.3802"
                        gradientUnits="userSpaceOnUse">
            <stop stop-color="#FFDE00"/>
            <stop offset="1" stop-color="#E5BA50"/>
        </linearGradient>
        <linearGradient id="paint24_linear_302_493" x1="153.621" y1="28.477" x2="153.621" y2="14.3802"
                        gradientUnits="userSpaceOnUse">
            <stop stop-color="#FFDE00"/>
            <stop offset="1" stop-color="#E5BA50"/>
        </linearGradient>
        <linearGradient id="paint25_linear_302_493" x1="153.621" y1="28.477" x2="153.621" y2="14.3802"
                        gradientUnits="userSpaceOnUse">
            <stop stop-color="#FFDE00"/>
            <stop offset="1" stop-color="#E5BA50"/>
        </linearGradient>
        <linearGradient id="paint26_linear_302_493" x1="165.925" y1="28.4766" x2="165.925" y2="14.3802"
                        gradientUnits="userSpaceOnUse">
            <stop stop-color="#FFDE00"/>
            <stop offset="1" stop-color="#E5BA50"/>
        </linearGradient>
        <linearGradient id="paint27_linear_302_493" x1="165.925" y1="28.4766" x2="165.925" y2="14.3802"
                        gradientUnits="userSpaceOnUse">
            <stop stop-color="#FFDE00"/>
            <stop offset="1" stop-color="#E5BA50"/>
        </linearGradient>
        <linearGradient id="paint28_linear_302_493" x1="165.925" y1="28.477" x2="165.925" y2="14.3802"
                        gradientUnits="userSpaceOnUse">
            <stop stop-color="#FFDE00"/>
            <stop offset="1" stop-color="#E5BA50"/>
        </linearGradient>
        <linearGradient id="paint29_linear_302_493" x1="177.949" y1="28.477" x2="177.949" y2="14.3802"
                        gradientUnits="userSpaceOnUse">
            <stop stop-color="#FFDE00"/>
            <stop offset="1" stop-color="#E5BA50"/>
        </linearGradient>
        <linearGradient id="paint30_linear_302_493" x1="177.949" y1="28.477" x2="177.949" y2="14.3802"
                        gradientUnits="userSpaceOnUse">
            <stop stop-color="#FFDE00"/>
            <stop offset="1" stop-color="#E5BA50"/>
        </linearGradient>
        <linearGradient id="paint31_linear_302_493" x1="177.949" y1="28.477" x2="177.949" y2="14.3802"
                        gradientUnits="userSpaceOnUse">
            <stop stop-color="#FFDE00"/>
            <stop offset="1" stop-color="#E5BA50"/>
        </linearGradient>
    </defs>
</svg>
