<svg width="200" height="150" viewBox="0 0 200 150" fill="none" xmlns="http://www.w3.org/2000/svg">
    <g clip-path="url(#clip0_241_9083)">
        <path d="M5.06702 104.489C3.68121 105.045 2.60574 105.821 1.85131 106.811C1.09152 107.806 0.71163 108.956 0.71163 110.256C0.71163 112.873 2.23655 114.922 5.28104 116.42C6.2174 116.886 7.42128 117.362 8.89805 117.854C10.3695 118.347 11.4021 118.828 11.9853 119.294C12.5739 119.754 12.8628 120.401 12.8628 121.231C12.8628 121.964 12.59 122.531 12.0495 122.932C11.5091 123.333 10.7654 123.537 9.82905 123.537C8.36834 123.537 7.30892 123.237 6.66149 122.638C6.01407 122.038 5.68234 121.113 5.68234 119.855H0C0 121.402 0.390594 122.771 1.17178 123.959C1.95297 125.147 3.11405 126.084 4.66037 126.768C6.20134 127.453 7.92959 127.796 9.82905 127.796C12.5311 127.796 14.6553 127.212 16.2016 126.035C17.7533 124.864 18.5291 123.248 18.5291 121.193C18.5291 118.625 17.261 116.608 14.7195 115.142C13.6761 114.537 12.3438 113.975 10.7172 113.456C9.09067 112.937 7.95634 112.429 7.31427 111.937C6.66685 111.45 6.34581 110.899 6.34581 110.299C6.34581 109.609 6.64009 109.042 7.22331 108.598C7.80652 108.148 8.60911 107.929 9.62038 107.929C10.6316 107.929 11.4128 108.191 12.0014 108.721C12.59 109.251 12.8789 109.989 12.8789 110.947H18.5291C18.5291 109.513 18.1546 108.245 17.4162 107.132C16.6725 106.019 15.6344 105.163 14.2968 104.558C12.9591 103.953 11.4449 103.654 9.75414 103.654C8.0152 103.654 6.45282 103.932 5.06702 104.489Z"
              fill="black"/>
        <path d="M5.06702 104.489C3.68121 105.045 2.60574 105.821 1.85131 106.811C1.09152 107.806 0.71163 108.957 0.71163 110.257C0.71163 112.873 2.23655 114.923 5.28104 116.421C6.2174 116.886 7.42128 117.363 8.89805 117.855C10.3695 118.347 11.4021 118.829 11.9853 119.294C12.5739 119.754 12.8628 120.402 12.8628 121.231C12.8628 121.964 12.59 122.531 12.0495 122.933C11.5091 123.334 10.7654 123.537 9.82905 123.537C8.36834 123.537 7.30892 123.237 6.66149 122.638C6.01407 122.039 5.68234 121.113 5.68234 119.856H0C0 121.402 0.390594 122.772 1.17178 123.96C1.95297 125.148 3.11405 126.084 4.66037 126.769C6.20134 127.454 7.92959 127.796 9.82905 127.796C12.5311 127.796 14.6553 127.213 16.2016 126.036C17.7533 124.864 18.5291 123.248 18.5291 121.194C18.5291 118.625 17.261 116.608 14.7195 115.142C13.6761 114.537 12.3438 113.976 10.7172 113.457C9.09067 112.938 7.95634 112.429 7.31427 111.937C6.66685 111.45 6.34581 110.899 6.34581 110.3C6.34581 109.61 6.64009 109.042 7.22331 108.598C7.80652 108.149 8.60911 107.929 9.62038 107.929C10.6316 107.929 11.4128 108.192 12.0014 108.721C12.59 109.251 12.8789 109.989 12.8789 110.947H18.5291C18.5291 109.513 18.1546 108.245 17.4162 107.132C16.6725 106.019 15.6344 105.163 14.2968 104.559C12.9591 103.954 11.4449 103.654 9.75414 103.654C8.0152 103.654 6.45282 103.933 5.06702 104.489Z"
              fill="black"/>
        <path d="M5.06702 104.489C3.68121 105.046 2.60574 105.822 1.85131 106.812C1.09152 107.807 0.71163 108.957 0.71163 110.257C0.71163 112.874 2.23655 114.923 5.28104 116.421C6.2174 116.887 7.42128 117.363 8.89805 117.855C10.3695 118.348 11.4021 118.829 11.9853 119.295C12.5739 119.755 12.8628 120.402 12.8628 121.231C12.8628 121.965 12.59 122.532 12.0495 122.933C11.5091 123.334 10.7654 123.538 9.82905 123.538C8.36834 123.538 7.30892 123.238 6.66149 122.639C6.01407 122.039 5.68234 121.114 5.68234 119.856H0C0 121.403 0.390594 122.772 1.17178 123.96C1.95297 125.148 3.11405 126.084 4.66037 126.769C6.20134 127.454 7.92959 127.797 9.82905 127.797C12.5311 127.797 14.6553 127.213 16.2016 126.036C17.7533 124.865 18.5291 123.249 18.5291 121.194C18.5291 118.626 17.261 116.609 14.7195 115.143C13.6761 114.538 12.3438 113.976 10.7172 113.457C9.09067 112.938 7.95634 112.43 7.31427 111.938C6.66685 111.451 6.34581 110.899 6.34581 110.3C6.34581 109.61 6.64009 109.043 7.22331 108.599C7.80652 108.149 8.60911 107.93 9.62038 107.93C10.6316 107.93 11.4128 108.192 12.0014 108.722C12.59 109.252 12.8789 109.99 12.8789 110.948H18.5291C18.5291 109.514 18.1546 108.246 17.4162 107.133C16.6725 106.02 15.6344 105.164 14.2968 104.559C12.9591 103.954 11.4449 103.655 9.75414 103.655C8.0152 103.655 6.45282 103.933 5.06702 104.489Z"
              fill="black"/>
        <mask id="mask0_241_9083" style="mask-type:luminance" maskUnits="userSpaceOnUse" x="0" y="103" width="19"
              height="25">
            <path d="M5.06702 104.489C3.68121 105.046 2.60574 105.822 1.85131 106.812C1.09152 107.807 0.71163 108.957 0.71163 110.257C0.71163 112.874 2.23655 114.923 5.28104 116.421C6.2174 116.887 7.42128 117.363 8.89805 117.855C10.3695 118.348 11.4021 118.829 11.9853 119.295C12.5739 119.755 12.8628 120.402 12.8628 121.231C12.8628 121.965 12.59 122.532 12.0495 122.933C11.5091 123.334 10.7654 123.538 9.82905 123.538C8.36834 123.538 7.30892 123.238 6.66149 122.639C6.01407 122.039 5.68234 121.114 5.68234 119.856H0C0 121.403 0.390594 122.772 1.17178 123.96C1.95297 125.148 3.11405 126.084 4.66037 126.769C6.20134 127.454 7.92959 127.797 9.82905 127.797C12.5311 127.797 14.6553 127.213 16.2016 126.036C17.7533 124.865 18.5291 123.249 18.5291 121.194C18.5291 118.626 17.261 116.609 14.7195 115.143C13.6761 114.538 12.3438 113.976 10.7172 113.457C9.09067 112.938 7.95634 112.43 7.31427 111.938C6.66685 111.451 6.34581 110.899 6.34581 110.3C6.34581 109.61 6.64009 109.043 7.22331 108.599C7.80652 108.149 8.60911 107.93 9.62038 107.93C10.6316 107.93 11.4128 108.192 12.0014 108.722C12.59 109.252 12.8789 109.99 12.8789 110.948H18.5291C18.5291 109.514 18.1546 108.246 17.4162 107.133C16.6725 106.02 15.6344 105.164 14.2968 104.559C12.9591 103.954 11.4449 103.655 9.75414 103.655C8.0152 103.655 6.45282 103.933 5.06702 104.489Z"
                  fill="white"/>
        </mask>
        <g mask="url(#mask0_241_9083)">
            <path d="M18.5238 103.655H0V127.791H18.5238V103.655Z" fill="black"/>
        </g>
        <path d="M20.894 103.98V108.352H27.8177V127.475H33.484V108.352H40.5307V103.98H20.894Z" fill="black"/>
        <path d="M20.894 103.981V108.352H27.8177V127.475H33.484V108.352H40.5307V103.981H20.894Z" fill="black"/>
        <path d="M20.894 103.981V108.353H27.8177V127.476H33.484V108.353H40.5307V103.981H20.894Z" fill="black"/>
        <mask id="mask1_241_9083" style="mask-type:luminance" maskUnits="userSpaceOnUse" x="20" y="103" width="21"
              height="25">
            <path d="M20.894 103.983V108.354H27.8177V127.477H33.484V108.354H40.5307V103.983H20.894Z" fill="white"/>
        </mask>
        <g mask="url(#mask1_241_9083)">
            <path d="M40.5307 103.983H20.894V127.477H40.5307V103.983Z" fill="black"/>
        </g>
        <path d="M51.1033 110.562L53.6341 118.711H48.5831L51.1033 110.562ZM48.4387 103.98L39.8242 127.475H45.8757L47.2294 123.082H54.9932L56.3629 127.475H62.4465L53.7679 103.98H48.4387Z"
              fill="black"/>
        <path d="M51.1033 110.562L53.6341 118.711H48.5831L51.1033 110.562ZM48.4387 103.981L39.8242 127.475H45.8757L47.2294 123.083H54.9932L56.3629 127.475H62.4465L53.7679 103.981H48.4387Z"
              fill="black"/>
        <path d="M51.1033 110.563L53.6341 118.712H48.5831L51.1033 110.563ZM48.4387 103.981L39.8242 127.476H45.8757L47.2294 123.083H54.9932L56.3629 127.476H62.4465L53.7679 103.981H48.4387Z"
              fill="black"/>
        <mask id="mask2_241_9083" style="mask-type:luminance" maskUnits="userSpaceOnUse" x="39" y="103" width="24"
              height="25">
            <path d="M51.1033 110.564L53.6341 118.713H48.5831L51.1033 110.564ZM48.4387 103.983L39.8242 127.477H45.8757L47.2294 123.085H54.9932L56.3629 127.477H62.4465L53.7679 103.983H48.4387Z"
                  fill="white"/>
        </mask>
        <g mask="url(#mask2_241_9083)">
            <path d="M62.4465 103.983H39.8242V127.477H62.4465V103.983Z" fill="black"/>
        </g>
        <path d="M70.4783 108.336H74.0632C75.128 108.336 75.9359 108.625 76.4817 109.203C77.0328 109.781 77.3057 110.573 77.3057 111.59C77.3057 112.606 77.0381 113.393 76.4924 113.96C75.9466 114.527 75.1387 114.811 74.0632 114.811H70.4783V108.336ZM64.8174 103.981V127.475H70.4783V119.166H73.5442L77.6909 127.475H83.7585V127.235L78.852 117.748C80.2592 117.085 81.2972 116.212 81.9553 115.137C82.6135 114.061 82.9506 112.708 82.9506 111.076C82.9506 108.818 82.164 107.074 80.5909 105.838C79.0232 104.602 76.8402 103.986 74.0579 103.986L64.8174 103.981Z"
              fill="black"/>
        <path d="M70.4783 108.337H74.0632C75.128 108.337 75.9359 108.626 76.4817 109.204C77.0328 109.781 77.3057 110.573 77.3057 111.59C77.3057 112.607 77.0381 113.393 76.4924 113.96C75.9466 114.527 75.1387 114.811 74.0632 114.811H70.4783V108.337ZM64.8174 103.981V127.476H70.4783V119.166H73.5442L77.6909 127.476H83.7585V127.235L78.852 117.749C80.2592 117.085 81.2972 116.213 81.9553 115.137C82.6135 114.062 82.9506 112.708 82.9506 111.076C82.9506 108.818 82.164 107.074 80.5909 105.838C79.0232 104.602 76.8402 103.987 74.0579 103.987L64.8174 103.981Z"
              fill="black"/>
        <path d="M70.4783 108.337H74.0632C75.128 108.337 75.9359 108.626 76.4817 109.204C77.0328 109.782 77.3057 110.574 77.3057 111.59C77.3057 112.607 77.0381 113.394 76.4924 113.961C75.9466 114.528 75.1387 114.812 74.0632 114.812H70.4783V108.337ZM64.8174 103.982V127.476H70.4783V119.167H73.5442L77.6909 127.476H83.7585V127.236L78.852 117.749C80.2592 117.086 81.2972 116.213 81.9553 115.138C82.6135 114.062 82.9506 112.709 82.9506 111.077C82.9506 108.819 82.164 107.075 80.5909 105.839C79.0232 104.603 76.8402 103.987 74.0579 103.987L64.8174 103.982Z"
              fill="black"/>
        <mask id="mask3_241_9083" style="mask-type:luminance" maskUnits="userSpaceOnUse" x="64" y="103" width="20"
              height="25">
            <path d="M70.4788 108.338H74.0637C75.1285 108.338 75.9364 108.627 76.4822 109.205C77.0333 109.783 77.3062 110.575 77.3062 111.591C77.3062 112.608 77.0386 113.395 76.4929 113.962C75.9471 114.529 75.1392 114.813 74.0637 114.813H70.4788V108.338ZM64.8179 103.983V127.477H70.4788V119.168H73.5447L77.6914 127.477H83.759V127.237L78.8525 117.75C80.2597 117.087 81.2977 116.214 81.9558 115.139C82.614 114.063 82.951 112.71 82.951 111.078C82.951 108.82 82.1645 107.076 80.5914 105.84C79.0237 104.604 76.8407 103.988 74.0584 103.988L64.8179 103.983Z"
                  fill="white"/>
        </mask>
        <g mask="url(#mask3_241_9083)">
            <path d="M83.7643 103.983H64.8179V127.477H83.7643V103.983Z" fill="black"/>
        </g>
        <path d="M107.927 103.981L105.236 118.711L101.961 103.981H97.1511L93.9247 118.711L91.2279 103.981H85.5991L90.6019 127.475H96.4608L99.5374 114.078L102.689 127.475H108.559L113.545 103.981H107.927Z"
              fill="black"/>
        <path d="M107.927 103.981L105.236 118.712L101.961 103.981H97.1511L93.9247 118.712L91.2279 103.981H85.5991L90.6019 127.476H96.4608L99.5374 114.078L102.689 127.476H108.559L113.545 103.981H107.927Z"
              fill="black"/>
        <path d="M107.927 103.982L105.236 118.712L101.961 103.982H97.1511L93.9247 118.712L91.2279 103.982H85.5991L90.6019 127.476H96.4608L99.5374 114.079L102.689 127.476H108.559L113.545 103.982H107.927Z"
              fill="black"/>
        <mask id="mask4_241_9083" style="mask-type:luminance" maskUnits="userSpaceOnUse" x="85" y="103" width="29"
              height="25">
            <path d="M107.928 103.983L105.236 118.713L101.962 103.983H97.1515L93.9251 118.713L91.2284 103.983H85.5996L90.6024 127.477H96.4613L99.5379 114.079L102.689 127.477H108.559L113.546 103.983H107.928Z"
                  fill="white"/>
        </mask>
        <g mask="url(#mask4_241_9083)">
            <path d="M113.546 103.983H85.5996V127.477H113.546V103.983Z" fill="black"/>
        </g>
        <path d="M122.662 121.52C121.897 120.284 121.517 118.512 121.517 116.212L121.534 114.483C121.694 110.224 123.198 108.095 126.033 108.095C127.483 108.095 128.602 108.699 129.383 109.909C130.164 111.118 130.555 112.894 130.555 115.227V116.308C130.544 118.587 130.153 120.337 129.377 121.552C128.602 122.772 127.499 123.376 126.071 123.376C124.557 123.371 123.428 122.756 122.662 121.52ZM120.651 105.093C119.078 106.051 117.863 107.41 117.018 109.165C116.172 110.925 115.75 112.953 115.75 115.259V116.581C115.792 118.796 116.247 120.76 117.114 122.472C117.981 124.184 119.185 125.5 120.736 126.415C122.288 127.336 124.059 127.796 126.06 127.796C128.061 127.796 129.843 127.32 131.405 126.367C132.973 125.415 134.182 124.056 135.028 122.295C135.878 120.53 136.301 118.502 136.301 116.212V115.131C136.29 112.873 135.852 110.866 134.985 109.122C134.118 107.373 132.904 106.024 131.347 105.077C129.784 104.13 128.013 103.659 126.023 103.659C124.022 103.654 122.229 104.135 120.651 105.093Z"
              fill="black"/>
        <path d="M122.662 121.519C121.897 120.283 121.517 118.512 121.517 116.211L121.533 114.483C121.694 110.224 123.197 108.094 126.033 108.094C127.483 108.094 128.601 108.699 129.382 109.908C130.164 111.117 130.554 112.894 130.554 115.227V116.308C130.543 118.587 130.153 120.337 129.377 121.551C128.601 122.771 127.499 123.376 126.07 123.376C124.556 123.37 123.427 122.755 122.662 121.519ZM120.65 105.093C119.077 106.05 117.863 107.41 117.017 109.165C116.172 110.925 115.749 112.953 115.749 115.259V116.58C115.792 118.796 116.247 120.759 117.113 122.471C117.98 124.184 119.184 125.5 120.736 126.415C122.287 127.335 124.058 127.795 126.06 127.795C128.061 127.795 129.842 127.319 131.405 126.367C132.973 125.414 134.182 124.055 135.027 122.295C135.878 120.529 136.301 118.501 136.301 116.211V115.13C136.29 112.872 135.851 110.866 134.984 109.122C134.118 107.372 132.903 106.024 131.346 105.077C129.784 104.13 128.013 103.659 126.022 103.659C124.021 103.653 122.229 104.135 120.65 105.093Z"
              fill="black"/>
        <path d="M122.662 121.519C121.897 120.283 121.517 118.512 121.517 116.211L121.533 114.483C121.694 110.223 123.197 108.094 126.033 108.094C127.483 108.094 128.601 108.699 129.382 109.908C130.164 111.117 130.554 112.893 130.554 115.226V116.307C130.543 118.586 130.153 120.336 129.377 121.551C128.601 122.771 127.499 123.375 126.07 123.375C124.556 123.37 123.427 122.755 122.662 121.519ZM120.65 105.092C119.077 106.05 117.863 107.409 117.017 109.164C116.172 110.924 115.749 112.952 115.749 115.258V116.58C115.792 118.795 116.247 120.759 117.113 122.471C117.98 124.183 119.184 125.499 120.736 126.414C122.287 127.335 124.058 127.795 126.06 127.795C128.061 127.795 129.842 127.319 131.405 126.366C132.973 125.414 134.182 124.055 135.027 122.294C135.878 120.529 136.301 118.501 136.301 116.211V115.13C136.29 112.872 135.851 110.866 134.984 109.121C134.118 107.372 132.903 106.023 131.346 105.076C129.784 104.129 128.013 103.658 126.022 103.658C124.021 103.653 122.229 104.134 120.65 105.092Z"
              fill="black"/>
        <mask id="mask5_241_9083" style="mask-type:luminance" maskUnits="userSpaceOnUse" x="115" y="103" width="22"
              height="25">
            <path d="M122.662 121.518C121.897 120.282 121.517 118.511 121.517 116.21L121.533 114.482C121.694 110.223 123.197 108.093 126.033 108.093C127.483 108.093 128.601 108.698 129.382 109.907C130.164 111.116 130.554 112.893 130.554 115.226V116.307C130.543 118.586 130.153 120.336 129.377 121.55C128.601 122.77 127.499 123.375 126.07 123.375C124.556 123.369 123.427 122.754 122.662 121.518ZM120.65 105.092C119.077 106.049 117.863 107.409 117.017 109.164C116.172 110.924 115.749 112.952 115.749 115.258V116.579C115.792 118.795 116.247 120.758 117.113 122.47C117.98 124.183 119.184 125.499 120.736 126.414C122.287 127.334 124.058 127.794 126.06 127.794C128.061 127.794 129.842 127.318 131.405 126.366C132.973 125.413 134.182 124.054 135.027 122.294C135.878 120.528 136.301 118.5 136.301 116.21V115.129C136.29 112.871 135.851 110.865 134.984 109.121C134.118 107.371 132.903 106.023 131.346 105.076C129.784 104.129 128.013 103.658 126.022 103.658C124.021 103.652 122.229 104.134 120.65 105.092Z"
                  fill="white"/>
        </mask>
        <g mask="url(#mask5_241_9083)">
            <path d="M136.311 103.653H115.754V127.789H136.311V103.653Z" fill="black"/>
        </g>
        <path d="M145.558 108.336H149.137C150.202 108.336 151.01 108.625 151.561 109.203C152.107 109.781 152.385 110.573 152.385 111.59C152.385 112.606 152.112 113.393 151.572 113.96C151.032 114.527 150.218 114.811 149.143 114.811H145.563V108.336H145.558ZM139.897 103.981V127.475H145.558V119.166H148.624L152.771 127.475H158.838V127.235L153.932 117.748C155.344 117.085 156.377 116.212 157.035 115.137C157.698 114.061 158.025 112.708 158.025 111.076C158.025 108.818 157.238 107.074 155.671 105.838C154.097 104.602 151.92 103.986 149.132 103.986L139.897 103.981Z"
              fill="black"/>
        <path d="M145.558 108.337H149.137C150.202 108.337 151.01 108.626 151.561 109.204C152.107 109.781 152.385 110.573 152.385 111.59C152.385 112.607 152.112 113.393 151.572 113.96C151.032 114.527 150.218 114.811 149.143 114.811H145.563V108.337H145.558ZM139.897 103.981V127.476H145.558V119.166H148.624L152.771 127.476H158.838V127.235L153.932 117.749C155.344 117.085 156.377 116.213 157.035 115.137C157.698 114.062 158.025 112.708 158.025 111.076C158.025 108.818 157.238 107.074 155.671 105.838C154.097 104.602 151.92 103.987 149.132 103.987L139.897 103.981Z"
              fill="black"/>
        <path d="M145.558 108.337H149.137C150.202 108.337 151.01 108.626 151.561 109.204C152.107 109.782 152.385 110.574 152.385 111.59C152.385 112.607 152.112 113.394 151.572 113.961C151.032 114.528 150.218 114.812 149.143 114.812H145.563V108.337H145.558ZM139.897 103.982V127.476H145.558V119.167H148.624L152.771 127.476H158.838V127.236L153.932 117.749C155.344 117.086 156.377 116.213 157.035 115.138C157.698 114.062 158.025 112.709 158.025 111.077C158.025 108.819 157.238 107.075 155.671 105.839C154.097 104.603 151.92 103.987 149.132 103.987L139.897 103.982Z"
              fill="black"/>
        <mask id="mask6_241_9083" style="mask-type:luminance" maskUnits="userSpaceOnUse" x="139" y="103" width="20"
              height="25">
            <path d="M145.558 108.338H149.138C150.203 108.338 151.011 108.627 151.562 109.205C152.108 109.783 152.386 110.575 152.386 111.591C152.386 112.608 152.113 113.395 151.572 113.962C151.032 114.529 150.219 114.813 149.143 114.813H145.564V108.338H145.558ZM139.897 103.983V127.477H145.558V119.168H148.624L152.771 127.477H158.839V127.237L153.932 117.75C155.345 117.087 156.377 116.214 157.035 115.139C157.699 114.063 158.025 112.71 158.025 111.078C158.025 108.82 157.239 107.076 155.671 105.84C154.098 104.604 151.92 103.988 149.133 103.988L139.897 103.983Z"
                  fill="white"/>
        </mask>
        <g mask="url(#mask6_241_9083)">
            <path d="M158.839 103.983H139.897V127.477H158.839V103.983Z" fill="black"/>
        </g>
        <path d="M162.112 103.98V127.475H177.634V123.114H167.773V103.98H162.112Z" fill="black"/>
        <path d="M162.112 103.98V127.475H177.634V123.114H167.773V103.98H162.112Z" fill="black"/>
        <path d="M162.112 103.98V127.475H177.634V123.114H167.773V103.98H162.112Z" fill="black"/>
        <mask id="mask7_241_9083" style="mask-type:luminance" maskUnits="userSpaceOnUse" x="162" y="103" width="16"
              height="25">
            <path d="M162.113 103.981V127.476H177.635V123.115H167.774V103.981H162.113Z" fill="white"/>
        </mask>
        <g mask="url(#mask7_241_9083)">
            <path d="M177.635 103.981H162.113V127.476H177.635V103.981Z" fill="black"/>
        </g>
        <path d="M186.346 108.352H188.25C189.914 108.352 191.188 108.93 192.055 110.081C192.927 111.231 193.36 112.943 193.36 115.212V116.228C193.36 118.508 192.927 120.225 192.055 121.386C191.182 122.542 189.936 123.12 188.309 123.12H186.34L186.346 108.352ZM180.685 103.981V127.475H188.411C190.444 127.465 192.285 126.978 193.938 126.015C195.591 125.052 196.87 123.719 197.78 122.012C198.689 120.306 199.144 118.379 199.144 116.228V115.148C199.133 113.018 198.663 111.092 197.732 109.38C196.801 107.662 195.506 106.335 193.852 105.394C192.199 104.452 190.332 103.981 188.256 103.981H180.685Z"
              fill="black"/>
        <path d="M186.346 108.353H188.25C189.914 108.353 191.188 108.931 192.055 110.081C192.927 111.232 193.36 112.944 193.36 115.212V116.229C193.36 118.508 192.927 120.226 192.055 121.387C191.182 122.543 189.936 123.121 188.309 123.121H186.34L186.346 108.353ZM180.685 103.981V127.476H188.411C190.444 127.465 192.285 126.978 193.938 126.015C195.591 125.052 196.87 123.72 197.78 122.013C198.689 120.306 199.144 118.38 199.144 116.229V115.148C199.133 113.019 198.663 111.092 197.732 109.38C196.801 107.663 195.506 106.336 193.852 105.394C192.199 104.452 190.332 103.981 188.256 103.981H180.685Z"
              fill="black"/>
        <path d="M186.346 108.353H188.25C189.914 108.353 191.188 108.931 192.055 110.082C192.927 111.232 193.36 112.944 193.36 115.213V116.229C193.36 118.509 192.927 120.226 192.055 121.387C191.182 122.543 189.936 123.121 188.309 123.121H186.34L186.346 108.353ZM180.685 103.982V127.476H188.411C190.444 127.466 192.285 126.979 193.938 126.016C195.591 125.053 196.87 123.72 197.78 122.013C198.689 120.307 199.144 118.38 199.144 116.229V115.149C199.133 113.019 198.663 111.093 197.732 109.381C196.801 107.663 195.506 106.336 193.852 105.394C192.199 104.453 190.332 103.982 188.256 103.982H180.685Z"
              fill="black"/>
        <mask id="mask8_241_9083" style="mask-type:luminance" maskUnits="userSpaceOnUse" x="180" y="103" width="20"
              height="25">
            <path d="M186.346 108.354H188.251C189.915 108.354 191.188 108.932 192.055 110.083C192.927 111.233 193.361 112.945 193.361 115.214V116.23C193.361 118.51 192.927 120.227 192.055 121.388C191.183 122.544 189.936 123.122 188.31 123.122H186.341L186.346 108.354ZM180.685 103.983V127.477H188.411C190.445 127.467 192.285 126.98 193.939 126.017C195.592 125.054 196.871 123.721 197.78 122.014C198.69 120.308 199.145 118.381 199.145 116.23V115.15C199.134 113.02 198.663 111.094 197.732 109.382C196.801 107.664 195.506 106.337 193.853 105.395C192.2 104.454 190.332 103.983 188.256 103.983H180.685Z"
                  fill="white"/>
        </mask>
        <g mask="url(#mask8_241_9083)">
            <path d="M199.145 103.983H180.685V127.477H199.145V103.983Z" fill="black"/>
        </g>
        <path d="M51.0812 142.736H2.55664V144.582H51.0812V142.736Z" fill="black"/>
        <path d="M51.081 142.736H2.5564V144.582H51.081V142.736Z" fill="black"/>
        <path d="M51.081 142.737H2.5564V144.583H51.081V142.737Z" fill="black"/>
        <mask id="mask9_241_9083" style="mask-type:luminance" maskUnits="userSpaceOnUse" x="2" y="142" width="50"
              height="3">
            <path d="M51.081 142.738H2.5564V144.584H51.081V142.738Z" fill="white"/>
        </mask>
        <g mask="url(#mask9_241_9083)">
            <path d="M51.081 142.738H2.5564V144.584H51.081V142.738Z" fill="black"/>
        </g>
        <path d="M197.443 142.736H148.918V144.582H197.443V142.736Z" fill="black"/>
        <path d="M197.443 142.736H148.918V144.582H197.443V142.736Z" fill="black"/>
        <path d="M197.443 142.737H148.918V144.583H197.443V142.737Z" fill="black"/>
        <mask id="mask10_241_9083" style="mask-type:luminance" maskUnits="userSpaceOnUse" x="148" y="142" width="50"
              height="3">
            <path d="M197.443 142.738H148.918V144.584H197.443V142.738Z" fill="white"/>
        </mask>
        <g mask="url(#mask10_241_9083)">
            <path d="M197.443 142.738H148.918V144.584H197.443V142.738Z" fill="black"/>
        </g>
        <path d="M63.9424 143.591C63.9424 140.06 66.2217 137.438 69.9243 137.438C71.5991 137.438 73.3541 138.064 74.6061 139.412L73.1722 140.664C72.3428 139.851 71.262 139.364 69.9083 139.364C67.7467 139.364 66.0719 140.985 66.0719 143.591C66.0719 145.994 67.5915 147.818 69.9939 147.818C70.957 147.818 71.8506 147.567 72.6639 147.026V144.998H69.721V143.174H74.6917V148.177C73.5949 149.092 71.8345 149.68 69.9939 149.68C66.5481 149.675 63.9424 147.39 63.9424 143.591Z"
              fill="black"/>
        <path d="M80.6733 137.572H85.1036C87.9609 137.572 89.2129 139.225 89.2129 141.456C89.2129 143.334 88.2979 144.581 86.5429 145.089L89.6516 149.568H87.2011L84.3278 145.293H82.7226V149.568H80.6787L80.6733 137.572ZM84.6595 143.452C86.2968 143.452 87.0941 142.607 87.0941 141.424C87.0941 140.156 86.2647 139.396 84.7986 139.396H82.7226V143.452H84.6595Z"
              fill="black"/>
        <path d="M94.2104 143.57C94.2104 140.038 96.6771 137.438 100.278 137.438C103.879 137.438 106.33 139.905 106.33 143.57C106.33 147.235 103.745 149.702 100.278 149.702C96.6771 149.707 94.2104 147.101 94.2104 143.57ZM104.195 143.57C104.195 141.103 102.488 139.343 100.273 139.343C97.9238 139.343 96.3186 141.221 96.3186 143.57C96.3186 145.919 97.9238 147.797 100.273 147.797C102.488 147.797 104.195 146.02 104.195 143.57Z"
              fill="black"/>
        <path d="M111.921 144.635V137.572H113.949V144.485C113.949 146.395 114.96 147.781 116.688 147.781C118.293 147.781 119.444 146.545 119.444 144.485V137.572H121.488V144.635C121.488 147.743 119.679 149.707 116.688 149.707C113.847 149.707 111.921 147.861 111.921 144.635Z"
              fill="black"/>
        <path d="M127.604 137.572H131.948C134.821 137.572 136.057 139.225 136.057 141.456C136.057 144.057 134.297 145.293 131.713 145.293H129.653V149.568H127.609V137.572H127.604ZM131.504 143.452C133.179 143.452 133.939 142.607 133.939 141.424C133.939 140.156 133.125 139.396 131.659 139.396H129.647V143.452H131.504Z"
              fill="black"/>
        <path d="M100 93.9336C74.1834 93.9336 53.1802 72.9309 53.1802 47.1148C53.1802 21.2987 74.1834 0.294434 100 0.294434C125.817 0.294434 146.82 21.2982 146.82 47.1148C146.82 72.9315 125.817 93.9336 100 93.9336Z"
              fill="black"/>
        <path d="M130.366 38.907L107.678 38.2676L100.167 49.2636L130.366 38.907Z" fill="#FFDD00"/>
        <path d="M100.167 49.264L107.678 38.2674H107.677L100.032 17.4424V49.31L100.167 49.264Z" fill="#FFDD00"/>
        <path d="M100.096 49.3677L100.04 49.4511L118.689 76.7804L118.695 76.7841L112.931 53.73L100.096 49.3677Z"
              fill="#FFDD00"/>
        <mask id="mask11_241_9083" style="mask-type:luminance" maskUnits="userSpaceOnUse" x="100" y="49" width="19"
              height="28">
            <path d="M100.032 49.435V64.1411L118.689 76.7546L100.039 49.4248L100.032 49.435Z" fill="white"/>
        </mask>
        <g mask="url(#mask11_241_9083)">
            <path d="M112.213 40.543L87.0215 58.9126L106.509 85.6366L131.7 67.267L112.213 40.543Z"
                  fill="url(#paint0_linear_241_9083)"/>
        </g>
        <mask id="mask12_241_9083" style="mask-type:luminance" maskUnits="userSpaceOnUse" x="81" y="49" width="20"
              height="28">
            <path d="M81.3707 76.7547L81.3701 76.7584L100.032 64.1412V49.4361V49.4351L81.3707 76.7547Z" fill="white"/>
        </mask>
        <g mask="url(#mask12_241_9083)">
            <path d="M87.1456 40.8089L68.7397 68.3032L94.2573 85.3857L112.663 57.8914L87.1456 40.8089Z"
                  fill="url(#paint1_linear_241_9083)"/>
        </g>
        <mask id="mask13_241_9083" style="mask-type:luminance" maskUnits="userSpaceOnUse" x="100" y="38" width="31"
              height="16">
            <path d="M100.168 49.2395L100.097 49.3427L112.932 53.7056L130.716 38.8925L130.367 38.8823L100.168 49.2395Z"
                  fill="white"/>
        </mask>
        <g mask="url(#mask13_241_9083)">
            <path d="M127.236 29.1644L95.3916 40.5664L103.575 63.4227L135.42 52.0207L127.236 29.1644Z"
                  fill="url(#paint2_linear_241_9083)"/>
        </g>
        <path d="M100.033 49.4404L99.9607 49.3345L87.1326 53.7343L81.3711 76.7809L100.033 49.4613V49.4404Z"
              fill="#FFDD00"/>
        <mask id="mask14_241_9083" style="mask-type:luminance" maskUnits="userSpaceOnUse" x="92" y="17" width="9"
              height="33">
            <path d="M92.395 38.2238L99.949 49.292L99.9806 49.3027L100.032 49.2845V17.418L92.395 38.2238Z"
                  fill="white"/>
        </mask>
        <g mask="url(#mask14_241_9083)">
            <path d="M100.032 17.418H92.395V49.3027H100.032V17.418Z" fill="url(#paint3_linear_241_9083)"/>
        </g>
        <path d="M92.3952 38.249L92.3883 38.2683L69.3491 38.9173L99.9487 49.3173L92.3952 38.249Z" fill="#FFDD00"/>
        <mask id="mask15_241_9083" style="mask-type:luminance" maskUnits="userSpaceOnUse" x="69" y="38" width="31"
              height="16">
            <path d="M87.1334 53.7047L87.1318 53.709L99.9609 49.3092L99.9486 49.2916L69.3496 38.8916L87.1334 53.7047Z"
                  fill="white"/>
        </mask>
        <g mask="url(#mask15_241_9083)">
            <path d="M72.2099 29.9815L65.0366 52.3237L97.1001 62.6182L104.273 40.2759L72.2099 29.9815Z"
                  fill="url(#paint4_linear_241_9083)"/>
        </g>
        <path d="M137.502 47.1136C137.502 27.9194 122.706 11.6653 103.689 9.80225V11.8462C121.555 13.7002 135.466 29.0778 135.466 47.1136C135.466 65.1494 121.927 80.4082 103.876 82.3617V84.404C122.788 82.4559 137.503 66.2115 137.503 47.1136"
              fill="#FFDD00"/>
        <path d="M62.4985 47.1136C62.4985 66.6556 77.5872 82.9402 96.9767 84.487V82.4426C78.7355 80.8994 64.5339 65.4967 64.5339 47.1136C64.5339 28.7306 78.736 13.3273 96.9767 11.7842V9.74023C77.5872 11.286 62.4985 27.5716 62.4985 47.1136Z"
              fill="#FFDD00"/>
        <path d="M99.9997 90.9542C75.8257 90.9542 56.1585 71.2876 56.1585 47.1135C56.1585 22.9395 75.8257 3.27181 99.9997 3.27181C124.174 3.27181 143.841 22.9395 143.841 47.1135C143.841 71.2876 124.174 90.9542 99.9997 90.9542ZM99.9997 1.27979C74.7272 1.27979 54.1665 21.8405 54.1665 47.1141C54.1665 72.3876 74.7272 92.9478 99.9997 92.9478C125.272 92.9478 145.835 72.3871 145.835 47.1141C145.835 21.8411 125.272 1.27979 99.9997 1.27979Z"
              fill="#FFDD00"/>
        <path d="M101.13 7.01904H99.5156V13.8266H101.13V7.01904Z" fill="#FFDD00"/>
        <path d="M101.111 73.6616H99.4966V89.6562H101.111V73.6616Z" fill="#FFDD00"/>
        <path d="M140.9 45.3027C140.071 45.3027 139.399 45.9758 139.399 46.8036C139.399 47.6313 140.071 48.305 140.9 48.305C141.728 48.305 142.401 47.6318 142.401 46.8036C142.401 45.9753 141.727 45.3027 140.9 45.3027Z"
              fill="#FFDD00"/>
        <path d="M59.4707 45.3027C58.6424 45.3027 57.9688 45.9758 57.9688 46.8036C57.9688 47.6313 58.6424 48.305 59.4707 48.305C60.2989 48.305 60.9715 47.6318 60.9715 46.8036C60.9715 45.9753 60.2984 45.3027 59.4707 45.3027Z"
              fill="#FFDD00"/>
    </g>
    <defs>
        <linearGradient id="paint0_linear_241_9083" x1="117.989" y1="74.9058" x2="101.349" y2="52.0865"
                        gradientUnits="userSpaceOnUse">
            <stop stop-color="#FFDD00"/>
            <stop offset="0.18" stop-color="#F3CB0C"/>
            <stop offset="0.46" stop-color="#E5B51B"/>
            <stop offset="0.74" stop-color="#DCA924"/>
            <stop offset="0.99" stop-color="#DAA528"/>
            <stop offset="1" stop-color="#DAA528"/>
        </linearGradient>
        <linearGradient id="paint1_linear_241_9083" x1="81.7963" y1="76.0944" x2="100.087" y2="48.7719"
                        gradientUnits="userSpaceOnUse">
            <stop stop-color="#FFDD00"/>
            <stop offset="0.18" stop-color="#F3CB0C"/>
            <stop offset="0.46" stop-color="#E5B51B"/>
            <stop offset="0.74" stop-color="#DCA924"/>
            <stop offset="0.99" stop-color="#DAA528"/>
            <stop offset="1" stop-color="#DAA528"/>
        </linearGradient>
        <linearGradient id="paint2_linear_241_9083" x1="132.13" y1="40.3686" x2="102.251" y2="51.0667"
                        gradientUnits="userSpaceOnUse">
            <stop stop-color="#FFDD00"/>
            <stop offset="0.18" stop-color="#F3CB0C"/>
            <stop offset="0.46" stop-color="#E5B51B"/>
            <stop offset="0.74" stop-color="#DCA924"/>
            <stop offset="1" stop-color="#DAA528"/>
        </linearGradient>
        <linearGradient id="paint3_linear_241_9083" x1="96.2255" y1="19.5372" x2="96.2255" y2="46.5704"
                        gradientUnits="userSpaceOnUse">
            <stop stop-color="#FFDD00"/>
            <stop offset="0.18" stop-color="#F3CB0C"/>
            <stop offset="0.46" stop-color="#E5B51B"/>
            <stop offset="0.74" stop-color="#DCA924"/>
            <stop offset="0.99" stop-color="#DAA528"/>
            <stop offset="1" stop-color="#DAA528"/>
        </linearGradient>
        <linearGradient id="paint4_linear_241_9083" x1="68.56" y1="40.9738" x2="99.2809" y2="50.8372"
                        gradientUnits="userSpaceOnUse">
            <stop stop-color="#FFDD00"/>
            <stop offset="0.18" stop-color="#F3CB0C"/>
            <stop offset="0.46" stop-color="#E5B51B"/>
            <stop offset="0.74" stop-color="#DCA924"/>
            <stop offset="0.99" stop-color="#DAA528"/>
            <stop offset="1" stop-color="#DAA528"/>
        </linearGradient>
        <clipPath id="clip0_241_9083">
            <rect width="200" height="149.413" fill="white" transform="translate(0 0.293457)"/>
        </clipPath>
    </defs>
</svg>
